<svg width="185" height="55" viewBox="0 0 185 55" fill="none" xmlns="http://www.w3.org/2000/svg">
<g style="mix-blend-mode:luminosity">
<rect x="0.502717" y="0.914583" width="183.995" height="52.9529" rx="14.5788" stroke="#2C2A29" stroke-width="1.00543"/>
<path d="M72.9009 17.6803C72.9009 18.0339 72.8273 18.3924 72.6799 18.7559C72.5326 19.1095 72.3067 19.4582 72.0022 19.8019C71.7075 20.1359 71.2901 20.4109 70.7499 20.627C70.2097 20.8431 69.5909 20.9511 68.8935 20.9511C67.5773 20.9511 66.5116 20.6368 65.6964 20.0082C64.8811 19.3796 64.4735 18.4563 64.4735 17.2383H66.2857C66.2857 18.0045 66.5362 18.5742 67.0371 18.9474C67.538 19.3108 68.1912 19.4925 68.9966 19.4925C69.6645 19.4925 70.1753 19.3354 70.5289 19.0211C70.8825 18.7068 71.0593 18.25 71.0593 17.6509C71.0593 17.1008 70.8825 16.6834 70.5289 16.3986C70.1851 16.1137 69.7087 15.9713 69.0998 15.9713H67.818V14.5422H69.0998C69.581 14.5422 69.9788 14.3899 70.2931 14.0854C70.6173 13.7809 70.7793 13.3881 70.7793 12.9068C70.7793 12.4451 70.6173 12.0866 70.2931 11.8312C69.969 11.566 69.5123 11.4334 68.923 11.4334C67.5086 11.4334 66.7473 12.0473 66.6393 13.2751H64.886C64.9253 12.1554 65.3035 11.3254 66.0205 10.7852C66.7375 10.245 67.6657 9.97485 68.8051 9.97485C69.915 9.97485 70.8235 10.2155 71.5307 10.6968C72.2379 11.1682 72.5915 11.8754 72.5915 12.8184C72.5915 13.3488 72.4196 13.8301 72.0759 14.2622C71.7321 14.6944 71.3441 14.9645 70.9119 15.0726V15.1168C71.5013 15.2346 71.9776 15.5293 72.3411 16.0008C72.7143 16.4624 72.9009 17.0223 72.9009 17.6803Z" fill="#2C2A29"/>
<path d="M74.366 15.4556C74.5428 13.7367 75.6527 12.8773 77.6957 12.8773C78.6484 12.8773 79.4047 13.0639 79.9646 13.4372C80.5343 13.8104 80.8191 14.3899 80.8191 15.1757V19.0358C80.8191 19.2519 80.8437 19.3992 80.8928 19.4778C80.9517 19.5564 81.0598 19.5957 81.2169 19.5957C81.3348 19.5957 81.4625 19.5858 81.6 19.5662V20.7449C81.1678 20.8529 80.8044 20.9069 80.5097 20.9069C79.7927 20.9069 79.3802 20.6024 79.2721 19.9935C78.6337 20.6024 77.7448 20.9069 76.6054 20.9069C75.8196 20.9069 75.1959 20.7056 74.7343 20.3029C74.2727 19.8903 74.0418 19.3354 74.0418 18.638C74.0418 18.4219 74.0664 18.2206 74.1155 18.0339C74.1646 17.8473 74.2186 17.6853 74.2776 17.5477C74.3463 17.4102 74.4495 17.2825 74.587 17.1647C74.7343 17.0468 74.8522 16.9486 74.9406 16.87C75.0388 16.7914 75.191 16.7178 75.3973 16.649C75.6134 16.5803 75.7705 16.5311 75.8688 16.5017C75.9768 16.4624 76.1585 16.4231 76.4139 16.3838C76.6693 16.3445 76.8362 16.32 76.9148 16.3102C77.0032 16.2905 77.18 16.266 77.4452 16.2365C78.0444 16.1579 78.452 16.0941 78.6681 16.045C78.8842 15.986 79.0315 15.9025 79.1101 15.7945C79.1788 15.7159 79.2132 15.5342 79.2132 15.2494C79.2132 14.4832 78.6926 14.1002 77.6515 14.1002C77.1014 14.1002 76.6987 14.2033 76.4434 14.4096C76.188 14.6158 76.0259 14.9645 75.9572 15.4556H74.366ZM79.1985 16.8995C79.0708 16.9682 78.9234 17.0321 78.7565 17.091C78.5895 17.1401 78.452 17.1745 78.3439 17.1941C78.2457 17.204 78.0837 17.2236 77.8577 17.2531C77.6417 17.2825 77.4992 17.3022 77.4305 17.312C77.2242 17.3415 77.0622 17.3709 76.9443 17.4004C76.8264 17.4201 76.6791 17.4593 76.5023 17.5183C76.3353 17.5772 76.2027 17.6509 76.1045 17.7393C76.0161 17.8179 75.9375 17.9308 75.8688 18.0781C75.8 18.2157 75.7656 18.3826 75.7656 18.5791C75.7656 18.9425 75.8835 19.2224 76.1192 19.4189C76.3648 19.6153 76.7036 19.7135 77.1358 19.7135C77.8823 19.7135 78.4569 19.5122 78.8596 19.1095C79.0855 18.8836 79.1985 18.4465 79.1985 17.7982V16.8995Z" fill="#2C2A29"/>
<path d="M87.9451 14.439H84.306V20.7154H82.6264V13.113H87.9451V14.439Z" fill="#2C2A29"/>
<path d="M90.5054 13.113V14.1296C91.0162 13.3046 91.8412 12.892 92.9806 12.892C94.0316 12.892 94.8714 13.2604 95.5 13.997C96.1286 14.7337 96.4429 15.7159 96.4429 16.9437C96.4429 18.142 96.1335 19.1046 95.5147 19.8314C94.9058 20.5484 94.0905 20.9069 93.069 20.9069C91.9886 20.9069 91.1635 20.5091 90.5938 19.7135V23.5294H88.929V13.113H90.5054ZM92.6418 14.2475C91.9837 14.2475 91.468 14.4832 91.0948 14.9547C90.7215 15.4262 90.5349 16.0793 90.5349 16.9142C90.5349 17.7393 90.7215 18.3875 91.0948 18.859C91.4778 19.3305 92.0033 19.5662 92.6712 19.5662C93.3097 19.5662 93.8155 19.3305 94.1887 18.859C94.562 18.3875 94.7486 17.7491 94.7486 16.9437C94.7486 16.1186 94.5571 15.4654 94.174 14.9842C93.8008 14.493 93.29 14.2475 92.6418 14.2475Z" fill="#2C2A29"/>
<path d="M104.437 13.113L101.623 20.5681C101.594 20.6368 101.54 20.7792 101.461 20.9953C101.383 21.2212 101.329 21.3735 101.299 21.4521C101.27 21.5306 101.211 21.6681 101.122 21.8646C101.044 22.061 100.98 22.1985 100.931 22.2771C100.882 22.3557 100.808 22.4736 100.71 22.6307C100.612 22.7879 100.518 22.9008 100.43 22.9696C100.351 23.0383 100.248 23.1218 100.12 23.22C100.003 23.3281 99.8798 23.4018 99.7522 23.441C99.6245 23.4902 99.4771 23.5294 99.3102 23.5589C99.153 23.5982 98.9811 23.6178 98.7945 23.6178C98.4802 23.6178 98.0922 23.5884 97.6306 23.5294V22.1151C97.9842 22.1838 98.2788 22.2182 98.5146 22.2182C98.6324 22.2182 98.7405 22.1985 98.8387 22.1592C98.9369 22.1298 99.0253 22.0709 99.1039 21.9825C99.1825 21.9039 99.2512 21.8253 99.3102 21.7467C99.3691 21.678 99.4231 21.5748 99.4722 21.4373C99.5312 21.3096 99.5754 21.2065 99.6048 21.1279C99.6343 21.0592 99.6736 20.9462 99.7227 20.7891C99.7718 20.6319 99.8013 20.5337 99.8111 20.4944L96.8939 13.113H98.7356L100.769 18.7117L102.684 13.113H104.437Z" fill="#2C2A29"/>
<path d="M111.591 18.4612C111.591 19.2372 111.267 19.8412 110.619 20.2734C109.98 20.7056 109.224 20.9217 108.35 20.9217C107.269 20.9217 106.434 20.6957 105.845 20.2439C105.266 19.7823 104.956 19.1488 104.917 18.3433H106.611C106.729 19.1979 107.304 19.6251 108.335 19.6251C108.816 19.6251 109.199 19.5269 109.484 19.3305C109.769 19.1242 109.912 18.8443 109.912 18.4907C109.912 17.7442 109.416 17.3709 108.423 17.3709H107.481V16.1334H108.158C109.17 16.1334 109.676 15.7994 109.676 15.1315C109.676 14.493 109.214 14.1738 108.291 14.1738C107.485 14.1738 106.999 14.552 106.832 15.3083H105.138C105.285 13.6975 106.39 12.892 108.453 12.892C109.307 12.892 110 13.059 110.53 13.393C111.071 13.7269 111.341 14.2426 111.341 14.94C111.341 15.3525 111.218 15.7061 110.972 16.0008C110.737 16.2954 110.452 16.4771 110.118 16.5459V16.5753C110.521 16.6539 110.864 16.8553 111.149 17.1794C111.444 17.4937 111.591 17.921 111.591 18.4612Z" fill="#2C2A29"/>
<path d="M115.135 20.7154H113.014V13.113H114.693V18.6527H114.737L117.581 13.113H119.703V20.7154H118.023V15.1757H117.979L115.135 20.7154Z" fill="#2C2A29"/>
<path d="M127.352 14.439H124.848V20.7154H123.168V14.439H120.663V13.113H127.352V14.439Z" fill="#2C2A29"/>
<path d="M134.856 18.3433C134.669 19.1684 134.262 19.8118 133.633 20.2734C133.014 20.735 132.273 20.9659 131.408 20.9659C130.259 20.9659 129.346 20.5975 128.668 19.8609C128 19.1144 127.666 18.1616 127.666 17.0026C127.666 15.8141 128.01 14.8319 128.697 14.056C129.395 13.28 130.279 12.892 131.349 12.892C132.459 12.892 133.338 13.2751 133.987 14.0412C134.635 14.7975 134.959 15.8338 134.959 17.1499V17.3267H129.346C129.365 18.0929 129.557 18.6871 129.92 19.1095C130.284 19.522 130.789 19.7283 131.438 19.7283C131.899 19.7283 132.273 19.6202 132.557 19.4041C132.852 19.1782 133.083 18.8246 133.25 18.3433H134.856ZM133.279 16.207C133.23 15.5686 133.029 15.0676 132.675 14.7042C132.332 14.331 131.885 14.1444 131.335 14.1444C130.785 14.1444 130.338 14.3212 129.994 14.6748C129.66 15.0284 129.454 15.5391 129.375 16.207H133.279Z" fill="#2C2A29"/>
<path d="M147.128 18.5643C147.128 19.2519 146.883 19.7823 146.392 20.1555C145.91 20.5288 145.223 20.7154 144.329 20.7154H140.336V13.113H144.535C145.243 13.113 145.793 13.2751 146.185 13.5992C146.588 13.9234 146.79 14.3801 146.79 14.9694C146.79 15.3721 146.701 15.6963 146.524 15.9418C146.348 16.1874 146.073 16.3985 145.699 16.5753V16.6048C146.652 16.8504 147.128 17.5035 147.128 18.5643ZM144.329 17.3562H142.016V19.4483H144.329C145.085 19.4483 145.464 19.1046 145.464 18.417C145.464 18.0831 145.365 17.8228 145.169 17.6361C144.972 17.4495 144.693 17.3562 144.329 17.3562ZM144.108 14.3801H142.016V16.1334H144.152C144.801 16.1334 145.125 15.8289 145.125 15.2199C145.125 14.66 144.786 14.3801 144.108 14.3801Z" fill="#2C2A29"/>
<path d="M126.629 27.8466V30.8946H124.719V32.8935H126.629V39.6852C126.629 42.0043 127.678 42.932 130.318 42.932C130.782 42.932 131.223 42.8767 131.61 42.8105V40.8337C131.278 40.8668 131.069 40.8889 130.704 40.8889C129.523 40.8889 129.004 40.3368 129.004 39.0778V32.8935H131.61V30.8946H129.004V27.8466H126.629Z" fill="#2C2A29"/>
<path d="M138.333 43.0976C141.845 43.0976 143.999 40.7454 143.999 36.847C143.999 32.9708 141.834 30.6075 138.333 30.6075C134.822 30.6075 132.657 32.9708 132.657 36.847C132.657 40.7454 134.811 43.0976 138.333 43.0976ZM138.333 40.9883C136.268 40.9883 135.109 39.4754 135.109 36.847C135.109 34.2408 136.268 32.7168 138.333 32.7168C140.388 32.7168 141.558 34.2408 141.558 36.847C141.558 39.4643 140.388 40.9883 138.333 40.9883Z" fill="#2C2A29"/>
<path d="M145.841 42.8657H148.216V35.7648C148.216 34.0751 149.486 32.9377 151.286 32.9377C151.705 32.9377 152.412 33.015 152.611 33.0812V30.74C152.357 30.6738 151.904 30.6406 151.551 30.6406C149.983 30.6406 148.646 31.502 148.304 32.6837H148.127V30.8394H145.841V42.8657Z" fill="#2C2A29"/>
<path d="M158.506 32.6284C160.262 32.6284 161.411 33.8543 161.466 35.7427H155.392C155.525 33.8653 156.75 32.6284 158.506 32.6284ZM161.455 39.6189C161.013 40.5576 160.03 41.0767 158.595 41.0767C156.695 41.0767 155.469 39.7404 155.392 37.6311V37.4986H163.884V36.6703C163.884 32.8935 161.863 30.6075 158.517 30.6075C155.127 30.6075 152.974 33.0481 152.974 36.8912C152.974 40.7343 155.083 43.0976 158.528 43.0976C161.278 43.0976 163.2 41.7724 163.741 39.6189H161.455Z" fill="#2C2A29"/>
<path d="M111.059 38.4246C111.242 41.3777 113.703 43.2663 117.366 43.2663C121.28 43.2663 123.73 41.2861 123.73 38.127C123.73 35.6432 122.333 34.2696 118.945 33.4798L117.125 33.0334C114.973 32.5298 114.103 31.8545 114.103 30.6755C114.103 29.1875 115.454 28.2146 117.48 28.2146C119.403 28.2146 120.731 29.1646 120.971 30.687H123.466C123.318 27.9055 120.868 25.9482 117.514 25.9482C113.909 25.9482 111.505 27.9055 111.505 30.8472C111.505 33.2738 112.867 34.716 115.855 35.4142L117.984 35.9293C120.17 36.4444 121.131 37.1998 121.131 38.4589C121.131 39.924 119.62 40.9885 117.56 40.9885C115.351 40.9885 113.817 39.9927 113.6 38.4246H111.059Z" fill="#2C2A29"/>
<path d="M86.463 30.6406C84.8285 30.6406 83.415 31.4578 82.6861 32.8272H82.5094V30.8394H80.2234V46.8634H82.5978V41.0435H82.7855C83.415 42.3135 84.7733 43.0645 86.4851 43.0645C89.522 43.0645 91.4546 40.6681 91.4546 36.847C91.4546 33.026 89.522 30.6406 86.463 30.6406ZM85.7893 40.9331C83.8015 40.9331 82.5536 39.3649 82.5536 36.8581C82.5536 34.3402 83.8015 32.772 85.8004 32.772C87.8103 32.772 89.014 34.307 89.014 36.847C89.014 39.3981 87.8103 40.9331 85.7893 40.9331Z" fill="#2C2A29"/>
<path d="M99.7628 30.6406C98.1284 30.6406 96.7148 31.4578 95.9859 32.8272H95.8092V30.8394H93.5232V46.8634H95.8976V41.0435H96.0853C96.7148 42.3135 98.0731 43.0645 99.7849 43.0645C102.822 43.0645 104.754 40.6681 104.754 36.847C104.754 33.026 102.822 30.6406 99.7628 30.6406ZM99.0891 40.9331C97.1013 40.9331 95.8534 39.3649 95.8534 36.8581C95.8534 34.3402 97.1013 32.772 99.1002 32.772C101.11 32.772 102.314 34.307 102.314 36.847C102.314 39.3981 101.11 40.9331 99.0891 40.9331Z" fill="#2C2A29"/>
<path d="M75.9635 42.8657H78.6877L72.7242 26.3489H69.9657L64.0022 42.8657H66.6348L68.1572 38.4818H74.4526L75.9635 42.8657ZM71.2133 29.3478H71.4079L73.8001 36.3299H68.8096L71.2133 29.3478Z" fill="#2C2A29"/>
<path d="M45.6732 27.2634C45.7143 24.0699 47.4293 21.0481 50.1501 19.3755C48.4337 16.9242 45.5588 15.37 42.5678 15.2764C39.3776 14.9415 36.2849 17.1853 34.6593 17.1853C33.0022 17.1853 30.4992 15.3096 27.804 15.3651C24.2908 15.4786 21.0157 17.476 19.3065 20.5474C15.6323 26.9086 18.3729 36.2574 21.8924 41.3994C23.6533 43.9172 25.7113 46.7297 28.4041 46.63C31.0392 46.5207 32.0234 44.9497 35.2041 44.9497C38.3554 44.9497 39.2787 46.63 42.0262 46.5666C44.8538 46.5207 46.6353 44.0375 48.3344 41.4958C49.5996 39.7018 50.5732 37.719 51.219 35.6208C47.8961 34.2154 45.677 30.8713 45.6732 27.2634Z" fill="#2C2A29"/>
<path d="M40.4836 11.8948C42.0253 10.044 42.7849 7.66517 42.601 5.26343C40.2456 5.51082 38.0698 6.63654 36.5073 8.4163C34.9794 10.1552 34.1842 12.4922 34.3345 14.8022C36.6908 14.8264 39.0071 13.7312 40.4836 11.8948Z" fill="#2C2A29"/>
</g>
</svg>
