<svg width="154" height="53" viewBox="0 0 154 53" fill="none" xmlns="http://www.w3.org/2000/svg">
<path d="M0 0H38.5083V43.0863C38.5083 45.7942 36.3131 47.9894 33.6052 47.9894H22.8549L19.3344 52.2991L15.6882 47.9894H6.53739C2.92689 47.9894 0 45.0625 0 41.452V0Z" fill="#E04E39"/>
<path d="M12.4194 5.20296C12.3841 5.3406 12.3342 5.47341 12.2708 5.59879C12.2404 5.71708 12.19 5.82833 12.1222 5.92697C11.9735 6.08259 11.8259 6.24273 11.6773 6.39046C11.3433 6.70623 11.0492 7.00959 10.7131 7.31408V6.3431C10.7131 6.19875 10.5645 6.26303 10.4535 6.26303C10.4037 6.25714 10.3533 6.26135 10.3049 6.27543V6.26303C10.2435 6.25283 10.181 6.25283 10.1196 6.26303C9.93433 6.26303 9.86 6.20664 9.86 6.3758V7.36708C9.56376 7.06372 9.23192 6.74795 8.93253 6.43219C8.76045 6.28321 8.59912 6.12034 8.44996 5.94501C8.26467 5.77698 8.19035 5.46121 8.11602 5.2492C8.10948 5.56135 8.12172 5.87364 8.15266 6.18409C8.17246 6.32093 8.2098 6.45415 8.26362 6.57992C8.30026 6.71187 8.26362 6.90358 8.30026 7.05131C8.30026 7.31069 8.37459 7.55879 8.41122 7.83058C8.39922 8.07689 8.42432 8.32368 8.48555 8.56135C8.48555 8.52977 8.44891 8.49369 8.44891 8.46098C8.48555 8.98087 8.48555 9.48834 8.70852 9.95974C8.93411 10.4241 9.23552 10.8409 9.5983 11.1901C9.50597 11.1661 9.40949 11.1678 9.31792 11.195C9.22636 11.2222 9.14273 11.2741 9.0749 11.3457C9.00058 11.4134 8.88962 11.5814 8.77865 11.5498C8.69248 11.5377 8.60522 11.5377 8.51904 11.5498C8.14848 11.6423 8.07415 12.1498 7.96214 12.4847C8.11079 12.3844 8.25839 12.1814 8.44472 12.1566C8.48136 12.1487 8.59337 12.1363 8.59337 12.1926C8.59337 12.249 8.48241 12.328 8.48241 12.372C8.42228 12.4654 8.38708 12.5749 8.38062 12.6884C8.37416 12.8019 8.39669 12.9152 8.44577 13.0159C8.48241 13.0836 8.66874 13.1839 8.66874 13.2414C8.6746 13.3443 8.69989 13.4449 8.74306 13.5369C8.78697 13.7373 8.84902 13.9326 8.92835 14.1199C9.11882 14.5166 9.36969 14.8761 9.67053 15.1834C9.74485 15.2714 9.85582 15.3277 9.85582 15.4631V22.8046C9.55957 22.7245 9.11363 22.7245 8.92835 23.0448C8.81738 23.2444 8.81738 23.444 8.7797 23.6448C8.7797 23.7248 8.59442 23.8444 8.52009 23.9639C8.49325 24.1525 8.50577 24.3451 8.55673 24.5278C8.55673 24.6879 8.40808 24.8469 8.40808 25.0071C8.33376 25.4063 8.51904 25.766 8.59337 26.1258C8.66769 25.8856 8.70433 25.6465 8.77865 25.4491C8.88962 25.1695 8.88961 25.5292 8.96394 25.6488C9.01274 25.7488 9.08962 25.8297 9.1836 25.8799C9.27758 25.9301 9.38388 25.9471 9.48734 25.9284C9.52398 25.9284 9.85791 25.8089 9.85791 25.9284V37.1178C9.85791 37.1979 9.67262 37.1979 9.5983 37.2779C9.44966 37.3975 9.48734 37.6377 9.63494 37.7572C9.48629 37.8768 9.44966 38.1564 9.63494 38.2771C9.7459 38.3572 9.85791 38.2771 9.85791 38.3966V38.8759L8.74516 38.1564C9.00476 39.7544 9.33869 41.3141 10.0432 42.7925C10.0798 42.832 10.1542 43.0722 10.1918 43.0722C10.3771 43.0722 10.3771 43.0722 10.4514 42.9527C10.5624 42.7531 10.6367 42.5535 10.7477 42.3527C10.9404 41.9276 11.1017 41.4868 11.2303 41.0344C11.5265 40.0758 11.6752 39.1173 11.8238 38.1576L10.7111 38.8771V38.3978C10.7111 38.2782 10.8597 38.3583 10.934 38.2782C10.9764 38.2519 11.0116 38.214 11.0361 38.1684C11.0606 38.1228 11.0735 38.071 11.0735 38.0183C11.0735 37.9656 11.0606 37.9138 11.0361 37.8682C11.0116 37.8225 10.9764 37.7847 10.934 37.7583C10.9723 37.736 11.0053 37.7046 11.0306 37.6665C11.0559 37.6284 11.0728 37.5845 11.0799 37.5383C11.0871 37.4921 11.0844 37.4447 11.072 37.3997C11.0596 37.3548 11.0378 37.3135 11.0083 37.2791C10.934 37.199 10.7121 37.199 10.7121 37.1189V26.1664C10.9581 26.2064 11.2083 26.2064 11.4543 26.1664C11.5789 26.173 11.7038 26.1597 11.8249 26.1269C11.8793 26.1038 11.9382 26.0953 11.9964 26.1021C12.0545 26.109 12.1103 26.1311 12.1588 26.1664C12.901 26.4855 13.7164 26.4461 14.4618 26.4066C14.5727 26.3671 14.5727 26.3671 14.6104 26.4461L14.7214 26.5656C14.7861 26.6436 14.8613 26.7109 14.9443 26.7652C15.1673 26.8453 15.3526 26.8047 15.5724 26.8047C15.6091 26.8047 15.6467 26.7246 15.7211 26.7246C15.7577 26.7246 15.832 26.7641 15.8697 26.7641C15.9807 26.8036 16.055 26.8036 16.166 26.8442C16.3903 26.851 16.6136 26.8778 16.8338 26.9242C16.7229 26.8442 16.6485 26.7641 16.5376 26.684C16.8715 26.684 17.1311 26.4844 17.3907 26.2848C17.3707 26.2875 17.3503 26.2854 17.3311 26.2785C17.3119 26.2717 17.2944 26.2604 17.2798 26.2453C17.8733 26.2453 18.4313 25.9262 18.9861 25.6815H18.4292C18.8741 25.5619 19.1713 25.2416 19.208 24.7229C19.6581 25.2699 20.0448 25.874 20.3595 26.5216C19.9512 26.3615 19.543 26.8408 19.2834 27.0415C19.0712 27.0265 18.8583 27.0537 18.6553 27.1216C18.4526 27.1646 18.2597 27.2503 18.0878 27.3738C17.9159 27.4972 17.7683 27.656 17.6535 27.8411C17.5449 28.0291 17.4577 28.2305 17.3939 28.441C17.3754 28.4705 17.3655 28.5053 17.3655 28.5408C17.3655 28.5764 17.3754 28.6112 17.3939 28.6406C17.359 28.66 17.3216 28.6733 17.2829 28.6801C17.2086 28.7602 17.1343 28.7996 17.0599 28.8797C16.726 29.1989 16.5774 29.5992 16.503 30.039C16.503 30.1586 16.4287 30.6029 16.503 30.6784C16.5774 30.7179 16.5774 30.7179 16.5397 30.798C16.523 30.8553 16.4979 30.9093 16.4654 30.9581C16.4287 31.0382 16.391 31.1577 16.3544 31.2378C16.2801 31.6776 16.391 32.0768 16.5397 32.4366C16.614 32.6362 16.7993 32.8764 16.725 33.076C16.6889 33.2966 16.7284 33.5238 16.8359 33.7154C16.9246 33.9273 17.0504 34.1188 17.2065 34.2793C17.2431 34.3594 17.4661 34.4789 17.4661 34.559C17.4413 34.68 17.4542 34.8064 17.5027 34.9187C17.6137 35.3585 18.0963 35.5581 18.4302 35.7578C18.3936 35.5581 18.2449 35.398 18.2816 35.1939C18.9861 35.6337 18.8751 36.6723 18.6898 37.3918C18.5904 37.817 18.4274 38.2219 18.2072 38.5906L17.8754 39.194C17.8011 39.274 17.7644 39.3936 17.6524 39.3541C17.5404 39.3146 17.4671 39.3146 17.3928 39.2346C17.2127 39.1918 17.054 39.0779 16.9479 38.9154C16.7993 38.7553 16.7626 38.5162 16.614 38.3154C16.3178 37.9162 15.7608 38.0358 15.4269 38.3549C15.2783 38.5151 15.2416 38.7541 15.2416 39.0316C15.2416 39.1116 15.093 39.071 15.0187 39.1116C14.9443 39.1116 14.87 39.1917 14.7957 39.2312C14.4618 39.5108 14.5727 40.0702 14.6104 40.4717C14.647 40.4322 14.6847 40.3521 14.7214 40.3115C14.6697 40.3937 14.6392 40.4892 14.6327 40.5882C14.6263 40.6872 14.6442 40.7863 14.6847 40.8754C14.7214 41.075 14.87 41.3152 14.87 41.4754C14.8334 41.7156 14.7957 41.8746 14.9443 42.1148C15.0187 42.2749 15.2406 42.3945 15.3892 42.4745C15.4259 42.355 15.4636 42.1554 15.5002 41.9952C15.5744 42.0544 15.6595 42.0957 15.7498 42.1164C15.8401 42.137 15.9335 42.1364 16.0236 42.1148C16.2089 42.1148 16.3575 42.0347 16.547 41.9952C16.9052 41.9966 17.2594 41.9146 17.5854 41.755C17.7403 41.6448 17.8889 41.5247 18.0303 41.3953C18.1413 41.3152 18.2899 41.1156 18.4009 41.0355C18.7411 40.8876 19.0645 40.6984 19.365 40.4717C19.5224 40.3221 19.671 40.162 19.8099 39.9924C19.8842 39.9123 20.0329 39.5932 20.1438 39.5526C20.5144 39.4725 20.9603 39.2334 21.1079 38.7936C21.145 38.677 21.145 38.5504 21.1079 38.4339C21.1583 38.3444 21.2208 38.2634 21.2932 38.1937C21.4063 38.0023 21.5053 37.8017 21.5895 37.5937C21.6053 37.528 21.6175 37.4613 21.6261 37.3941C21.6627 37.3546 21.5895 37.314 21.5895 37.2746C21.6261 37.1945 21.7004 37.0749 21.7381 36.9949C21.8119 36.7763 21.8119 36.5368 21.7381 36.3182L21.9234 36.4378C21.8495 36.2956 21.7625 36.1619 21.6638 36.0386C21.7422 36.1283 21.8292 36.2088 21.9234 36.2788C22.5515 36.8426 23.3334 37.1178 24.1489 37.2373C24.4828 37.2768 25.0764 37.1979 25.1507 37.7166C25.1873 37.9162 25.1141 38.1564 25.0764 38.356C25.0096 38.5506 24.9598 38.7515 24.9277 38.956C24.8204 39.3408 24.6575 39.705 24.4452 40.0352C24.3708 40.1153 24.3342 40.2348 24.2599 40.1954C24.1693 40.1874 24.081 40.1602 24.0003 40.1153C23.9006 40.0682 23.821 39.9825 23.7773 39.8751C23.703 39.795 23.7407 39.6755 23.703 39.5954C23.5543 39.1962 23.0749 38.8759 22.6645 38.956C22.1076 39.0361 22.1076 39.556 22.1076 40.0747C21.8114 40.0747 21.4398 40.1942 21.4031 40.554C21.3775 40.7362 21.4171 40.9221 21.5141 41.0739C21.5884 41.234 21.5507 41.1934 21.4775 41.3141C21.4473 41.3898 21.4347 41.4722 21.4408 41.5543C21.4042 41.7539 21.4775 41.914 21.5518 42.0742C21.5884 42.1543 21.7004 42.2738 21.6627 42.3539V42.6335C21.6627 43.0733 22.071 43.2335 22.4049 43.3925C22.3306 43.2324 22.182 42.9933 22.182 42.7925C22.264 42.8941 22.3649 42.9759 22.4782 43.0328C22.5736 43.0944 22.6867 43.1162 22.796 43.0942C22.9054 43.0722 23.0034 43.0078 23.0717 42.9132C23.1573 42.893 23.2458 42.893 23.3314 42.9132H23.6276C23.9956 42.8587 24.3492 42.7228 24.666 42.514C24.9935 42.3062 25.2929 42.0508 25.5558 41.755C25.7045 41.5949 25.8897 41.4754 26.0384 41.3152C26.1939 41.1608 26.3311 40.9862 26.4466 40.7953C26.592 40.6335 26.7056 40.4417 26.7806 40.2315C26.8549 40.0713 26.8915 39.7522 27.0035 39.6676C27.2998 39.468 27.7081 39.0282 27.6714 38.629C27.6714 38.5895 27.8201 38.4688 27.8567 38.4293C27.9199 38.3454 27.9701 38.2509 28.0053 38.1497C28.0588 38.0364 28.0962 37.9151 28.1163 37.7899C28.122 37.7336 28.109 37.6768 28.0797 37.6298C28.043 37.6298 28.1163 37.5497 28.1163 37.5103C28.3759 37.0704 28.3016 36.5911 28.2273 36.1119C28.1906 36.1513 28.1906 36.2314 28.1529 36.272C28.2273 35.8728 28.1163 35.5525 28.042 35.1928L27.9614 35.3134C27.9976 35.0542 27.9589 34.7892 27.8504 34.5545C27.8138 34.4744 27.7395 34.3943 27.7018 34.3143C27.6274 34.2342 27.5165 34.3537 27.4422 34.2342C27.4055 34.0346 27.1082 33.9545 26.9188 33.9545C26.7293 33.9545 26.5482 34.074 26.3252 34.074C26.1093 34.1123 25.8878 34.0701 25.6971 33.9545C25.605 33.9148 25.5213 33.8553 25.4511 33.7797C25.3809 33.7041 25.3257 33.614 25.2889 33.5147C25.2522 33.2745 25.2146 33.0749 25.1779 32.838C25.1035 32.4284 25.1035 32.0072 25.1779 31.5975C25.3266 31.8377 25.5862 31.9167 25.806 32.0768C25.695 31.4374 25.6574 30.8363 25.9913 30.2781C26.3252 29.7582 26.6958 29.3195 26.8078 28.6801C27.55 29.244 28.4031 29.4391 29.2929 29.5597C29.2929 29.3601 29.2929 29.1605 29.182 28.9959C29.6573 28.9586 30.1165 28.7938 30.5177 28.5166C30.9259 28.2764 31.2599 27.9166 31.5938 27.558H30.9657C31.9298 26.3592 32.672 24.9642 32.783 23.3222C32.8573 22.3434 32.672 21.36 32.3747 20.4375C32.0785 19.5353 31.6325 18.7109 31.262 17.8561C30.4831 16.142 29.7786 14.3917 29.0731 12.6449C29.0008 12.8181 28.9139 12.9838 28.8135 13.1399C28.6528 12.4397 28.6026 11.7154 28.6648 10.9973C28.7744 10.3146 29.0009 9.65995 29.3327 9.06657C28.4429 9.09026 27.4034 9.19062 26.8842 10.1255C26.9209 10.0376 26.9209 9.95748 26.9585 9.86952C26.476 10.2732 25.9944 10.6443 25.8071 11.2882C25.7271 11.5188 25.7016 11.7672 25.7327 12.0111C25.7327 12.1351 25.807 12.2592 25.6584 12.2908C25.5474 12.3144 25.5474 12.4509 25.5474 12.5749C25.4673 13.0426 25.4423 13.5193 25.4731 13.9936C25.5239 14.2011 25.561 14.4121 25.5841 14.6252C25.3988 14.7289 25.3988 15.0086 25.3611 15.2251C25.3239 15.4489 25.3239 15.678 25.3611 15.9018C25.3977 16.0145 25.3977 16.142 25.4721 16.2401C25.4721 16.2841 25.5464 16.3641 25.5464 16.4081C25.5464 16.4521 25.4721 16.5006 25.4721 16.5434C25.4979 16.7429 25.5609 16.9348 25.6574 17.1073C25.7245 17.291 25.8117 17.4655 25.917 17.6272C25.9913 17.7197 26.0279 17.8065 26.1023 17.8866C26.0763 17.9409 26.0382 17.9875 25.9913 18.0219C25.9913 18.0535 26.0656 18.1459 26.0656 18.1775C26.1375 18.3871 26.2516 18.577 26.3995 18.7335C26.2886 18.6974 26.1766 18.6658 26.0656 18.6297C26.2509 18.8451 26.3995 19.1056 26.6225 19.2613H26.3995C26.8821 20.0721 27.3636 20.8954 27.8829 21.7107C28.3278 22.5216 28.847 23.241 28.847 24.2402C28.847 25.1593 28.513 26.198 27.6955 26.5983C27.6212 26.6378 27.1019 26.7979 27.1019 26.7584C27.0653 26.5182 27.0276 26.2386 26.991 25.9995C26.9143 25.5393 26.8026 25.0867 26.6571 24.6462C26.0618 22.7576 25.057 21.0492 23.726 19.6627C23.3921 19.3154 23.0581 18.9861 22.6876 18.6602C22.6559 18.5822 22.6433 18.4968 22.6509 18.4121C22.6116 18.3353 22.5864 18.2511 22.5766 18.164C22.4839 17.9604 22.372 17.7677 22.2427 17.5888C22.0197 17.2257 21.6491 16.9697 21.5382 16.5299C21.4272 16.1104 21.6125 15.7022 21.8721 15.3875C22.0208 15.7394 22.3955 15.9074 22.6509 16.0788C22.54 15.5916 22.428 15.2071 22.7253 14.7684C23.0215 14.3523 23.3931 13.979 23.727 13.6091C23.95 13.9925 24.2096 14.0692 24.6168 14.0252C24.4682 13.6655 24.3572 13.3384 24.3939 12.9426C24.4067 12.5912 24.4956 12.2478 24.6535 11.94C24.9131 12.1193 25.2104 11.9524 25.47 11.8047C25.2847 11.5893 25.0994 11.3886 25.0251 11.0931C24.9265 10.828 24.9007 10.5379 24.9508 10.2575C25.0251 9.74209 25.0251 9.19852 24.7655 8.72713C24.7288 8.65946 24.6168 8.54782 24.6545 8.47902C24.6912 8.36625 24.7655 8.26363 24.8032 8.15085C24.871 7.92697 24.9207 7.69719 24.9518 7.46407C24.9968 7.02014 24.9056 6.57257 24.6922 6.18973C24.5436 5.98561 24.396 5.81757 24.2473 5.64616L24.0243 5.44204C23.8757 5.34167 23.8757 5.3101 23.7647 5.39806C23.4421 5.61929 23.1949 5.94736 23.0602 6.33295C22.9859 6.09725 22.9116 5.86156 22.7263 5.68112C22.6153 5.55707 22.318 5.2616 22.1694 5.30897C21.5413 5.50068 21.2796 5.99576 21.3529 6.67127C20.8295 6.63969 20.2768 6.67127 19.7952 6.95546C19.5957 7.08228 19.4185 7.24606 19.2718 7.43925C19.2326 7.52553 19.1856 7.60749 19.1316 7.68397C19.0572 7.72795 18.9086 7.72006 18.8353 7.75164C18.646 7.81975 18.4601 7.89842 18.2784 7.98733C18.1711 8.03759 18.0592 8.07539 17.9445 8.10011C17.8335 8.12379 17.7592 8.07981 17.6482 8.07981C17.1657 8.07981 16.8694 8.5433 17.1248 9.00342C17.3101 9.37557 17.5331 9.7387 17.867 9.9868C17.9413 10.0308 17.867 10.2123 17.9037 10.315C17.9037 10.3905 17.978 10.4593 18.0146 10.527C18.1633 10.6623 18.3852 10.7627 18.538 10.8653C18.8724 11.0715 19.2365 11.216 19.6152 11.2927C19.9114 11.3491 20.5793 11.3491 20.617 11.7878C20.6913 12.2513 19.8382 12.2073 19.5786 12.1836C19.3933 12.1712 19.1703 12.1396 19.0217 12.2276C18.985 12.2513 18.9107 12.284 18.9107 12.3314C18.8364 12.399 18.8364 12.3753 18.762 12.3629C18.6759 12.351 18.5886 12.351 18.5024 12.3629C18.3538 12.3866 17.979 12.4554 17.9089 12.611C17.8388 12.7667 17.8346 12.7712 17.6859 12.7903C17.5947 12.8093 17.507 12.8444 17.4263 12.8941C17.3207 12.9621 17.2215 13.0411 17.1301 13.1298C17.1301 13.1659 17.0558 13.2223 17.0558 13.2651C17.0191 13.2967 17.0924 13.4129 17.0558 13.4444C17.0191 13.476 16.7961 13.5008 16.7595 13.5245C16.6591 13.5567 16.5602 13.5944 16.4633 13.6373C16.055 13.8414 15.7588 14.2011 15.4615 14.5722C15.5724 14.5519 15.6467 14.5406 15.7577 14.5282C15.1296 14.8879 15.0898 15.6108 15.0155 16.2863C15.1642 16.151 15.2751 16.0066 15.4238 15.8826C15.3639 15.9698 15.3373 16.0783 15.3495 16.186C15.3861 16.3213 15.1642 16.5457 15.0898 16.6697C15.0264 16.7552 14.9762 16.8512 14.9412 16.9539C14.8669 17.0893 14.8302 17.202 14.6816 17.1456C14.2868 16.9805 13.9022 16.7884 13.5301 16.5705C12.7954 16.1391 12.1612 15.5337 11.6752 14.8C11.4156 14.4278 11.2669 13.997 11.4522 13.5448C11.6752 13.1411 12.0803 12.9494 12.1567 12.4543C12.1883 12.2542 12.1485 12.0487 12.0452 11.879C11.9418 11.7094 11.7827 11.5881 11.5998 11.5397C11.4903 11.5133 11.378 11.5027 11.2659 11.5081C11.1549 11.5081 11.1915 11.6209 11.1915 11.7337C11.1615 11.8313 11.1491 11.9343 11.1549 12.037C11.1549 12.1611 11.1183 12.1498 11.0063 12.1848C11.0429 11.993 11.0429 11.7889 11.0806 11.5848C11.0806 11.4292 11.1172 11.3931 11.0063 11.3728C10.9555 11.3568 10.9019 11.3546 10.8502 11.3664C10.7985 11.3782 10.7503 11.4036 10.71 11.4405C10.71 11.348 10.933 11.1923 11.0063 11.1247C11.1172 11.0209 11.1915 10.9093 11.3025 10.7965C11.4847 10.5814 11.6463 10.3472 11.7851 10.0973C12.0447 9.57744 12.0813 9.05079 12.0813 8.46324C12.0834 8.48012 12.0811 8.4973 12.0747 8.51285C12.0682 8.52839 12.0578 8.54168 12.0447 8.5512C12.119 8.28393 12.119 8.01214 12.1556 7.74036C12.1556 7.49226 12.23 7.26897 12.2666 7.00959C12.2604 6.84619 12.2727 6.68259 12.3032 6.52241C12.3399 6.39836 12.3399 6.28671 12.3776 6.16266C12.4083 5.84427 12.4205 5.52412 12.4142 5.20409L12.4194 5.20296ZM9.0435 11.6649C9.15446 11.6649 9.41407 11.6333 9.41407 11.8442C9.37743 11.9964 9.08223 11.6919 9.0435 11.6683V11.6649ZM10.7131 17.3035C11.0335 17.7169 11.3805 18.1054 11.7516 18.4662C11.8219 18.496 11.8852 18.5422 11.9369 18.6016C11.9369 18.6331 11.9002 18.7369 11.9002 18.7696C11.8996 18.8897 11.939 19.0062 12.0112 19.0978C12.0855 19.3459 12.3074 19.5139 12.4938 19.6932V19.5049C12.6424 19.9999 12.9763 20.3924 13.2726 20.7871C13.236 20.663 13.1983 20.5277 13.1616 20.4037C13.236 20.4713 13.5699 20.7318 13.685 20.6755C13.7594 20.6439 13.9813 20.9236 14.0556 21.0036C14.4262 21.263 14.7978 21.3871 15.2071 21.5235C15.1328 21.4434 15.0961 21.3521 15.0218 21.2754C15.1271 21.3444 15.2391 21.4007 15.3557 21.4434C15.5624 21.4889 15.7747 21.4969 15.9838 21.4671C16.0581 21.4434 16.1691 21.4074 16.2801 21.3634C16.4287 21.307 16.4287 21.3318 16.503 21.4671C16.577 21.5836 16.6642 21.6897 16.7626 21.7829C16.837 21.8833 16.8736 21.8957 16.7993 22.0084C16.6506 22.2238 16.503 22.4077 16.3544 22.6479C15.8069 23.3732 15.0494 23.8798 14.2032 24.0868C13.8326 24.1669 13.461 24.2064 13.0904 24.247H12.567C12.3806 24.2552 12.194 24.2419 12.0101 24.2075C11.6762 24.088 11.4532 23.5681 11.3821 23.2489C11.3454 23.1689 11.3821 23.0087 11.3454 22.8892C11.3454 22.7697 11.2711 22.6896 11.2345 22.57C11.1811 22.4704 11.1051 22.387 11.0135 22.3278C10.9219 22.2686 10.8178 22.2355 10.7111 22.2317V17.3069L10.7131 17.3035ZM9.3031 23.4497C9.31339 23.4467 9.32422 23.4467 9.33451 23.4497C9.34479 23.4527 9.35417 23.4585 9.3617 23.4666C9.36923 23.4747 9.37464 23.4848 9.3774 23.4959C9.38017 23.507 9.38017 23.5187 9.37743 23.5297C9.41407 23.6899 9.26646 23.6098 9.19214 23.6098C9.0924 23.5807 8.98604 23.5949 8.8959 23.6493C8.8959 23.6098 9.1555 23.4497 9.30415 23.4497H9.3031ZM9.00686 24.3688C9.08118 24.3688 9.11782 24.3688 9.11782 24.4488C8.98972 24.4366 8.86106 24.4644 8.74725 24.5289C8.77661 24.483 8.81519 24.4447 8.86013 24.417C8.90507 24.3893 8.95521 24.3728 9.00686 24.3688ZM17.5017 33.9545C17.5383 34.0346 17.6127 34.1541 17.5383 34.2342C17.5084 34.1466 17.4955 34.0533 17.5006 33.9601L17.5017 33.9545ZM15.7221 38.9098C15.9074 38.9492 15.8331 39.0293 15.8331 39.1894L15.3882 39.0699C15.4981 38.9943 15.5724 38.9143 15.72 38.9143L15.7221 38.9098ZM22.586 39.7533C22.5779 39.8876 22.5903 40.0225 22.6227 40.1525C22.5034 40.1068 22.3785 40.0798 22.2521 40.0725C22.3233 39.9134 22.4342 39.7533 22.586 39.7533ZM15.0187 39.9134H15.049C15.1233 39.9529 14.9747 40.033 14.9747 40.033C14.8983 40.063 14.8332 40.1193 14.7894 40.1931C14.8302 40.1537 14.9046 39.954 15.0155 39.9134H15.0187ZM15.2416 40.9126C15.316 40.9521 15.093 41.1122 15.093 41.1122C15.093 41.1122 15.1642 40.9126 15.2385 40.9126H15.2416ZM21.915 40.9521C21.9103 40.9713 21.9009 40.9888 21.8879 41.0029C21.8748 41.017 21.8585 41.0271 21.8407 41.0322C21.8549 40.9961 21.8816 40.9674 21.915 40.9521ZM22.026 41.8712C22.0626 41.9513 21.9894 41.9513 21.915 41.9513C21.9594 41.9396 21.9986 41.9117 22.026 41.8723V41.8712Z" fill="#E04E39"/>
<path d="M29.1118 9.23122C28.4073 10.4977 28.3329 11.9378 28.7778 13.5268C28.8888 13.3474 28.9631 13.167 29.0741 12.9832C29.9639 15.1856 30.8536 17.387 31.8931 19.5849C33.3032 22.7697 32.6719 25.4491 30.6694 27.7249H31.263C30.9611 28.0819 30.595 28.3689 30.1868 28.5685C29.7786 28.768 29.3369 28.8758 28.8888 28.8853C29.0741 29.085 29.1484 29.2451 29.1484 29.4052C28.2648 29.34 27.4162 29.0078 26.6999 28.4467C26.6256 29.1233 26.3294 29.606 25.9954 30.0447C25.8099 30.2856 25.6795 30.5701 25.6146 30.8753C25.5497 31.1804 25.5521 31.4977 25.6217 31.8017C25.3763 31.6705 25.1884 31.441 25.0983 31.1622C24.9142 31.9958 24.9526 32.8684 25.2093 33.6793C25.6175 34.2793 26.0991 34.2793 26.6193 34.1992C26.8423 34.0391 27.1019 34.0797 27.3238 34.2387C27.3987 34.5015 27.4605 34.7684 27.5091 35.0383C27.5887 34.8635 27.6147 34.6661 27.5834 34.4744C27.9917 34.9142 27.843 35.513 27.5834 36.2325C27.7569 36.0654 27.8959 35.8611 27.9917 35.6326C28.1403 36.2325 27.8807 36.7919 27.5091 37.2712C27.843 37.2317 28.066 36.9915 28.1372 36.5517C28.2115 37.1516 28.0262 37.6309 27.4327 37.9907C27.6178 37.9627 27.7958 37.8948 27.9561 37.7911C27.8818 38.1508 27.7331 38.55 27.1396 38.7496C27.1945 38.7889 27.259 38.8099 27.3249 38.8099C27.3908 38.8099 27.4552 38.7889 27.5101 38.7496C27.4358 39.0293 27.2505 39.3135 26.8423 39.5887C26.6413 40.4077 26.1701 41.1197 25.517 41.5915C24.8125 42.3505 24.0337 42.9098 23.0319 42.7508C22.8089 43.07 22.475 42.991 22.2154 42.5907C21.9558 42.6708 22.0301 42.8704 22.1411 43.1106C21.6585 42.9504 21.6585 42.152 22.1777 42.0313C22.252 41.5114 21.8071 41.7122 21.7328 42.1509C21.4366 41.587 21.5475 41.2318 22.0668 41.1122C22.1777 40.7525 21.7705 40.6724 21.6585 41.0728C21.1759 40.2732 22.0668 39.9935 22.81 40.4333C22.7357 40.1142 22.699 39.8334 22.7733 39.6744C22.4771 39.5943 22.3285 39.7138 22.2499 39.8345C22.1756 39.115 22.7325 38.9154 23.2884 39.3146C23.3891 39.3827 23.4725 39.4769 23.5308 39.5886C23.5891 39.7003 23.6206 39.8259 23.6223 39.954C23.7096 40.0801 23.8213 40.1842 23.9496 40.2591C24.078 40.3341 24.2199 40.3781 24.3655 40.3882C24.8889 39.7488 25.07 38.9492 25.2553 38.1508C25.4406 37.3918 25.07 37.1516 24.4388 37.1122C22.9921 37.0321 21.9537 36.3532 21.2115 35.274C21.2011 35.3885 21.2122 35.5041 21.244 35.6139C21.2759 35.7237 21.3278 35.8256 21.3968 35.9134C20.5803 35.3495 20.284 34.8341 20.7687 34.3549C20.5834 34.1552 20.5091 33.9556 20.5457 33.7154C20.4197 33.9437 20.3799 34.2154 20.4348 34.4744C20.1385 34.0752 20.1009 33.7154 20.2495 33.3557C20.1009 33.3952 20.0265 33.5553 19.9533 33.6748C19.9166 33.1955 19.9899 32.7557 20.3238 32.5155C20.3238 32.2753 20.3605 32.0362 20.3605 31.7566C20.0642 31.8761 19.9522 32.1964 19.9156 32.5561C19.545 31.8366 19.8412 31.4769 20.3605 30.9976C20.1375 30.9976 19.9522 31.1171 19.8036 31.3968C19.9145 30.5972 20.2861 30.0785 20.731 29.6387C20.5457 29.6387 20.3228 29.7988 20.1375 30.0379C20.1741 29.4379 20.4337 28.9992 21.065 28.9192C20.9128 28.848 20.7428 28.8341 20.5824 28.8797C20.765 28.6237 20.994 28.4102 21.2554 28.2522C21.5169 28.0942 21.8054 27.995 22.1034 27.9606C21.8804 27.8005 21.6208 27.8411 21.3612 28.0407C21.5842 27.6009 21.8438 27.161 22.7336 27.364C22.6436 27.2791 22.5334 27.223 22.4154 27.2019C22.2974 27.1807 22.1763 27.1955 22.0657 27.2445C22.5106 26.8848 22.9932 26.8848 23.5124 26.8848C22.8445 26.6851 22.1767 26.4855 21.2869 27.6843C21.2502 28.0035 21.1382 28.2042 20.953 28.3237C20.73 26.6457 20.0632 25.4864 19.21 24.5278C19.3428 24.4537 19.4791 24.3871 19.6183 24.3282C19.8779 24.4883 20.0632 24.3677 20.3228 24.2086C20.7677 24.009 20.9509 23.7688 20.9509 23.4891C21.4334 23.3696 21.6187 23.1294 21.7297 22.8125C22.3232 22.3614 22.3232 21.8776 22.1003 21.3983C22.0259 21.8054 21.8406 22.1054 21.5434 22.2498C21.6623 22.2392 21.7766 22.1948 21.8745 22.1211C21.9723 22.0474 22.0502 21.947 22.1003 21.8303C22.1003 22.4934 21.6554 22.773 20.9488 22.9332C21.038 22.989 21.1382 23.0217 21.2412 23.0285C21.3442 23.0354 21.4473 23.0163 21.5423 22.9726C21.3606 23.1825 21.1331 23.3401 20.8804 23.4309C20.6277 23.5217 20.3579 23.5429 20.0956 23.4925C20.2443 23.6921 20.4296 23.8117 20.7237 23.6921C20.4641 23.9323 20.1668 24.0914 19.8706 23.8523C19.8706 23.9718 19.9815 24.0925 20.1302 24.1714C19.6068 24.132 19.277 24.0519 19.0917 23.8523C19.164 24.031 19.2964 24.1737 19.4623 24.2515C19.1284 24.2515 18.8342 24.2515 18.5725 24.0519C18.6092 24.212 18.7212 24.2921 18.9431 24.371C18.7014 24.5863 18.4405 24.7752 18.1643 24.9349C18.4605 25.095 18.7578 24.9349 19.0917 24.6158C19.0917 25.5743 18.3129 25.6544 17.5341 25.5743C17.7619 25.7494 18.0332 25.8468 18.3129 25.854C17.7194 26.1337 17.0892 26.2938 16.3836 25.854C16.3836 26.1732 16.6066 26.3333 17.0515 26.3739C16.6809 26.6536 16.2727 26.6141 15.9 26.2544C15.9367 26.4145 16.0853 26.5735 16.3083 26.7336C15.8793 26.7135 15.471 26.5291 15.1568 26.2137C15.1934 26.3739 15.3054 26.4934 15.5274 26.693C15.1568 26.693 14.7852 26.6536 14.6742 26.2532C13.7101 26.3333 12.7826 26.3728 12.0038 25.9341C11.2616 26.1337 10.5205 26.1337 9.7783 25.7345C9.29607 25.8946 9.03646 25.7348 8.99948 25.2552C8.70323 25.0556 8.66555 25.3352 8.59122 25.5743C8.36825 24.8548 8.70218 24.4951 9.21931 24.6552C9.33027 24.0914 8.81105 24.1759 8.6624 24.415C8.51376 23.8951 8.99634 23.576 9.36691 23.8511C9.77516 23.4113 9.29258 23.1745 8.95865 23.4113C8.99529 22.7719 9.8118 22.7719 10.2944 23.4113C10.4797 23.2918 10.5173 23.1711 10.4797 22.9715C10.4053 22.6918 10.2567 22.6524 10.1091 22.6524C10.3321 22.2013 11.2606 22.1889 11.2218 23.2523C11.3197 23.7065 11.5708 24.1052 11.9263 24.371C12.6327 24.451 13.3462 24.4107 14.0409 24.2515C15.5985 23.9718 16.3774 22.9332 17.0452 21.8539C17.2959 21.5343 17.507 21.181 17.6733 20.8029C17.965 20.7426 18.2425 20.6203 18.4898 20.4431C18.8981 20.1996 19.232 19.8793 19.4173 19.4079C20.0852 19.2117 20.2704 18.6331 20.3448 17.9734C20.6787 17.4817 20.6044 17.0498 20.1595 16.6743C20.3448 17.0126 20.4557 17.3577 20.3448 17.7332C20.2704 17.5077 20.1595 17.4016 20.0485 17.4141C20.2715 17.8415 20.1595 18.2373 20.0119 18.6286C20.0104 18.5272 19.9898 18.4272 19.9515 18.3345C19.9132 18.2419 19.8579 18.1586 19.7889 18.0896C19.8789 18.2637 19.9145 18.4645 19.8903 18.6621C19.8662 18.8597 19.7837 19.0437 19.6549 19.1868C19.6725 19.0504 19.6616 18.9115 19.623 18.7802C19.5844 18.6489 19.5192 18.5286 19.4319 18.4279C19.5063 19.2827 19.1723 19.7744 18.6898 20.1657C18.7594 20.0253 18.7989 19.8698 18.8052 19.7107C18.8116 19.5516 18.7846 19.393 18.7264 19.2466C18.5778 20.0902 18.3181 20.7251 17.5027 20.5999C17.688 20.3958 17.8366 20.1883 17.8366 19.9842C17.6136 20.2041 17.354 20.4352 16.9468 20.4195C16.9821 20.5184 17.0426 20.6046 17.1212 20.6683C17.1999 20.7319 17.2937 20.7704 17.3917 20.7792C17.3136 21.155 17.1755 21.5133 16.9835 21.8381C16.3554 21.1232 15.945 20.3958 15.945 19.6447C15.7221 19.877 15.7221 20.2165 15.8341 20.5999C15.1296 19.9684 15.2772 19.3368 15.6488 18.7053C15.3892 18.8248 15.2039 19.0775 15.0553 19.4643C14.9443 18.4493 15.2039 17.8054 15.7231 17.3701C15.4269 17.3622 15.1662 17.5257 14.9809 17.8697C15.0176 17.3498 15.1296 16.919 15.6488 16.7904C15.5287 16.7905 15.4102 16.8192 15.3016 16.8744C15.1931 16.9295 15.0971 17.0098 15.0207 17.1096C15.2437 16.7058 15.429 16.2074 15.9105 16.1702C15.7252 15.8984 15.6142 16.0348 15.5022 16.0901C15.6509 15.6548 15.9471 15.4822 16.3187 15.4349C15.9105 15.339 15.5399 15.5477 15.206 15.9142C15.2803 14.7549 15.9482 14.4199 16.9123 14.456C16.5526 14.3342 16.1711 14.3068 15.7995 14.3759C16.3564 13.6688 17.1353 13.4929 17.9884 13.5572C17.8398 13.2099 17.5058 13.2775 17.2096 13.3215C17.4325 12.9618 17.8031 12.7982 18.3967 13.0621C18.3967 12.8625 18.2857 12.743 18.0261 12.7024C18.3967 12.4701 18.8049 12.4103 19.2498 12.7227C19.2864 12.6223 19.2498 12.5231 18.9902 12.4227C19.2132 12.1746 19.9177 12.5186 20.4735 12.2434C21.0671 11.9592 20.7698 11.2927 19.9501 11.2081C19.322 11.1202 18.763 10.9048 18.3548 10.5484C17.9842 10.3962 17.9465 10.1966 18.0952 9.96876C17.7815 9.75819 17.5254 9.46164 17.353 9.10942C16.9081 8.56586 17.353 8.07078 17.8356 8.27377C18.3181 8.25799 18.7254 7.82268 19.2079 7.83396C19.6162 6.99493 20.4316 6.71863 21.5444 6.83479C21.3591 5.95967 21.6554 5.59428 22.1725 5.46008C22.766 5.70029 23.0623 6.28333 23.0256 7.21483C23.1 6.35212 23.3962 5.78036 23.8788 5.50068C24.9549 6.37242 25.0659 7.39865 24.4723 8.53428C24.8429 8.9335 24.9172 9.52556 24.8429 10.2484C24.7319 11.0074 24.9539 11.4314 25.2511 11.763C25.0282 11.8825 24.8063 11.9592 24.5833 11.7032C24.2494 12.434 24.1007 13.1693 24.4346 13.8967C24.1384 13.9451 23.9112 13.7365 23.7301 13.361C23.3962 13.7568 23.0623 14.156 22.7283 14.5564C22.3944 14.9567 22.3201 15.3672 22.4321 15.7709C22.0615 15.5555 21.9872 15.3356 21.9495 15.1157C21.2817 15.7924 21.133 16.469 21.7265 17.1456C22.1348 17.5618 22.4687 18.0602 22.5797 18.7403C24.9873 20.8942 26.5858 23.5636 26.9941 26.9208C28.7736 26.9208 29.5169 24.4037 28.626 22.6851C27.9582 21.5867 27.2903 20.5029 26.6601 19.4146C26.8842 19.4226 27.1083 19.4025 27.328 19.3549C26.9574 19.3154 26.6601 19.1665 26.4749 18.9151C26.6601 18.9748 26.8454 19.0154 27.0318 18.9151C26.5084 18.7955 26.3273 18.4437 26.1786 18.0557C26.4016 18.3038 26.6612 18.4516 26.9208 18.3749C26.1043 17.9035 25.808 17.2471 25.6228 16.5604C25.8516 16.8165 26.1305 17.0145 26.4393 17.14C25.3265 16.3562 25.3631 15.5691 25.5861 14.7864C25.6971 15.3097 25.92 15.8014 26.4759 16.1611C25.5861 14.9781 25.4741 13.723 25.6971 12.4329C25.8096 12.9904 26.067 13.502 26.4393 13.9079C25.4008 11.7652 25.9159 10.9262 26.6989 10.2789C26.5955 10.5876 26.5553 10.9167 26.5809 11.2437C26.6066 11.5707 26.6975 11.8878 26.8475 12.1735C26.477 10.0872 27.3709 9.23235 29.1107 9.21994L29.1118 9.23122Z" fill="#FDFDFD"/>
<path d="M16.2391 21.2333C15.4602 20.895 15.1263 20.3063 15.0154 19.5789C14.8518 19.1753 14.8129 18.7258 14.9044 18.2967C14.7813 17.9969 14.7427 17.6647 14.7934 17.3415C13.1646 16.7381 12.0853 15.8021 11.385 14.6406C11.1254 14.1455 11.1621 13.6775 11.496 13.2422C12.4601 12.4347 11.9786 11.6442 11.3107 11.6633C11.317 11.8668 11.3047 12.0704 11.2741 12.2712C11.1254 12.3152 11.0145 12.3637 10.8658 12.411C10.909 12.1173 10.9338 11.8208 10.9401 11.5235C10.8292 11.4874 10.7548 11.5878 10.6805 11.8269V17.0223C11.087 17.5975 11.5609 18.1134 12.0906 18.5572C12.0163 18.8165 12.0539 19.085 12.3502 19.3725C12.345 19.2808 12.363 19.1892 12.4023 19.1076C12.4415 19.026 12.5006 18.9574 12.5732 18.909C12.5365 19.2925 12.6475 19.6984 12.9814 20.1439C12.9071 19.9116 12.9448 19.7244 13.0924 19.58C12.9814 19.9838 13.129 20.3108 13.6493 20.5352C13.4263 20.224 13.353 19.9161 13.4263 19.6037C13.5749 20.3435 13.9497 20.9468 14.7987 21.2344C14.5757 20.9311 14.4281 20.6266 14.4281 20.3232C14.873 21.2254 15.4665 21.5344 16.2454 21.2344L16.2391 21.2333Z" fill="#FDFDFD"/>
<path d="M9.97082 15.2798V11.8225C9.78554 11.2427 9.37728 11.2066 9.08104 11.5225C9.4516 11.5101 9.60444 11.6544 9.52593 11.9466C9.48984 11.9906 9.4418 12.0213 9.38863 12.0342C9.33545 12.0472 9.27984 12.0418 9.22968 12.0188C8.78479 11.5349 8.37654 11.6229 8.22789 12.0989C8.37654 11.9861 8.82143 11.9274 8.75129 12.3245C8.52832 12.3482 8.38072 12.9764 8.78793 13.1141C8.86225 13.8371 9.23282 14.5567 9.97501 15.2764L9.97082 15.2798Z" fill="#FDFDFD"/>
<path d="M19.3932 27.2044C20.4693 25.9256 20.8399 27.5642 20.7289 28.3637C20.3584 28.843 19.9124 29.717 19.9124 30.2414C19.6162 31.0004 19.6162 31.7999 19.7271 32.5589C19.7271 33.2356 19.6528 33.9122 20.3207 34.5573C20.3207 35.1211 20.5803 35.6365 21.1372 36.0763C21.3225 36.0763 21.3601 36.3955 21.2481 36.753C21.4711 36.6729 21.5077 36.3537 21.5444 36.153C21.7674 36.7169 21.693 37.2717 20.9163 37.6315C21.1759 37.7115 21.3246 37.5514 21.4732 37.3912C21.3622 37.8311 21.177 38.2303 20.5457 38.7445C20.8053 38.7445 20.9163 38.6645 20.9906 38.5449C20.954 38.9847 20.6944 39.3039 19.9888 39.4246C19.6549 40.1012 19.0614 40.5839 18.2825 40.9436C17.8 41.5075 17.2064 41.9022 16.3533 41.8627C16.0193 42.0623 15.6854 42.0229 15.4258 41.7432C15.3892 41.9428 15.3515 42.1029 15.3148 42.2631C14.6868 41.9033 14.9809 41.3045 15.3892 41.0643C15.3892 40.585 14.9809 40.7451 14.9443 41.1838C14.6847 40.7045 14.6847 40.2647 15.2405 40.0651C15.2039 39.6659 14.9066 39.7054 14.7171 40.0651C14.5685 39.146 15.274 38.9859 16.0895 39.5012C15.8665 39.261 16.0895 38.9013 15.9042 38.8246C15.8198 38.7789 15.7244 38.7621 15.6309 38.7764C15.5373 38.7907 15.4501 38.8355 15.3808 38.9047C15.3065 38.228 16.4569 37.7454 16.7532 38.9441C17.0044 39.2738 17.3625 39.4882 17.7549 39.5441C18.3118 38.7851 18.7934 37.9856 18.942 36.8263C19.0163 36.0267 18.9054 35.3478 18.1998 34.988C18.1255 35.0681 18.1255 35.3478 18.1632 35.4279C17.7183 35.1877 17.3844 34.7884 17.7183 34.2291C17.6817 33.9494 17.6073 33.7092 17.3844 33.7092C17.3468 33.9071 17.3468 34.1112 17.3844 34.3092C16.7908 33.6697 16.7165 33.1104 17.0504 32.7506C17.0504 32.1868 17.0138 31.871 16.8652 31.9917C16.8043 32.2109 16.7791 32.4398 16.7908 32.6683C16.4569 31.9488 16.1973 31.2699 16.9761 30.5098C17.0258 30.4508 17.0562 30.3759 17.0628 30.2965C17.0694 30.2172 17.0519 30.1376 17.0128 30.07C16.8275 30.1501 16.7165 30.3892 16.6045 30.5899C16.6045 29.8704 16.7531 28.9919 17.7173 28.6727C17.9402 28.5532 18.0878 28.4325 18.1622 28.2329C17.9233 28.2454 17.6922 28.3285 17.4943 28.4731C17.7539 27.7536 18.1622 27.1548 19.3859 27.1943L19.3932 27.2044Z" fill="#FDFDFD"/>
<path d="M25.142 29.1627C25.1785 29.4574 25.1125 29.7563 24.9568 30.0018C25.2295 29.8953 25.4635 29.6977 25.6246 29.4379C25.7733 29.1187 25.7733 28.6789 25.5503 28.0395L25.6989 27.9594C25.7733 28.2391 25.8476 28.4793 25.8842 28.6789C25.9977 28.4295 26.0609 28.157 26.0695 27.8794C26.057 27.4676 25.9416 27.0671 25.7356 26.72L25.8842 26.6005C26.0026 26.8256 26.09 27.0679 26.1438 27.32C26.2446 27.1523 26.2964 26.9559 26.2925 26.7561C26.2384 26.4941 26.092 26.2648 25.8842 26.1167L25.9952 25.9566C26.1525 26.0986 26.2789 26.2761 26.3658 26.4765C26.3922 26.3025 26.3796 26.1242 26.3291 25.9566C26.2548 25.7164 26.0695 25.4773 25.7356 25.2799L25.8099 25.1198C25.9394 25.2035 26.0632 25.297 26.1805 25.3995C26.1438 25.2799 26.1061 25.1198 26.0695 25.0003C26.0036 24.8872 25.917 24.7899 25.8149 24.7143C25.7129 24.6386 25.5975 24.5863 25.476 24.5604L25.5168 24.4071C25.6593 24.4277 25.7948 24.486 25.9113 24.5767C26.0278 24.6674 26.1217 24.7877 26.1847 24.927C26.314 25.1572 26.3904 25.4174 26.4076 25.6859H26.371L26.4819 25.9261C26.5929 26.2453 26.5563 26.5655 26.4819 26.9253H26.4453C26.4453 27.1249 26.3343 27.3651 26.2223 27.5647V27.8839C26.2254 28.2736 26.1079 28.6533 25.8884 28.9631C25.9028 29.1641 25.8501 29.3641 25.7398 29.527C25.5545 29.8867 25.1829 30.1269 24.7757 30.3265L24.47 30.4416L24.6553 30.1619C24.9149 29.8424 25.0262 29.5228 24.9892 29.2033L25.1378 29.1638L25.142 29.1627ZM23.8063 5.87277C24.0145 6.16938 24.1507 6.51733 24.2024 6.88501C24.2542 7.2527 24.2198 7.62848 24.1026 7.97825C23.8798 7.64571 23.57 7.39242 23.2128 7.25086C23.2128 6.63512 23.3614 6.15583 23.8063 5.87164V5.87277ZM21.6551 6.84375C22.008 6.83393 22.3596 6.89198 22.6936 7.01517C22.7016 6.76222 22.6517 6.51103 22.5482 6.28383C22.4446 6.05664 22.2907 5.86045 22.1 5.71263C21.7661 5.92014 21.6551 6.33627 21.6551 6.84375ZM21.7661 11.9682C21.6224 12.0666 21.4533 12.1128 21.2835 12.1001C21.4106 12.2126 21.565 12.2834 21.7284 12.3042C21.9514 12.3042 22.1733 12.1915 22.3963 11.8689L22.4706 11.9332C22.3974 12.0467 22.3101 12.1488 22.211 12.2366C22.3541 12.2402 22.4954 12.2012 22.6192 12.1238C22.82 12.0031 22.9867 11.8262 23.1018 11.6118L23.1761 11.6682C23.1118 11.8026 23.0236 11.9221 22.9165 12.02C22.9805 12.0259 23.0449 12.018 23.106 11.9967C23.1671 11.9755 23.2236 11.9413 23.2723 11.8963C23.3211 11.8513 23.361 11.7963 23.3897 11.7344C23.4185 11.6726 23.4356 11.6052 23.4399 11.5362L23.5509 11.5565C23.5127 11.6801 23.4629 11.7991 23.4022 11.9118C23.4816 11.864 23.5563 11.8077 23.6252 11.7438C23.6876 11.6748 23.7362 11.5927 23.7681 11.5028C23.7999 11.4128 23.8144 11.3167 23.8105 11.2205H23.8848C23.8925 11.3181 23.88 11.4163 23.8482 11.5081C23.9136 11.4496 23.9755 11.3867 24.0335 11.3197C24.0861 11.1819 24.0989 11.0302 24.0701 10.8844L24.1444 10.8607C24.1769 10.9436 24.1905 11.0336 24.1842 11.1232C24.1778 11.2129 24.1516 11.2996 24.1078 11.3761C24.0218 11.5098 23.9073 11.6192 23.7739 11.6953V11.6874C23.7699 11.7124 23.7613 11.7363 23.7485 11.7576C23.7358 11.7789 23.7191 11.7972 23.6995 11.8114C23.567 11.9526 23.3975 12.0466 23.2138 12.0809V12.0685C23.0834 12.1203 22.9433 12.137 22.8056 12.117C22.7704 12.1514 22.7334 12.1834 22.6946 12.2129C22.4998 12.3151 22.2816 12.3543 22.0665 12.3257C21.9624 12.3792 21.8479 12.4051 21.7326 12.4012C21.4929 12.3714 21.2705 12.2516 21.1045 12.0629L20.9559 11.9276L21.1411 11.9761C21.2348 12.0048 21.3332 12.0111 21.4294 11.9946C21.5256 11.978 21.6173 11.939 21.698 11.8802L21.7724 11.9682H21.7661ZM29.2225 26.8847C29.1371 27.1755 28.9492 27.4185 28.6991 27.5613C29.033 27.5613 29.2926 27.5219 29.5156 27.3617C29.8118 27.1621 29.9982 26.7618 30.039 26.0829H30.2274C30.2037 26.3281 30.1538 26.5695 30.0788 26.8024C30.2988 26.6549 30.4792 26.4481 30.6022 26.2024C30.7625 25.8132 30.8264 25.3857 30.7875 24.9619H30.9727C30.9811 25.2156 30.9688 25.4695 30.9361 25.7209C31.0755 25.6186 31.19 25.4816 31.27 25.3217C31.3115 25.1904 31.3264 25.0511 31.3136 24.9132C31.3007 24.7752 31.2606 24.6419 31.1957 24.5221L31.3444 24.442C31.4463 24.636 31.4853 24.8609 31.4553 25.0815C31.5542 24.9414 31.618 24.7764 31.6406 24.6022C31.6772 24.3225 31.604 24.0383 31.4176 23.7225L31.5286 23.603C31.6235 23.7363 31.6988 23.8847 31.7516 24.0428C31.794 23.9143 31.8191 23.7798 31.8259 23.6436C31.7984 23.3805 31.679 23.1386 31.492 22.967L31.6029 22.8068C31.8625 23.0865 31.9735 23.3707 31.9735 23.6064C31.9599 23.8792 31.9098 24.1485 31.8248 24.4059V24.3665C31.8338 24.4615 31.8212 24.5575 31.7882 24.6461C31.7516 24.9653 31.6029 25.2461 31.3433 25.5258C31.2173 25.7117 31.0519 25.8625 30.8607 25.9656C30.8306 26.0618 30.7935 26.1553 30.7498 26.2453C30.5912 26.616 30.3151 26.9135 29.971 27.0843C29.8887 27.2659 29.7602 27.4184 29.6004 27.5241C29.3041 27.7237 28.8582 27.7643 28.4133 27.7237L28.0794 27.6843L28.3756 27.5241C28.5406 27.4797 28.6922 27.3902 28.8156 27.2641C28.9391 27.1381 29.0302 26.9798 29.0801 26.8046L29.2288 26.8847H29.2225Z" fill="#FDFDFD"/>
<path d="M10.6011 26.1257V37.3151H10.7864C10.825 37.3178 10.8614 37.3355 10.8887 37.365C10.9161 37.3944 10.9325 37.4336 10.935 37.4752C10.9394 37.5229 10.9263 37.5705 10.8985 37.6078C10.8707 37.6451 10.8305 37.6692 10.7864 37.6749H10.6011V37.8745H10.7864C10.8064 37.8724 10.8265 37.8751 10.8455 37.8824C10.8644 37.8897 10.8816 37.9014 10.8958 37.9167C10.91 37.932 10.9209 37.9505 10.9277 37.9709C10.9344 37.9913 10.937 38.0131 10.935 38.0346C10.9325 38.0762 10.9161 38.1154 10.8887 38.1449C10.8614 38.1744 10.825 38.1921 10.7864 38.1947H10.6011V39.1138C10.9716 38.8736 11.6395 38.4744 11.6395 38.4744C11.4165 39.9529 11.0826 41.4313 10.3038 42.9098H10.2671C9.48831 41.4313 9.15438 39.9529 8.93141 38.4744C8.93141 38.4744 9.59927 38.8736 10.0075 39.1138V38.1947H9.82225C9.77805 38.1995 9.73388 38.1854 9.69923 38.1555C9.66458 38.1255 9.64222 38.0821 9.63696 38.0346C9.63696 37.9151 9.71128 37.8745 9.82225 37.8745H10.0075V37.6749H9.82225C9.79752 37.6765 9.77274 37.6725 9.74957 37.663C9.72639 37.6536 9.70535 37.6389 9.68783 37.6201C9.67031 37.6012 9.65671 37.5785 9.64794 37.5535C9.63917 37.5286 9.63543 37.5019 9.63696 37.4752C9.64222 37.4277 9.66458 37.3843 9.69923 37.3544C9.73388 37.3244 9.77805 37.3103 9.82225 37.3151H10.0075V25.925C10.1958 26.021 10.3956 26.0881 10.6011 26.1246V26.1257ZM10.6754 8.38651C11.9316 7.34787 12.233 6.62048 12.2707 5.98895C12.2707 6.00474 11.0836 7.20352 10.6754 7.55199V8.38764V8.38651ZM10.6754 11.2476C11.6772 10.3082 11.8991 9.63265 11.9316 9.03721C11.9316 9.053 11.1527 9.92812 10.6754 10.3995V11.2464V11.2476ZM10.6754 10.3048C11.7138 9.32929 11.9734 8.6425 12.0111 8.03466C12.0111 8.04706 11.1213 9.01015 10.6754 9.45786V10.3048ZM10.6754 9.32929C11.8269 8.32223 12.0854 7.61514 12.1221 6.9915C12.1221 7.00729 11.1203 8.08202 10.6754 8.49026V9.32929ZM9.85888 8.38651C8.60272 7.34787 8.30124 6.62048 8.30124 5.98895C8.2646 6.00474 9.48831 7.20352 9.85888 7.55199V8.38764V8.38651ZM9.85888 11.2476C8.89478 10.3082 8.63517 9.63265 8.60272 9.03721C8.60272 9.053 9.41923 9.92812 9.85888 10.3995V11.2464V11.2476ZM9.85888 10.3048C8.82045 9.32929 8.56084 8.6425 8.56084 8.03466C8.5242 8.04706 9.41399 9.01015 9.85888 9.45786V10.3048ZM9.85888 9.32929C8.7074 8.32223 8.44884 7.61514 8.4122 6.9915C8.4122 7.00729 9.45063 8.08202 9.85888 8.49026V9.32929ZM10.0075 6.41636H10.1562V6.65206H10.4524V6.41636H10.6011V22.2046C10.5 22.2071 10.3999 22.2273 10.3048 22.2644C10.1891 22.3067 10.0865 22.3828 10.0086 22.4843V6.41636H10.0075Z" fill="#FDFDFD"/>
<path d="M10.8617 39.2336C11.1255 39.1104 11.3555 38.9162 11.5295 38.6696C11.3374 40.0137 10.9624 41.3201 10.4168 42.5464C10.7942 41.4269 11.0916 40.2779 11.3066 39.1095C11.169 39.1864 11.0166 39.2273 10.8617 39.229V39.2336ZM10.1572 38.3943C10.0271 39.4557 10.0271 40.5308 10.1572 41.5922C10.1012 40.5271 10.1008 39.4595 10.1561 38.3943H10.1572ZM9.74892 39.1941C9.49408 39.0552 9.26714 38.8635 9.08105 38.6301C9.27305 39.9609 9.64809 41.2535 10.1938 42.4652C9.79469 41.3533 9.49669 40.2022 9.30403 39.0283C9.44629 39.0994 9.59552 39.1532 9.74892 39.1884V39.1941Z" fill="#FDFDFD"/>
<path d="M20.6911 7.99029C20.8052 7.99029 20.9147 8.03914 20.9954 8.12608C21.076 8.21302 21.1214 8.33093 21.1214 8.45389C21.1214 8.57684 21.076 8.69476 20.9954 8.7817C20.9147 8.86864 20.8052 8.91748 20.6911 8.91748C20.6402 8.92052 20.5891 8.91268 20.541 8.8944C20.4929 8.87613 20.4485 8.84778 20.4106 8.81099C20.3727 8.77419 20.3419 8.72968 20.3199 8.68002C20.298 8.63035 20.2854 8.5765 20.2829 8.52157C20.2631 8.47349 20.2381 8.42806 20.2086 8.38621C20.0976 8.30274 19.8746 8.27341 19.838 8.24634C20.061 8.22265 20.2086 8.23393 20.4315 8.09068C20.4315 8.08279 20.4315 8.07038 20.4682 8.0591C20.5359 8.01649 20.6127 7.99319 20.6911 7.99142V7.99029Z" fill="#E04E39"/>
<path d="M20.6911 8.04248C20.7416 8.03837 20.7923 8.04552 20.84 8.0635C20.8878 8.08148 20.9316 8.10988 20.9687 8.14695C21.0058 8.18401 21.0354 8.22892 21.0556 8.27888C21.0758 8.32884 21.0863 8.38276 21.0863 8.43727C21.0863 8.49178 21.0758 8.5457 21.0556 8.59566C21.0354 8.64562 21.0058 8.69053 20.9687 8.7276C20.9316 8.76466 20.8878 8.79307 20.84 8.81104C20.7923 8.82902 20.7416 8.83617 20.6911 8.83206C20.6407 8.83617 20.59 8.82902 20.5423 8.81104C20.4945 8.79307 20.4507 8.76466 20.4136 8.7276C20.3765 8.69053 20.3469 8.64562 20.3267 8.59566C20.3064 8.5457 20.296 8.49178 20.296 8.43727C20.296 8.38276 20.3064 8.32884 20.3267 8.27888C20.3469 8.22892 20.3765 8.18401 20.4136 8.14695C20.4507 8.10988 20.4945 8.08148 20.5423 8.0635C20.59 8.04552 20.6407 8.03837 20.6911 8.04248Z" fill="#FDFDFD"/>
<path d="M21.5389 8.67412C21.205 8.3143 21.1307 7.93078 20.3152 7.96237C20.1389 7.98354 19.9641 8.01708 19.7918 8.06276C19.9202 8.02351 20.0444 7.96982 20.1624 7.90258C20.2678 7.85275 20.3812 7.82555 20.4963 7.8225C21.0249 7.77851 21.3212 8.16653 21.5389 8.67412Z" fill="#E04E39"/>
<path d="M20.6536 8.18714C20.6944 8.18327 20.7354 8.19283 20.7712 8.21455C20.8069 8.23628 20.8357 8.26915 20.8537 8.30885C20.8718 8.34855 20.8782 8.39321 20.8723 8.43694C20.8663 8.48068 20.8482 8.52144 20.8203 8.55387C20.7924 8.58629 20.7561 8.60885 20.7161 8.61859C20.676 8.62832 20.6342 8.62476 20.5961 8.60838C20.558 8.59201 20.5254 8.56358 20.5026 8.52684C20.4798 8.49011 20.4678 8.44679 20.4683 8.40258C20.4669 8.37521 20.4706 8.34782 20.4792 8.32203C20.4878 8.29624 20.5012 8.27259 20.5185 8.25249C20.5358 8.23238 20.5566 8.21623 20.5799 8.20501C20.6031 8.19378 20.6281 8.1877 20.6536 8.18714Z" fill="#E04E39"/>
<path d="M20.2088 32.0802C20.2088 32.1603 20.1721 32.2798 20.1721 32.3994C20.1721 32.4794 20.1355 32.4794 20.0612 32.5595C20.0978 32.3994 20.0978 32.1997 20.2098 32.0802H20.2088ZM19.096 24.4116L19.0594 24.4511C19.0594 24.4071 19.0594 24.4071 19.096 24.4071V24.4116ZM17.4274 20.4747L17.3165 20.6067C17.2775 20.5928 17.2402 20.5739 17.2055 20.5503C17.2817 20.533 17.3557 20.5065 17.4264 20.4713L17.4274 20.4747ZM15.9064 20.3788C15.9967 20.6254 16.1086 20.8621 16.2403 21.0859C16.0917 21.0138 16.0917 20.9732 16.0174 20.7939C15.9807 20.6585 15.943 20.5176 15.9064 20.3777V20.3788ZM15.383 20.3225C15.569 20.562 15.7798 20.7781 16.0111 20.9664C15.7523 20.8157 15.5355 20.5934 15.383 20.3225ZM15.1977 19.4834V19.815C15.1609 19.7067 15.162 19.5876 15.2009 19.48L15.1977 19.4834ZM15.1642 17.7975C15.0956 17.9274 15.0455 18.0677 15.0156 18.2136C14.9444 18.0817 15.0899 17.8978 15.1642 17.7975Z" fill="#FDFDFD"/>
<path d="M63.4638 12.3737H61.7804V3.13897H57.4986V12.3737H55.8153V1.63428H63.4638V12.3737Z" fill="#E04E39"/>
<path d="M71.68 8.46441C71.68 9.69865 71.4262 10.6846 70.9185 11.4222C70.4109 12.1548 69.7295 12.5212 68.8745 12.5212C68.0818 12.5212 67.4472 12.2335 66.9707 11.6582V15.4421H65.3475V4.39288H66.8438L66.9106 5.20424C67.3871 4.56499 68.035 4.24536 68.8544 4.24536C69.7362 4.24536 70.4264 4.60925 70.9252 5.33701C71.4284 6.05985 71.68 7.06544 71.68 8.35377V8.46441ZM70.0635 8.30951C70.0635 7.51291 69.9188 6.88104 69.6293 6.4139C69.3443 5.94675 68.9346 5.71318 68.4002 5.71318C67.7367 5.71318 67.2602 6.01559 66.9707 6.62042V10.1609C67.2646 10.7805 67.7456 11.0902 68.4136 11.0902C68.9301 11.0902 69.3332 10.8616 69.6226 10.4043C69.9165 9.94206 70.0635 9.2438 70.0635 8.30951Z" fill="#E04E39"/>
<path d="M77.378 12.3737C77.3067 12.2212 77.2444 11.9729 77.1909 11.6287C76.6744 12.2237 76.042 12.5212 75.2939 12.5212C74.568 12.5212 73.9757 12.2925 73.517 11.8352C73.0583 11.3779 72.829 10.8124 72.829 10.1388C72.829 9.28806 73.114 8.63652 73.684 8.18412C74.2585 7.72681 75.0779 7.49816 76.1422 7.49816H77.1375V6.97447C77.1375 6.56141 77.0329 6.23195 76.8236 5.98609C76.6143 5.73531 76.2958 5.60992 75.8683 5.60992C75.4987 5.60992 75.1959 5.71318 74.9599 5.91971C74.7238 6.12132 74.6058 6.37947 74.6058 6.69418H72.9826C72.9826 6.25654 73.114 5.84841 73.3767 5.46977C73.6395 5.08622 73.9957 4.78627 74.4455 4.56991C74.8997 4.35355 75.4052 4.24536 75.9618 4.24536C76.808 4.24536 77.4826 4.4814 77.9859 4.95346C78.4891 5.4206 78.7474 6.07952 78.7607 6.93021V10.5297C78.7607 11.2476 78.852 11.8205 79.0346 12.2483V12.3737H77.378ZM75.5945 11.0829C75.9151 11.0829 76.2157 10.9968 76.4962 10.8247C76.7812 10.6526 76.995 10.4215 77.1375 10.1314V8.62668H76.2624C75.6613 8.62668 75.2092 8.74224 74.9064 8.97335C74.6036 9.20446 74.4522 9.53146 74.4522 9.95435C74.4522 10.2986 74.5546 10.5739 74.7595 10.7805C74.9688 10.9821 75.2471 11.0829 75.5945 11.0829Z" fill="#E04E39"/>
<path d="M80.5843 12.3737V4.39288H83.5168C84.5054 4.39288 85.258 4.58466 85.7746 4.96821C86.2912 5.34684 86.5495 5.89266 86.5495 6.60567C86.5495 6.97447 86.4448 7.30639 86.2355 7.60142C86.0307 7.89154 85.7256 8.11528 85.3204 8.27263C85.7924 8.38082 86.1665 8.59964 86.4426 8.92909C86.7187 9.25855 86.8568 9.64702 86.8568 10.0945C86.8568 10.837 86.6074 11.4025 86.1086 11.791C85.6143 12.1794 84.9018 12.3737 83.971 12.3737H80.5843ZM82.2076 8.97335V10.9575H83.9844C84.8172 10.9575 85.2335 10.628 85.2335 9.9691C85.2335 9.30527 84.8105 8.97335 83.9644 8.97335H82.2076ZM82.2076 7.68993H83.5435C84.4654 7.68993 84.9263 7.38998 84.9263 6.79007C84.9263 6.16065 84.4898 5.83611 83.617 5.81644H82.2076V7.68993Z" fill="#E04E39"/>
<path d="M92.7751 4.39288H94.3917V12.3737H92.7751V7.04823L89.9429 12.3737H88.3263V4.39288H89.9429V9.71832L92.7751 4.39288Z" fill="#E04E39"/>
<path d="M101.806 5.81644H99.4617V12.3737H97.8385V5.81644H95.5206V4.39288H101.806V5.81644Z" fill="#E04E39"/>
<path d="M105.647 12.5212C104.619 12.5212 103.784 12.1647 103.142 11.4517C102.506 10.7337 102.187 9.77979 102.187 8.5898V8.36852C102.187 7.57192 102.325 6.86137 102.601 6.23687C102.882 5.60746 103.274 5.11819 103.777 4.76906C104.28 4.41993 104.841 4.24536 105.46 4.24536C106.444 4.24536 107.204 4.59203 107.738 5.28537C108.277 5.97871 108.546 6.95972 108.546 8.22838V8.95122H103.824C103.873 9.61014 104.071 10.1314 104.418 10.5149C104.77 10.8985 105.211 11.0902 105.741 11.0902C106.485 11.0902 107.09 10.7583 107.558 10.0945L108.433 11.0165C108.143 11.4935 107.756 11.8647 107.271 12.1303C106.79 12.3909 106.248 12.5212 105.647 12.5212ZM105.454 5.68368C105.008 5.68368 104.648 5.85578 104.371 6.19999C104.1 6.5442 103.926 7.02364 103.85 7.6383H106.943V7.50554C106.908 6.90563 106.763 6.45323 106.509 6.14836C106.255 5.83857 105.903 5.68368 105.454 5.68368Z" fill="#E04E39"/>
<path d="M115.954 4.39288V12.3737H114.331V5.83857H112.287L112.154 8.61931C112.069 9.95681 111.835 10.9181 111.452 11.5033C111.074 12.0835 110.492 12.3737 109.709 12.3737H109.208L109.201 10.8837L109.535 10.8468C109.891 10.7928 110.15 10.5543 110.31 10.1314C110.475 9.70357 110.579 8.92664 110.624 7.80057L110.757 4.39288H115.954Z" fill="#E04E39"/>
<path d="M119.428 6.93021H121.018C121.61 6.93021 122.127 7.04331 122.567 7.26951C123.008 7.4957 123.342 7.81287 123.569 8.221C123.801 8.62914 123.917 9.10366 123.917 9.64456C123.917 10.4658 123.654 11.1247 123.129 11.6213C122.603 12.118 121.904 12.3687 121.031 12.3737H117.805V4.39288H119.428V6.93021ZM119.428 8.36852V10.9427H121.011C121.407 10.9427 121.719 10.8345 121.946 10.6182C122.178 10.3969 122.294 10.0847 122.294 9.68144C122.294 9.27822 122.18 8.96106 121.953 8.72994C121.73 8.49391 121.427 8.37344 121.044 8.36852H119.428Z" fill="#E04E39"/>
<path d="M128.185 11.0902C128.591 11.0902 128.927 10.9599 129.194 10.6993C129.461 10.4387 129.604 10.1166 129.621 9.73307H131.151C131.133 10.2297 130.993 10.6944 130.73 11.1271C130.468 11.5549 130.111 11.8942 129.662 12.145C129.212 12.3958 128.726 12.5212 128.205 12.5212C127.194 12.5212 126.393 12.1598 125.801 11.4369C125.208 10.7141 124.912 9.71586 124.912 8.44228V8.25788C124.912 7.04331 125.206 6.07214 125.794 5.34438C126.382 4.6117 127.183 4.24536 128.199 4.24536C129.058 4.24536 129.757 4.52319 130.296 5.07885C130.839 5.62959 131.124 6.35489 131.151 7.25475H129.621C129.604 6.79744 129.461 6.42127 129.194 6.12623C128.931 5.83119 128.595 5.68368 128.185 5.68368C127.66 5.68368 127.255 5.89512 126.97 6.31801C126.685 6.73598 126.54 7.37277 126.535 8.22838V8.51604C126.535 9.38149 126.676 10.0281 126.956 10.4559C127.241 10.8788 127.651 11.0902 128.185 11.0902Z" fill="#E04E39"/>
<path d="M138.065 5.81644H135.72V12.3737H134.097V5.81644H131.779V4.39288H138.065V5.81644Z" fill="#E04E39"/>
<path d="M139.274 12.3737V4.39288H142.206C143.195 4.39288 143.948 4.58466 144.464 4.96821C144.981 5.34684 145.239 5.89266 145.239 6.60567C145.239 6.97447 145.134 7.30639 144.925 7.60142C144.72 7.89154 144.415 8.11528 144.01 8.27263C144.482 8.38082 144.856 8.59964 145.132 8.92909C145.408 9.25855 145.546 9.64702 145.546 10.0945C145.546 10.837 145.297 11.4025 144.798 11.791C144.304 12.1794 143.591 12.3737 142.661 12.3737H139.274ZM140.897 8.97335V10.9575H142.674C143.507 10.9575 143.923 10.628 143.923 9.9691C143.923 9.30527 143.5 8.97335 142.654 8.97335H140.897ZM140.897 7.68993H142.233C143.155 7.68993 143.616 7.38998 143.616 6.79007C143.616 6.16065 143.179 5.83611 142.307 5.81644H140.897V7.68993Z" fill="#E04E39"/>
<path d="M146.648 8.30951C146.648 7.52766 146.789 6.82449 147.069 6.19999C147.35 5.57058 147.744 5.08868 148.252 4.75431C148.759 4.41501 149.343 4.24536 150.002 4.24536C150.977 4.24536 151.768 4.59203 152.373 5.28537C152.983 5.97871 153.313 6.89825 153.362 8.04398L153.368 8.46441C153.368 9.25118 153.23 9.95435 152.954 10.5739C152.683 11.1935 152.291 11.6729 151.779 12.0122C151.271 12.3515 150.683 12.5212 150.015 12.5212C148.995 12.5212 148.178 12.1475 147.564 11.4C146.954 10.6477 146.648 9.64702 146.648 8.39803V8.30951ZM148.272 8.46441C148.272 9.2856 148.425 9.92977 148.733 10.3969C149.04 10.8591 149.467 11.0902 150.015 11.0902C150.563 11.0902 150.988 10.8542 151.291 10.3822C151.598 9.9101 151.752 9.21922 151.752 8.30951C151.752 7.50308 151.594 6.86383 151.278 6.39177C150.966 5.91971 150.541 5.68368 150.002 5.68368C149.472 5.68368 149.051 5.91725 148.739 6.38439C148.428 6.84662 148.272 7.53996 148.272 8.46441Z" fill="#E04E39"/>
<path d="M63.1899 25.494C63.0919 26.6397 62.7089 27.5347 62.0409 28.1789C61.373 28.8181 60.4845 29.1377 59.3757 29.1377C58.6008 29.1377 57.9172 28.9361 57.3249 28.5329C56.7371 28.1248 56.2829 27.547 55.9622 26.7996C55.6416 26.0521 55.4746 25.1842 55.4613 24.1958V23.1927C55.4613 22.1797 55.6238 21.2873 55.9489 20.5152C56.274 19.7432 56.7393 19.1482 57.345 18.7303C57.9551 18.3123 58.6587 18.1033 59.4558 18.1033C60.5291 18.1033 61.393 18.4254 62.0476 19.0696C62.7023 19.7137 63.083 20.6234 63.1899 21.7987H61.5066C61.4264 21.0266 61.2215 20.471 60.892 20.1317C60.5669 19.7875 60.0882 19.6154 59.4558 19.6154C58.721 19.6154 58.1555 19.9129 57.7591 20.5079C57.3673 21.0979 57.1669 21.9658 57.1579 23.1116V24.0631C57.1579 25.2236 57.345 26.1087 57.7191 26.7184C58.0976 27.3282 58.6498 27.633 59.3757 27.633C60.0392 27.633 60.538 27.4683 60.872 27.1388C61.206 26.8094 61.4175 26.2611 61.5066 25.494H63.1899Z" fill="#E04E39"/>
<path d="M64.6728 28.9902V21.0094H67.6053C68.5939 21.0094 69.3465 21.2012 69.8631 21.5848C70.3797 21.9634 70.638 22.5092 70.638 23.2222C70.638 23.591 70.5333 23.9229 70.324 24.218C70.1192 24.5081 69.8141 24.7318 69.4089 24.8892C69.8809 24.9974 70.255 25.2162 70.5311 25.5456C70.8072 25.8751 70.9452 26.2636 70.9452 26.711C70.9452 27.4536 70.6959 28.019 70.1971 28.4075C69.7028 28.796 68.9903 28.9902 68.0595 28.9902H64.6728ZM66.296 25.5899V27.574H68.0729C68.9057 27.574 69.322 27.2446 69.322 26.5857C69.322 25.9218 68.899 25.5899 68.0529 25.5899H66.296ZM66.296 24.3065H67.632C68.5538 24.3065 69.0148 24.0065 69.0148 23.4066C69.0148 22.7772 68.5783 22.4527 67.7055 22.433H66.296V24.3065Z" fill="#E04E39"/>
<path d="M75.5343 29.1377C74.5056 29.1377 73.6706 28.7812 73.0294 28.0682C72.3926 27.3503 72.0742 26.3963 72.0742 25.2063V24.9851C72.0742 24.1885 72.2122 23.4779 72.4883 22.8534C72.7689 22.224 73.1607 21.7347 73.664 21.3856C74.1672 21.0365 74.7283 20.8619 75.3473 20.8619C76.3315 20.8619 77.0907 21.2086 77.6251 21.9019C78.164 22.5953 78.4334 23.5763 78.4334 24.8449V25.5678H73.7107C73.7597 26.2267 73.9579 26.7479 74.3052 27.1315C74.657 27.515 75.0979 27.7068 75.6279 27.7068C76.3715 27.7068 76.9772 27.3749 77.4448 26.711L78.3199 27.633C78.0304 28.11 77.643 28.4813 77.1575 28.7468C76.6766 29.0074 76.1355 29.1377 75.5343 29.1377ZM75.3406 22.3002C74.8953 22.3002 74.5346 22.4723 74.2585 22.8165C73.9868 23.1608 73.8131 23.6402 73.7374 24.2549H76.8302V24.1221C76.7946 23.5222 76.6499 23.0698 76.396 22.7649C76.1422 22.4551 75.7904 22.3002 75.3406 22.3002Z" fill="#E04E39"/>
<path d="M86.0284 25.081C86.0284 26.3152 85.7746 27.3011 85.2669 28.0387C84.7593 28.7714 84.0779 29.1377 83.2229 29.1377C82.4302 29.1377 81.7956 28.8501 81.3191 28.2747V32.0586H79.6959V21.0094H81.1922L81.259 21.8208C81.7355 21.1815 82.3835 20.8619 83.2029 20.8619C84.0846 20.8619 84.7749 21.2258 85.2736 21.9536C85.7768 22.6764 86.0284 23.682 86.0284 24.9703V25.081ZM84.4119 24.9261C84.4119 24.1295 84.2672 23.4976 83.9777 23.0304C83.6927 22.5633 83.283 22.3297 82.7486 22.3297C82.0851 22.3297 81.6086 22.6321 81.3191 23.237V26.7774C81.613 27.397 82.094 27.7068 82.762 27.7068C83.2786 27.7068 83.6816 27.4781 83.971 27.0208C84.265 26.5586 84.4119 25.8603 84.4119 24.9261Z" fill="#E04E39"/>
<path d="M87.3177 27.5593C87.7674 27.0036 88.068 26.4775 88.2195 25.9808C88.3753 25.4793 88.4688 24.84 88.5 24.0631L88.5935 21.0094H93.6101V27.5593H94.6121V31.3653H92.9956V28.9902H88.3597V31.3653H86.7165L86.7232 27.5593H87.3177ZM89.2214 27.5593H91.9936V22.551H90.17L90.1232 24.0778C90.0609 25.5432 89.7603 26.7037 89.2214 27.5593Z" fill="#E04E39"/>
<path d="M101.913 21.0094V28.9902H100.29V22.4551H98.246L98.1124 25.2359C98.0278 26.5734 97.794 27.5347 97.411 28.1199C97.0325 28.7001 96.4513 28.9902 95.6675 28.9902H95.1665L95.1599 27.5003L95.4939 27.4634C95.8501 27.4093 96.1084 27.1708 96.2687 26.7479C96.4335 26.3201 96.5381 25.5432 96.5827 24.4171L96.7163 21.0094H101.913Z" fill="#E04E39"/>
<path d="M103.336 24.9261C103.336 24.1442 103.476 23.441 103.757 22.8165C104.037 22.1871 104.432 21.7052 104.939 21.3709C105.447 21.0316 106.03 20.8619 106.689 20.8619C107.665 20.8619 108.455 21.2086 109.061 21.9019C109.671 22.5953 110 23.5148 110.049 24.6605L110.056 25.081C110.056 25.8677 109.918 26.5709 109.642 27.1905C109.37 27.8101 108.978 28.2895 108.466 28.6288C107.959 28.9681 107.371 29.1377 106.703 29.1377C105.683 29.1377 104.866 28.764 104.251 28.0166C103.641 27.2642 103.336 26.2636 103.336 25.0146V24.9261ZM104.959 25.081C104.959 25.9021 105.113 26.5463 105.42 27.0135C105.727 27.4757 106.155 27.7068 106.703 27.7068C107.25 27.7068 107.676 27.4708 107.979 26.9987C108.286 26.5266 108.439 25.8358 108.439 24.9261C108.439 24.1196 108.281 23.4804 107.965 23.0083C107.653 22.5363 107.228 22.3002 106.689 22.3002C106.159 22.3002 105.739 22.5338 105.427 23.0009C105.115 23.4632 104.959 24.1565 104.959 25.081Z" fill="#E04E39"/>
<path d="M111.552 28.9902V21.0094H114.485C115.473 21.0094 116.226 21.2012 116.743 21.5848C117.259 21.9634 117.517 22.5092 117.517 23.2222C117.517 23.591 117.413 23.9229 117.204 24.218C116.999 24.5081 116.694 24.7318 116.288 24.8892C116.76 24.9974 117.134 25.2162 117.411 25.5456C117.687 25.8751 117.825 26.2636 117.825 26.711C117.825 27.4536 117.575 28.019 117.077 28.4075C116.582 28.796 115.87 28.9902 114.939 28.9902H111.552ZM113.176 25.5899V27.574H114.952C115.785 27.574 116.202 27.2446 116.202 26.5857C116.202 25.9218 115.778 25.5899 114.932 25.5899H113.176ZM113.176 24.3065H114.512C115.433 24.3065 115.894 24.0065 115.894 23.4066C115.894 22.7772 115.458 22.4527 114.585 22.433H113.176V24.3065Z" fill="#E04E39"/>
<path d="M122.2 27.7068C122.605 27.7068 122.942 27.5765 123.209 27.3159C123.476 27.0553 123.618 26.7332 123.636 26.3496H125.166C125.148 26.8463 125.008 27.311 124.745 27.7437C124.482 28.1715 124.126 28.5108 123.676 28.7616C123.227 29.0123 122.741 29.1377 122.22 29.1377C121.209 29.1377 120.408 28.7763 119.815 28.0535C119.223 27.3306 118.927 26.3324 118.927 25.0588V24.8744C118.927 23.6599 119.221 22.6887 119.809 21.9609C120.396 21.2283 121.198 20.8619 122.213 20.8619C123.073 20.8619 123.772 21.1397 124.311 21.6954C124.854 22.2461 125.139 22.9714 125.166 23.8713H123.636C123.618 23.414 123.476 23.0378 123.209 22.7428C122.946 22.4477 122.61 22.3002 122.2 22.3002C121.675 22.3002 121.269 22.5117 120.984 22.9346C120.699 23.3525 120.555 23.9893 120.55 24.8449V25.1326C120.55 25.998 120.69 26.6447 120.971 27.0725C121.256 27.4954 121.666 27.7068 122.2 27.7068Z" fill="#E04E39"/>
<path d="M128.96 25.8333H128.138V28.9902H126.515V21.0094H128.138V24.1958H128.853L130.851 21.0094H132.854L130.243 24.8302L133.075 28.9902H130.964L128.96 25.8333Z" fill="#E04E39"/>
<path d="M133.275 24.9261C133.275 24.1442 133.416 23.441 133.696 22.8165C133.977 22.1871 134.371 21.7052 134.879 21.3709C135.386 21.0316 135.97 20.8619 136.629 20.8619C137.604 20.8619 138.394 21.2086 139 21.9019C139.61 22.5953 139.94 23.5148 139.989 24.6605L139.995 25.081C139.995 25.8677 139.857 26.5709 139.581 27.1905C139.31 27.8101 138.918 28.2895 138.405 28.6288C137.898 28.9681 137.31 29.1377 136.642 29.1377C135.622 29.1377 134.805 28.764 134.19 28.0166C133.58 27.2642 133.275 26.2636 133.275 25.0146V24.9261ZM134.899 25.081C134.899 25.9021 135.052 26.5463 135.359 27.0135C135.667 27.4757 136.094 27.7068 136.642 27.7068C137.19 27.7068 137.615 27.4708 137.918 26.9987C138.225 26.5266 138.379 25.8358 138.379 24.9261C138.379 24.1196 138.221 23.4804 137.905 23.0083C137.593 22.5363 137.167 22.3002 136.629 22.3002C136.099 22.3002 135.678 22.5338 135.366 23.0009C135.054 23.4632 134.899 24.1565 134.899 25.081Z" fill="#E04E39"/>
<path d="M145.88 21.0094H147.497V28.9902H145.88V23.6648L143.048 28.9902H141.431V21.0094H143.048V26.3349L145.88 21.0094ZM146.642 17.9484C146.642 18.568 146.446 19.0696 146.054 19.4531C145.662 19.8367 145.139 20.0284 144.484 20.0284C143.83 20.0284 143.306 19.8367 142.914 19.4531C142.523 19.0696 142.327 18.568 142.327 17.9484H143.542C143.542 18.273 143.625 18.5262 143.789 18.7081C143.959 18.8852 144.19 18.9737 144.484 18.9737C144.778 18.9737 145.007 18.8852 145.172 18.7081C145.337 18.5262 145.419 18.273 145.419 17.9484H146.642Z" fill="#E04E39"/>
<path d="M55.3076 41.5426C55.3076 40.7608 55.4479 40.0576 55.7285 39.4331C56.009 38.8037 56.4031 38.3218 56.9108 37.9874C57.4185 37.6481 58.0018 37.4785 58.6609 37.4785C59.6362 37.4785 60.4266 37.8251 61.0323 38.5185C61.6424 39.2118 61.9719 40.1313 62.0209 41.2771L62.0276 41.6975C62.0276 42.4843 61.8895 43.1874 61.6134 43.807C61.3418 44.4266 60.9499 44.906 60.4378 45.2453C59.9301 45.5846 59.3423 45.7543 58.6743 45.7543C57.6545 45.7543 56.8373 45.3806 56.2228 44.6331C55.6127 43.8808 55.3076 42.8801 55.3076 41.6311V41.5426ZM56.9308 41.6975C56.9308 42.5187 57.0845 43.1629 57.3917 43.63C57.699 44.0922 58.1265 44.3233 58.6743 44.3233C59.222 44.3233 59.6473 44.0873 59.9501 43.6153C60.2574 43.1432 60.4111 42.4523 60.4111 41.5426C60.4111 40.7362 60.253 40.0969 59.9368 39.6249C59.6251 39.1528 59.1998 38.9168 58.6609 38.9168C58.131 38.9168 57.7102 39.1503 57.3984 39.6175C57.0867 40.0797 56.9308 40.7731 56.9308 41.6975Z" fill="#E04E39"/>
<path d="M66.8037 38.0685C67.7122 38.0685 68.4403 38.4054 68.988 39.079C69.5358 39.7478 69.8097 40.6575 69.8097 41.8081V41.8967C69.8097 43.0473 69.5113 43.9791 68.9146 44.6921C68.3223 45.4052 67.5162 45.7617 66.4964 45.7617C65.5034 45.7617 64.7018 45.3978 64.0917 44.67C63.4816 43.9423 63.1765 42.949 63.1765 41.6901V41.1738C63.1765 39.4528 63.4526 38.0907 64.0048 37.0875C64.557 36.0844 65.3809 35.4574 66.4764 35.2067C67.091 35.069 67.4873 34.9239 67.6654 34.7715C67.848 34.6141 67.9393 34.4027 67.9393 34.1372H69.2486C69.2486 34.6338 69.1751 35.037 69.0281 35.3468C68.8812 35.6566 68.6563 35.9098 68.3534 36.1065C68.0506 36.2983 67.5296 36.4802 66.7904 36.6524C66.1135 36.8097 65.5969 37.09 65.2406 37.4932C64.8888 37.8964 64.6528 38.4545 64.5326 39.1676C65.1783 38.4349 65.9353 38.0685 66.8037 38.0685ZM66.4831 39.5068C65.9576 39.5068 65.5457 39.7035 65.2473 40.0969C64.9489 40.4854 64.7997 41.0853 64.7997 41.8967C64.7997 42.6638 64.9467 43.2612 65.2406 43.689C65.5345 44.1168 65.9531 44.3307 66.4964 44.3307C67.0353 44.3307 67.4517 44.1168 67.7456 43.689C68.0439 43.2563 68.1931 42.6072 68.1931 41.7418C68.1931 41.0533 68.0439 40.51 67.7456 40.1117C67.4517 39.7085 67.0308 39.5068 66.4831 39.5068Z" fill="#E04E39"/>
<path d="M77.2243 37.626V45.6068H75.6011V39.0717H73.5571L73.4235 41.8524C73.3389 43.1899 73.1051 44.1512 72.7221 44.7364C72.3436 45.3166 71.7624 45.6068 70.9786 45.6068H70.4777L70.471 44.1168L70.805 44.0799C71.1612 44.0258 71.4195 43.7874 71.5798 43.3645C71.7446 42.9367 71.8493 42.1597 71.8938 41.0337L72.0274 37.626H77.2243Z" fill="#E04E39"/>
<path d="M83.2697 45.6068C83.1984 45.4543 83.1361 45.206 83.0826 44.8618C82.566 45.4568 81.9337 45.7543 81.1855 45.7543C80.4596 45.7543 79.8674 45.5256 79.4087 45.0683C78.95 44.611 78.7206 44.0455 78.7206 43.3718C78.7206 42.5212 79.0057 41.8696 79.5757 41.4172C80.1501 40.9599 80.9695 40.7313 82.0339 40.7313H83.0292V40.2076C83.0292 39.7945 82.9245 39.465 82.7152 39.2192C82.5059 38.9684 82.1875 38.843 81.76 38.843C81.3904 38.843 81.0876 38.9463 80.8515 39.1528C80.6155 39.3544 80.4975 39.6126 80.4975 39.9273H78.8743C78.8743 39.4896 79.0057 39.0815 79.2684 38.7029C79.5311 38.3193 79.8874 38.0194 80.3372 37.803C80.7914 37.5866 81.2969 37.4785 81.8535 37.4785C82.6996 37.4785 83.3743 37.7145 83.8775 38.1866C84.3807 38.6537 84.639 39.3126 84.6524 40.1633V43.7628C84.6524 44.4807 84.7437 45.0536 84.9263 45.4814V45.6068H83.2697ZM81.4861 44.316C81.8068 44.316 82.1074 44.2299 82.3879 44.0578C82.6729 43.8857 82.8867 43.6546 83.0292 43.3645V41.8598H82.1541C81.5529 41.8598 81.1009 41.9753 80.7981 42.2064C80.4953 42.4376 80.3439 42.7646 80.3439 43.1874C80.3439 43.5317 80.4463 43.807 80.6511 44.0136C80.8604 44.2152 81.1388 44.316 81.4861 44.316Z" fill="#E04E39"/>
<path d="M89.3216 44.3233C89.7269 44.3233 90.0631 44.193 90.3303 43.9324C90.5975 43.6718 90.74 43.3497 90.7578 42.9662H92.2875C92.2697 43.4628 92.1294 43.9275 91.8667 44.3602C91.6039 44.788 91.2477 45.1273 90.7979 45.3781C90.3481 45.6289 89.8627 45.7543 89.3417 45.7543C88.3308 45.7543 87.5292 45.3929 86.9369 44.67C86.3446 43.9472 86.0485 42.949 86.0485 41.6754V41.491C86.0485 40.2764 86.3424 39.3052 86.9302 38.5775C87.5181 37.8448 88.3197 37.4785 89.335 37.4785C90.1945 37.4785 90.8936 37.7563 91.4325 38.3119C91.9758 38.8627 92.2608 39.588 92.2875 40.4878H90.7578C90.74 40.0305 90.5975 39.6544 90.3303 39.3593C90.0676 39.0643 89.7313 38.9168 89.3216 38.9168C88.7962 38.9168 88.3909 39.1282 88.1059 39.5511C87.8209 39.9691 87.6762 40.6059 87.6717 41.4615V41.7491C87.6717 42.6146 87.812 43.2612 88.0925 43.689C88.3775 44.1119 88.7872 44.3233 89.3216 44.3233Z" fill="#E04E39"/>
<path d="M99.2012 39.0495H96.8566V45.6068H95.2333V39.0495H92.9154V37.626H99.2012V39.0495Z" fill="#E04E39"/>
<path d="M104.799 37.626H106.415V45.6068H104.799V40.2813L101.967 45.6068H100.35V37.626H101.967V42.9514L104.799 37.626Z" fill="#E04E39"/>
</svg>
