<svg width="56" height="52" viewBox="0 0 56 52" fill="none" xmlns="http://www.w3.org/2000/svg">
<path d="M14 16.4286C14 16.0497 14.1779 15.6863 14.4945 15.4184C14.8111 15.1505 15.2405 15 15.6883 15H39.3247C39.7724 15 40.2019 15.1505 40.5185 15.4184C40.8351 15.6863 41.013 16.0497 41.013 16.4286C41.013 16.8075 40.8351 17.1708 40.5185 17.4387C40.2019 17.7066 39.7724 17.8571 39.3247 17.8571H15.6883C15.2405 17.8571 14.8111 17.7066 14.4945 17.4387C14.1779 17.1708 14 16.8075 14 16.4286Z" fill="#E04E39"/>
<path d="M14 33.5716C14 33.1928 14.1779 32.8294 14.4945 32.5615C14.8111 32.2936 15.2405 32.1431 15.6883 32.1431H39.3247C39.7724 32.1431 40.2019 32.2936 40.5185 32.5615C40.8351 32.8294 41.013 33.1928 41.013 33.5716C41.013 33.9505 40.8351 34.3139 40.5185 34.5818C40.2019 34.8497 39.7724 35.0002 39.3247 35.0002H15.6883C15.2405 35.0002 14.8111 34.8497 14.4945 34.5818C14.1779 34.3139 14 33.9505 14 33.5716Z" fill="#E04E39"/>
<path d="M15.6883 23.5713C15.2405 23.5713 14.8111 23.7218 14.4945 23.9897C14.1779 24.2576 14 24.621 14 24.9999C14 25.3787 14.1779 25.7421 14.4945 26.01C14.8111 26.2779 15.2405 26.4284 15.6883 26.4284H29.1948C29.6426 26.4284 30.072 26.2779 30.3886 26.01C30.7052 25.7421 30.8831 25.3787 30.8831 24.9999C30.8831 24.621 30.7052 24.2576 30.3886 23.9897C30.072 23.7218 29.6426 23.5713 29.1948 23.5713H15.6883Z" fill="#E04E39"/>
<rect x="0.5" y="0.5" width="55" height="51" rx="10.5" stroke="#E04E39"/>
</svg>
