<svg width="40" height="40" viewBox="0 0 40 40" fill="none" xmlns="http://www.w3.org/2000/svg">
<path fill-rule="evenodd" clip-rule="evenodd" d="M37.8136 19.5836C37.8136 29.1976 30.0199 36.9913 20.4059 36.9913C10.7919 36.9913 2.99823 29.1976 2.99823 19.5836C2.99823 9.96965 10.7919 2.17596 20.4059 2.17596C30.0199 2.17596 37.8136 9.96965 37.8136 19.5836ZM39.9896 19.5836C39.9896 30.3994 31.2217 39.1673 20.4059 39.1673C9.59016 39.1673 0.822266 30.3994 0.822266 19.5836C0.822266 8.7679 9.59016 0 20.4059 0C31.2217 0 39.9896 8.7679 39.9896 19.5836ZM25.3616 17.4568C25.0425 18.1552 24.5768 18.7767 23.9963 19.2792C25.5193 19.9688 26.8115 21.0825 27.7183 22.4871C28.6251 23.8917 29.1082 25.5278 29.1098 27.1997C29.1098 27.4882 28.9952 27.765 28.7912 27.969C28.5871 28.173 28.3104 28.2877 28.0219 28.2877C27.7333 28.2877 27.4566 28.173 27.2525 27.969C27.0485 27.765 26.9339 27.4882 26.9339 27.1997C26.9339 25.4684 26.2461 23.808 25.0219 22.5838C23.7977 21.3596 22.1373 20.6718 20.406 20.6718C18.6747 20.6718 17.0143 21.3596 15.7901 22.5838C14.5659 23.808 13.8781 25.4684 13.8781 27.1997C13.8781 27.4882 13.7635 27.765 13.5594 27.969C13.3554 28.173 13.0787 28.2877 12.7901 28.2877C12.5016 28.2877 12.2248 28.173 12.0208 27.969C11.8168 27.765 11.7021 27.4882 11.7021 27.1997C11.7037 25.5278 12.1868 23.8917 13.0937 22.4871C14.0005 21.0825 15.2926 19.9688 16.8157 19.2792C16.2351 18.7767 15.7695 18.1552 15.4504 17.4568C15.1312 16.7585 14.9661 15.9997 14.9661 15.2319C14.9661 13.7891 15.5392 12.4055 16.5594 11.3853C17.5796 10.3651 18.9632 9.79199 20.406 9.79199C21.8487 9.79199 23.2324 10.3651 24.2526 11.3853C25.2728 12.4055 25.8459 13.7891 25.8459 15.2319C25.8459 15.9997 25.6807 16.7585 25.3616 17.4568ZM18.5926 17.9458C19.1294 18.3044 19.7604 18.4958 20.406 18.4958C21.2716 18.4958 22.1018 18.152 22.7139 17.5398C23.3261 16.9277 23.6699 16.0975 23.6699 15.2319C23.6699 14.5863 23.4785 13.9553 23.1199 13.4185C22.7612 12.8818 22.2515 12.4634 21.655 12.2164C21.0586 11.9694 20.4024 11.9047 19.7692 12.0307C19.1361 12.1566 18.5545 12.4675 18.098 12.9239C17.6416 13.3804 17.3307 13.962 17.2048 14.5951C17.0788 15.2283 17.1435 15.8845 17.3905 16.4809C17.6375 17.0774 18.0559 17.5871 18.5926 17.9458Z" fill="#E04E39"/>
</svg>
