<svg width="41" height="40" viewBox="0 0 41 40" fill="none" xmlns="http://www.w3.org/2000/svg">
<path fill-rule="evenodd" clip-rule="evenodd" d="M37.882 19.5836C37.882 29.1976 30.0883 36.9913 20.4743 36.9913C10.8603 36.9913 3.06659 29.1976 3.06659 19.5836C3.06659 9.96965 10.8603 2.17596 20.4743 2.17596C30.0883 2.17596 37.882 9.96965 37.882 19.5836ZM40.0579 19.5836C40.0579 30.3994 31.29 39.1673 20.4743 39.1673C9.65852 39.1673 0.890625 30.3994 0.890625 19.5836C0.890625 8.7679 9.65852 0 20.4743 0C31.29 0 40.0579 8.7679 40.0579 19.5836ZM19.0797 27.0683C19.16 26.9543 19.2472 26.8453 19.3408 26.7419C19.543 26.538 19.7837 26.3761 20.0489 26.2656C20.314 26.1552 20.5984 26.0983 20.8857 26.0983C21.1729 26.0983 21.4573 26.1552 21.7225 26.2656C21.9876 26.3761 22.2283 26.538 22.4306 26.7419C22.6322 26.9452 22.7918 27.1863 22.9001 27.4515C23.0083 27.7166 23.0632 28.0004 23.0616 28.2868C23.072 28.5683 23.0276 28.8491 22.931 29.1136C22.8333 29.3837 22.6774 29.6289 22.4743 29.832C22.2713 30.035 22.026 30.1909 21.756 30.2886C21.4956 30.4038 21.2139 30.4632 20.9292 30.4632C20.6444 30.4632 20.3628 30.4038 20.1023 30.2886C19.8323 30.1909 19.5871 30.035 19.384 29.832C19.181 29.6289 19.0251 29.3837 18.9273 29.1136C18.8055 28.8554 18.7459 28.5722 18.7533 28.2868C18.7426 28.1419 18.7426 27.9965 18.7533 27.8516C18.7771 27.7153 18.8211 27.5833 18.8838 27.46C18.9315 27.3213 18.9973 27.1896 19.0797 27.0683ZM17.6194 9.57712C18.6126 9.00415 19.7391 8.70288 20.8857 8.70361C22.4165 8.71549 23.8945 9.26503 25.0612 10.2562C26.228 11.2473 27.0092 12.617 27.2685 14.1257C27.5277 15.6345 27.2484 17.1864 26.4794 18.5102C25.7104 19.8339 24.5007 20.8452 23.0616 21.3674V21.7591C23.0616 22.3362 22.8323 22.8896 22.4243 23.2977C22.0162 23.7057 21.4628 23.935 20.8857 23.935C20.3086 23.935 19.7551 23.7057 19.3471 23.2977C18.939 22.8896 18.7098 22.3362 18.7098 21.7591V19.5832C18.7098 19.0061 18.939 18.4526 19.3471 18.0446C19.7551 17.6365 20.3086 17.4073 20.8857 17.4073C21.4628 17.4073 22.0162 17.178 22.4243 16.7699C22.8323 16.3619 23.0616 15.8084 23.0616 15.2313C23.0616 14.6543 22.8323 14.1008 22.4243 13.6927C22.0162 13.2847 21.4628 13.0554 20.8857 13.0554C20.5022 13.0539 20.1252 13.1537 19.7928 13.3448C19.4604 13.5358 19.1843 13.8113 18.9926 14.1434C18.8566 14.4034 18.6694 14.6333 18.4422 14.8191C18.2151 15.0049 17.9527 15.1428 17.6708 15.2245C17.389 15.3063 17.0935 15.3302 16.8022 15.2948C16.5109 15.2594 16.2297 15.1655 15.9757 15.0186C15.7216 14.8718 15.4999 14.675 15.3238 14.4403C15.1477 14.2055 15.021 13.9375 14.9511 13.6525C14.8813 13.3674 14.8699 13.0712 14.9175 12.7817C14.9651 12.4921 15.0709 12.2151 15.2283 11.9675C15.8016 10.9745 16.6263 10.1501 17.6194 9.57712Z" fill="#E04E39"/>
</svg>
