<svg width="40" height="40" viewBox="0 0 40 40" fill="none" xmlns="http://www.w3.org/2000/svg">
<circle cx="19.585" cy="19.585" r="18.495" stroke="#E04E39" stroke-width="2.18"/>
<path d="M22.0006 14.0008V12.0006H18.0004V14.0008H22.0006ZM12 16.0009V27.0017H28.0011V16.0009H12ZM28.0011 14.0008C29.1111 14.0008 30.0012 14.8908 30.0012 16.0009V27.0017C30.0012 28.1118 29.1111 29.0018 28.0011 29.0018H12C10.8899 29.0018 9.99982 28.1118 9.99982 27.0017L10.0098 16.0009C10.0098 14.8908 10.8899 14.0008 12 14.0008H16.0002V12.0006C16.0002 10.8906 16.8903 10.0005 18.0004 10.0005H22.0006C23.1107 10.0005 24.0008 10.8906 24.0008 12.0006V14.0008H28.0011Z" fill="#E04E39"/>
</svg>
