<svg width="120" height="120" viewBox="0 0 120 120" fill="none" xmlns="http://www.w3.org/2000/svg">
<path d="M116.484 112.969H7.03125V3.51562C7.03125 1.57242 5.45883 0 3.51562 0C1.57242 0 0 1.57242 0 3.51562V116.484C0 118.428 1.57242 120 3.51562 120H116.484C118.428 120 120 118.428 120 116.484C120 114.541 118.428 112.969 116.484 112.969Z" fill="#E3CCB7"/>
<path d="M17.578 105.938H31.8749C33.8181 105.938 35.3905 104.365 35.3905 102.422V81.0938C35.3905 79.1505 33.8181 77.5781 31.8749 77.5781H17.578C15.6348 77.5781 14.0624 79.1505 14.0624 81.0938V102.422C14.0624 104.365 15.6348 105.938 17.578 105.938Z" fill="#E3CCB7"/>
<path d="M45.9375 63.5156C43.9943 63.5156 42.4219 65.088 42.4219 67.0312V102.422C42.4219 104.365 43.9943 105.938 45.9375 105.938H60C61.9432 105.938 63.5156 104.365 63.5156 102.422V67.0312C63.5156 65.088 61.9432 63.5156 60 63.5156H45.9375Z" fill="#E3CCB7"/>
<path d="M74.0625 49.4531C72.1193 49.4531 70.5469 51.0255 70.5469 52.9688V102.422C70.5469 104.365 72.1193 105.938 74.0625 105.938H88.125C90.0682 105.938 91.6406 104.365 91.6406 102.422V52.9688C91.6406 51.0255 90.0682 49.4531 88.125 49.4531H74.0625Z" fill="#E3CCB7"/>
<path d="M116.484 35.3906H102.187C100.244 35.3906 98.6719 36.963 98.6719 38.9062V102.422C98.6719 104.365 100.244 105.938 102.187 105.938H116.484C118.428 105.938 120 104.365 120 102.422V38.9062C120 36.963 118.428 35.3906 116.484 35.3906Z" fill="#E3CCB7"/>
<path d="M14.4813 61.665C15.4092 63.3898 17.5538 64.0073 19.2431 63.0966L101.107 19.1423L99.0427 23.2713C98.1741 25.0085 98.8779 27.12 100.615 27.9886C102.368 28.8588 104.467 28.1414 105.332 26.4162L112.364 12.3537C112.909 11.2652 112.851 9.97102 112.209 8.93414C111.567 7.89727 110.438 7.26562 109.219 7.26562H91.6406C89.6974 7.26562 88.125 8.83805 88.125 10.7812C88.125 12.7245 89.6974 14.2969 91.6406 14.2969H95.2734L15.9131 56.9032C14.2034 57.8269 13.5612 59.9588 14.4813 61.665Z" fill="#E3CCB7"/>
</svg>
