<svg width="120" height="121" viewBox="0 0 120 121" fill="none" xmlns="http://www.w3.org/2000/svg">
<path d="M74.8 77.5253C101.4 77.5253 120 61.528 120 38.5318C120 15.5355 101.4 0.0380859 74.8 0.0380859H23.75C21.6791 0.0380859 20 1.48371 20 3.26672V58.8617H3.75C1.67906 58.8617 0 60.3073 0 62.0903V74.2967C0 76.0797 1.67906 77.5253 3.75 77.5253H20V86.135H3.75C1.67906 86.135 0 87.5807 0 89.3637V100.126C0 101.909 1.67906 103.354 3.75 103.354H20V117.345C20 119.128 21.6791 120.574 23.75 120.574H42.05C44.1209 120.574 45.8 119.128 45.8 117.345V103.354H96.25C98.3209 103.354 100 101.909 100 100.126V89.3637C100 87.5807 98.3209 86.135 96.25 86.135H45.8V77.5253H74.8ZM45.8 18.5349H70.4C85 18.5349 93.8 26.3671 93.8 38.5318C93.8 50.863 85 58.8617 70 58.8617H45.8V18.5349Z" fill="#E3CCB7"/>
</svg>
