<svg width="40" height="40" viewBox="0 0 40 40" fill="none" xmlns="http://www.w3.org/2000/svg">
<path fill-rule="evenodd" clip-rule="evenodd" d="M37.1046 19.5836C37.1046 29.1976 29.3109 36.9913 19.6969 36.9913C10.0829 36.9913 2.28924 29.1976 2.28924 19.5836C2.28924 9.96965 10.0829 2.17596 19.6969 2.17596C29.3109 2.17596 37.1046 9.96965 37.1046 19.5836ZM39.2806 19.5836C39.2806 30.3994 30.5127 39.1673 19.6969 39.1673C8.88118 39.1673 0.113281 30.3994 0.113281 19.5836C0.113281 8.7679 8.88118 0 19.6969 0C30.5127 0 39.2806 8.7679 39.2806 19.5836ZM26.2374 24.6244L30.2715 28.6288C30.4674 28.8317 30.577 29.1029 30.577 29.3851C30.577 29.6673 30.4674 29.9384 30.2715 30.1413C30.1704 30.2433 30.0501 30.3243 29.9176 30.3795C29.7851 30.4348 29.643 30.4632 29.4994 30.4632C29.3559 30.4632 29.2138 30.4348 29.0813 30.3795C28.9488 30.3243 28.8285 30.2433 28.7274 30.1413L24.7261 26.1369C22.7736 27.704 20.2955 28.4629 17.8012 28.2575C15.3068 28.0522 12.9859 26.8983 11.3156 25.033C9.64529 23.1677 8.75259 20.7329 8.82105 18.2292C8.88951 15.7254 9.91392 13.3431 11.6836 11.572C13.4534 9.80098 15.8339 8.77579 18.3357 8.70728C20.8375 8.63877 23.2705 9.53215 25.1344 11.2037C26.9982 12.8753 28.1513 15.198 28.3565 17.6942C28.5616 20.1904 27.8033 22.6705 26.2374 24.6244ZM14.3975 24.8532C15.6492 25.6902 17.1207 26.1369 18.6261 26.1369C20.6448 26.1369 22.5807 25.3344 24.0081 23.9059C25.4355 22.4774 26.2374 20.54 26.2374 18.5198C26.2374 17.0133 25.7911 15.5406 24.9547 14.288C24.1184 13.0353 22.9296 12.059 21.5388 11.4825C20.1481 10.906 18.6177 10.7551 17.1412 11.049C15.6648 11.3429 14.3085 12.0684 13.2441 13.1337C12.1796 14.199 11.4547 15.5562 11.161 17.0338C10.8673 18.5113 11.0181 20.0429 11.5942 21.4347C12.1702 22.8266 13.1458 24.0162 14.3975 24.8532Z" fill="#E04E39"/>
</svg>
