<svg width="40" height="40" viewBox="0 0 40 40" fill="none" xmlns="http://www.w3.org/2000/svg">
<path fill-rule="evenodd" clip-rule="evenodd" d="M37.0382 19.5836C37.0382 29.1976 29.2445 36.9913 19.6305 36.9913C10.0165 36.9913 2.22284 29.1976 2.22284 19.5836C2.22284 9.96965 10.0165 2.17596 19.6305 2.17596C29.2445 2.17596 37.0382 9.96965 37.0382 19.5836ZM39.2142 19.5836C39.2142 30.3994 30.4463 39.1673 19.6305 39.1673C8.81477 39.1673 0.046875 30.3994 0.046875 19.5836C0.046875 8.7679 8.81477 0 19.6305 0C30.4463 0 39.2142 8.7679 39.2142 19.5836ZM18.5425 17.4075H17.4545C17.166 17.4075 16.8893 17.2928 16.6852 17.0888C16.4812 16.8848 16.3666 16.608 16.3666 16.3195C16.3666 16.0309 16.4812 15.7542 16.6852 15.5502C16.8893 15.3461 17.166 15.2315 17.4545 15.2315H18.5425C18.8311 15.2315 19.1078 15.3461 19.3118 15.5502C19.5159 15.7542 19.6305 16.0309 19.6305 16.3195C19.6305 16.608 19.5159 16.8848 19.3118 17.0888C19.1078 17.2928 18.8311 17.4075 18.5425 17.4075ZM16.6852 19.9021C16.8893 19.698 17.166 19.5834 17.4545 19.5834H23.9824C24.271 19.5834 24.5477 19.698 24.7517 19.9021C24.9558 20.1061 25.0704 20.3828 25.0704 20.6714C25.0704 20.9599 24.9558 21.2367 24.7517 21.4407C24.5477 21.6447 24.271 21.7594 23.9824 21.7594H17.4545C17.166 21.7594 16.8893 21.6447 16.6852 21.4407C16.4812 21.2367 16.3666 20.9599 16.3666 20.6714C16.3666 20.3828 16.4812 20.1061 16.6852 19.9021ZM29.3571 15.9604C29.3891 16.0558 29.411 16.1542 29.4223 16.2542V16.3195V27.1993C29.4223 28.0649 29.0785 28.8951 28.4663 29.5072C27.8542 30.1193 27.024 30.4632 26.1584 30.4632H15.2786C14.4129 30.4632 13.5827 30.1193 12.9706 29.5072C12.3585 28.8951 12.0146 28.0649 12.0146 27.1993V11.9676C12.0146 11.1019 12.3585 10.2717 12.9706 9.6596C13.5827 9.04749 14.4129 8.70361 15.2786 8.70361H21.8609C21.9873 8.71922 22.1094 8.75991 22.2199 8.82329C22.2524 8.81868 22.2853 8.81868 22.3178 8.82329C22.4297 8.8756 22.5325 8.94538 22.6225 9.03001L29.1503 15.5579C29.235 15.6478 29.3047 15.7507 29.3571 15.8625V15.9604ZM25.7123 15.2315L22.8944 12.4136V14.1435C22.8944 14.4321 23.0091 14.7088 23.2131 14.9128C23.4171 15.1169 23.6939 15.2315 23.9824 15.2315H25.7123ZM26.9277 27.9686C27.1317 27.7646 27.2464 27.4878 27.2464 27.1993V17.4075H23.9824C23.1168 17.4075 22.2866 17.0636 21.6745 16.4515C21.0624 15.8394 20.7185 15.0092 20.7185 14.1435V10.8796H15.2786C14.99 10.8796 14.7133 10.9942 14.5093 11.1982C14.3052 11.4023 14.1906 11.679 14.1906 11.9676V27.1993C14.1906 27.4878 14.3052 27.7646 14.5093 27.9686C14.7133 28.1726 14.99 28.2873 15.2786 28.2873H26.1584C26.4469 28.2873 26.7237 28.1726 26.9277 27.9686ZM16.6852 24.254C16.8893 24.05 17.166 23.9353 17.4545 23.9353H23.9824C24.271 23.9353 24.5477 24.05 24.7517 24.254C24.9558 24.458 25.0704 24.7348 25.0704 25.0233C25.0704 25.3119 24.9558 25.5886 24.7517 25.7926C24.5477 25.9967 24.271 26.1113 23.9824 26.1113H17.4545C17.166 26.1113 16.8893 25.9967 16.6852 25.7926C16.4812 25.5886 16.3666 25.3119 16.3666 25.0233C16.3666 24.7348 16.4812 24.458 16.6852 24.254Z" fill="#E04E39"/>
</svg>
