<svg width="248" height="548" viewBox="0 0 248 548" fill="none" xmlns="http://www.w3.org/2000/svg">
<g clip-path="url(#clip0)">
<path d="M198.58 182.744C198.58 182.744 209.143 181.16 217.594 181.688C226.572 182.216 230.798 181.688 233.438 182.216C236.079 183.272 237.135 188.026 232.91 186.969C226.572 185.385 224.988 186.969 222.875 189.082C221.291 190.138 227.629 192.779 233.967 195.42C240.833 198.061 243.473 191.723 245.586 193.835C248.227 195.42 242.417 207.039 229.213 207.568C219.178 208.096 210.199 203.871 203.861 202.814C193.298 200.702 184.32 197.004 184.32 197.004L198.58 182.744Z" fill="#FFC9B6"/>
<path d="M188.023 171.123C181.157 170.067 173.763 169.539 173.763 169.539C173.763 169.539 173.235 166.898 173.763 164.257C174.291 161.088 167.425 162.145 167.425 162.145C167.425 162.145 161.087 132.568 161.087 131.511C160.559 126.758 158.974 107.216 146.298 86.0898C133.623 64.9634 122.003 74.9984 122.003 74.9984C122.003 74.9984 130.454 144.715 137.848 170.067C138.376 169.539 139.432 168.482 139.961 167.954C143.13 177.461 146.298 193.306 146.827 193.834C154.221 203.341 166.897 202.285 175.347 203.341C186.438 204.925 202.811 205.982 202.811 205.982C202.811 205.982 200.699 194.89 201.227 190.137C202.283 180.63 208.093 179.574 208.093 179.574C208.093 179.574 194.361 172.18 188.023 171.123Z" fill="#EDDCDA"/>
<path d="M135.728 180.1C135.728 180.1 154.742 228.162 157.383 247.176C160.552 266.718 166.362 295.766 169.53 320.062C173.228 344.357 173.228 368.124 171.115 391.891C170.587 401.398 166.89 426.222 169.002 439.426C166.89 448.404 146.292 449.461 144.179 438.897C142.594 432.559 126.75 376.575 125.165 359.145C123.581 341.716 127.806 329.04 127.806 329.04C127.806 329.04 102.454 274.112 93.4757 252.986C84.497 231.331 90.8349 204.923 90.8349 204.923L135.728 180.1Z" fill="#382323"/>
<path d="M144.709 437.844C144.709 437.844 144.181 443.654 142.068 449.464C140.484 455.273 142.596 463.724 142.596 463.724C142.596 463.724 143.653 467.421 149.462 468.477C154.744 469.534 158.969 468.477 158.969 468.477C158.969 468.477 164.251 474.815 170.589 479.569C177.455 484.322 192.243 488.019 195.94 487.491C202.278 486.435 205.975 481.681 205.447 477.984C204.919 474.815 197.525 465.837 191.187 461.611C186.962 458.971 177.983 450.52 175.342 447.351C170.589 442.598 167.42 436.788 167.42 436.788L144.709 437.844Z" fill="#382323"/>
<path d="M48.5893 486.963C48.5893 486.963 44.8922 499.639 45.4203 507.033C45.9485 514.427 47.533 516.012 49.6456 518.652C51.7582 521.293 54.399 520.237 54.399 520.237C54.399 520.237 55.4553 535.553 62.8495 541.891C70.2438 548.229 83.4477 548.757 89.2574 546.645C95.0672 544.532 91.3701 533.441 85.5603 522.878C79.7506 512.314 71.8282 500.695 70.2438 490.66C55.9835 488.019 48.5893 486.963 48.5893 486.963Z" fill="#382323"/>
<path d="M68.6582 200.173C68.6582 200.173 59.6795 213.377 52.2853 236.088C47.0037 251.933 48.06 290.488 48.06 290.488C48.06 290.488 46.4755 328.516 49.1163 341.72C51.7571 354.924 51.229 357.564 51.229 357.564C51.229 357.564 40.6658 389.254 42.2503 426.225C43.8348 463.196 47.0037 490.132 47.0037 490.132C47.0037 490.132 49.1163 496.998 58.6232 498.055C67.0737 499.111 73.9398 492.773 73.9398 492.773C73.9398 492.773 89.7845 414.077 95.5943 396.12C101.404 378.163 103.517 357.564 103.517 357.564L115.664 268.834C115.664 268.834 139.431 252.989 127.284 213.906C119.89 189.082 68.6582 200.173 68.6582 200.173Z" fill="#442C2C"/>
<path d="M87.6725 77.6408C92.4259 76.0564 111.968 69.7185 114.08 70.7748C127.812 77.6408 143.657 104.577 145.77 123.062C146.826 130.457 144.714 150.527 140.488 162.674C145.242 170.069 141.016 175.878 141.016 177.991C140.488 181.688 146.298 198.061 147.882 201.23C150.523 208.096 151.051 218.131 146.826 223.412C138.904 233.976 129.925 237.145 110.383 239.785C87.6725 242.954 72.884 226.581 65.4898 217.075C63.9054 214.962 57.0393 197.005 62.3209 193.836C58.6238 182.216 54.3985 167.956 50.7014 153.696C44.8917 132.569 40.1382 112.499 52.2859 96.6545C57.0393 90.3166 76.5812 81.3379 87.6725 77.6408Z" fill="#EDDCDA"/>
<path d="M85.028 52.8159C85.028 52.8159 103.514 67.0762 109.851 76.583C115.661 86.0899 118.302 89.787 115.133 111.97C98.2319 106.16 76.5775 95.5967 72.8804 83.9772C78.6901 80.2801 85.028 52.8159 85.028 52.8159Z" fill="#FFB9A4"/>
<path d="M127.281 147.354C125.696 138.903 123.055 130.981 121.471 126.228C120.943 125.171 124.112 115.136 124.112 115.136L115.133 111.439L109.851 117.777C109.851 117.777 113.02 125.171 116.189 126.756C116.189 136.263 115.661 153.164 115.661 169.008C115.133 193.832 115.661 211.789 115.661 211.789C115.661 211.789 121.471 220.24 127.281 223.937C131.506 216.543 133.09 207.036 133.09 207.036C133.09 207.036 129.921 161.614 127.281 147.354Z" fill="#F95555"/>
<path d="M75.5211 85.0315C75.5211 85.0315 90.8377 91.8975 97.1756 97.1791C105.626 104.045 109.851 106.158 114.077 110.383C114.605 109.327 115.661 89.7849 115.661 89.7849C115.661 89.7849 123.055 90.8412 122.527 90.8412C122.527 90.8412 126.752 94.5383 128.337 102.461C129.921 110.383 127.281 119.362 127.281 119.362L115.133 111.968L107.211 126.756C107.211 126.756 91.3659 113.024 83.9717 104.573C77.1056 96.651 75.5211 85.0315 75.5211 85.0315Z" fill="white"/>
<path d="M131.508 44.8943C130.451 36.4438 127.282 25.8806 120.416 20.599C113.55 15.3174 102.459 15.8456 94.0083 17.4301C81.3325 19.5427 73.4101 34.8593 77.6354 51.2322C81.3325 66.5488 94.0083 88.7314 111.438 90.3159C120.416 90.8441 126.226 83.978 129.395 74.9993C132.564 64.9643 132.036 51.7604 131.508 44.8943Z" fill="#FFC9B6"/>
<path d="M145.243 22.7108C144.715 14.2603 137.321 10.5632 131.511 12.1476C133.096 0.528158 118.307 -1.05632 113.554 5.80974C109.857 5.28158 105.631 0 98.2371 0C88.7303 0 77.639 3.16895 74.9982 15.8447C64.9632 20.07 67.0758 35.3866 69.7166 44.8934C71.8292 51.2313 79.7516 71.3014 80.2797 71.3014C84.505 67.6042 89.7866 52.8158 90.3148 51.2313C96.1245 51.7595 107.216 47.5342 109.328 44.8934C115.666 48.0624 127.814 52.8158 134.152 48.5906C143.131 42.7808 145.771 30.6332 145.243 22.7108Z" fill="#382323"/>
<path d="M90.3094 54.9264C90.3094 54.9264 86.6123 48.5885 81.3307 52.8138C76.5773 57.039 87.1405 67.6022 87.1405 67.6022L90.3094 54.9264Z" fill="#FFC9B6"/>
<path d="M125.166 81.3363C125.166 81.3363 121.997 81.3363 120.941 79.2236C118.828 82.3926 114.603 82.9207 113.018 83.9771C114.603 85.5615 116.715 87.146 120.941 86.0897C124.638 85.0334 125.166 81.3363 125.166 81.3363Z" fill="#FFC9B6"/>
<path d="M10.0381 199.113L35.3897 244.535L100.353 207.036L75.0016 161.614L70.2482 164.255L10.0381 199.113Z" fill="#FF9C7D"/>
<path d="M5.28263 201.226L30.6342 247.176L95.5977 209.676L70.2461 164.255L5.28263 201.226Z" fill="#FF8E66"/>
<path d="M73.9432 162.14L98.7666 206.506L96.1258 208.09L71.3024 163.725L73.9432 162.14Z" fill="white"/>
<path d="M73.4171 164.255L81.8676 179.043L91.3745 173.762L83.4521 158.973L73.4171 164.255Z" fill="#EDDCDA"/>
<path d="M78.1726 174.818L101.412 175.874L91.9047 199.113L78.1726 174.818Z" fill="#F95555"/>
<path d="M61.7917 220.243C61.7917 220.243 68.6577 220.243 73.9393 222.356C76.5801 220.243 81.8617 217.602 81.8617 217.602C81.8617 217.602 85.5588 228.165 78.6928 236.088C71.8267 243.482 62.848 239.257 57.5664 234.503C51.7567 230.278 61.7917 220.243 61.7917 220.243Z" fill="#FFC9B6"/>
<path d="M51.2276 97.7092C51.2276 97.7092 34.3265 102.463 25.3478 119.364C16.8973 135.737 5.80599 167.954 2.63704 181.158C-1.58823 199.116 -0.531909 205.453 2.10888 210.207C7.39046 218.657 14.7847 224.995 24.8197 230.805C40.6644 240.312 55.4529 242.953 55.4529 242.953C55.4529 242.953 66.5442 240.84 66.5442 222.883C63.9034 220.242 58.6218 220.77 50.6994 212.848C40.1363 203.341 32.7421 195.418 32.7421 195.418C32.7421 195.418 44.8897 177.989 57.0373 158.976C72.8821 120.948 51.2276 97.7092 51.2276 97.7092Z" fill="#EDDCDA"/>
</g>
<defs>
<clipPath id="clip0">
<rect width="247.178" height="547.7" fill="white"/>
</clipPath>
</defs>
</svg>
