<svg width="169" height="362" viewBox="0 0 169 362" fill="none" xmlns="http://www.w3.org/2000/svg">
<path d="M136.327 265.802V186.942C136.327 180.957 140.192 177.788 144.759 180.605L145.462 180.957V92.9427L3.16382 10.5616V277.772L145.813 360.153L146.165 282.349L144.759 281.645C140.192 279.18 136.327 271.787 136.327 265.802Z" fill="#C39367"/>
<path d="M133.163 267.563V189.054C133.163 183.069 137.028 179.901 141.595 182.717L142.298 183.069V94.7031L0 12.322V279.533L142.649 361.914V284.109L141.947 283.757C137.028 280.941 133.163 273.9 133.163 267.563Z" fill="#CFA580"/>
<path d="M142.649 94.7036V183.07C144.406 182.013 146.865 180.605 148.271 179.901C150.027 178.845 150.379 185.534 148.271 185.886C146.514 186.238 148.271 281.293 146.514 282.349C145.109 283.406 145.109 283.054 143.352 283.758C143.352 283.758 143 284.462 143 284.11V361.914L153.541 355.929V88.7186L142.649 94.7036Z" fill="#C39367"/>
<path d="M153.19 88.7175L142.649 94.7025L0 12.3214L10.5406 6.33643L153.19 88.7175Z" fill="#D8B89A"/>
<path d="M162.679 287.982L165.841 286.222L164.085 283.757L160.922 285.518L162.679 287.982Z" fill="#C39367"/>
<path d="M160.918 186.59L150.026 180.253V279.533L160.918 285.87C165.134 288.334 168.296 285.87 168.296 280.237V200.672C168.296 195.392 164.783 188.703 160.918 186.59Z" fill="#C39367"/>
<path d="M158.11 187.998L147.218 181.661V280.941L158.11 287.278C162.326 289.742 165.488 287.278 165.488 281.645V202.433C165.488 196.8 161.975 190.463 158.11 187.998Z" fill="#CFA580"/>
<path d="M150.026 82.3811L7.37683 0V13.0261L146.161 93.2948V347.479L150.026 349.592V82.3811Z" fill="#EEE2D6"/>
<g clip-path="url(#clip0)">
<path d="M108.171 310.132V302.649L110.319 303.896V307.411C110.319 307.694 110.263 307.921 110.263 307.921L110.376 307.977L112.75 305.313L114.616 306.39V313.873L112.693 312.739V309.225C112.693 308.998 112.75 308.771 112.75 308.771L112.637 308.714L110.263 311.379L108.171 310.132Z" fill="#623B2A"/>
<path d="M103.649 305.426C104.44 305.88 104.949 305.483 104.949 304.576C104.949 303.669 104.44 302.649 103.649 302.195C102.857 301.742 102.348 302.138 102.348 303.046C102.348 303.953 102.857 304.973 103.649 305.426ZM103.649 299.871C105.74 301.061 107.267 303.669 107.267 305.937C107.267 308.204 105.74 308.998 103.649 307.807C101.613 306.617 100.087 304.066 100.087 301.798C100.031 299.474 101.613 298.68 103.649 299.871Z" fill="#623B2A"/>
<path d="M60.6282 290.46C61.9285 291.197 62.833 290.63 62.833 289.157C62.833 287.683 61.9285 286.039 60.6282 285.302C59.328 284.565 58.48 285.132 58.48 286.662C58.4235 288.079 59.328 289.723 60.6282 290.46ZM60.6282 283.941C62.6634 285.132 64.0767 287.626 64.0767 289.893C64.0767 292.161 62.6634 293.011 60.6282 291.821C58.5931 290.63 57.1798 288.136 57.1798 285.869C57.1798 283.658 58.5931 282.751 60.6282 283.941Z" fill="#623B2A"/>
<path d="M89.7986 302.082C90.9858 302.762 91.5511 304.009 91.6641 305.2L87.9331 303.045C88.1027 301.968 88.8376 301.515 89.7986 302.082ZM92.8513 307.07C92.8513 306.9 92.8513 306.787 92.8513 306.617C92.8513 304.349 91.8337 302.082 89.6855 300.835C87.8765 299.757 86.5763 300.721 86.5763 302.989C86.5763 303.159 86.5763 303.329 86.5763 303.442C86.7459 305.483 87.8765 307.581 90.1378 308.884C91.2119 309.508 92.1729 309.678 92.8513 309.451L92.3425 308.091C91.8337 308.261 91.0988 308.204 90.1943 307.694C88.781 306.9 88.1027 305.596 87.9896 304.236L92.8513 307.07Z" fill="#623B2A"/>
<path d="M98.504 306.107V309.168L95.0556 307.184V304.122L93.7554 303.385V310.868L95.0556 311.605V308.317L98.504 310.302V313.59L99.8043 314.327V306.844L98.504 306.107Z" fill="#623B2A"/>
<path d="M106.589 310.755L100.709 307.354V308.658L103.027 309.961V316.141L104.327 316.878V310.755L106.645 312.116V310.755H106.589Z" fill="#623B2A"/>
<path d="M114.785 315.517L113.485 314.78V322.263L114.785 323V315.517Z" fill="#623B2A"/>
<path d="M67.8075 291.877V291.821C67.8075 291.821 67.9206 291.821 68.0337 291.764C68.1467 291.707 70.5211 289.893 70.5211 289.893L69.0512 289.043L66.79 290.8L66.2812 290.517V287.456L64.981 286.719V294.202L66.2812 294.939V291.651L66.8465 291.991L69.2774 296.696L70.8603 297.603C70.8603 297.603 68.0902 292.444 67.9771 292.218C67.9206 291.991 67.8075 291.877 67.8075 291.877Z" fill="#623B2A"/>
<path d="M109.528 318.805C109.132 318.578 108.737 318.352 108.737 318.352V315.63C108.737 315.63 109.019 315.687 109.528 315.971C110.602 316.594 111.054 317.331 111.054 318.238C111.111 319.202 110.659 319.485 109.528 318.805ZM109.754 314.893C109.132 314.553 108.737 314.383 108.737 314.383V312.002L107.436 311.265V318.748C107.436 318.748 108.511 319.485 109.585 320.109C111.62 321.299 112.298 320.222 112.298 318.918C112.355 317.615 111.733 316.027 109.754 314.893Z" fill="#623B2A"/>
<path d="M53.2225 286.152C51.9223 285.415 51.2439 283.884 51.2439 282.467C51.2439 280.993 52.0353 280.313 53.279 281.05C54.0139 281.447 54.975 282.807 54.975 284.168V286.208C54.5793 286.605 53.9574 286.605 53.2225 286.152ZM55.0315 280.936L54.975 281.843L54.9185 281.787C54.5227 280.823 53.6748 279.916 53.0529 279.576C51.1874 278.442 50.0567 279.519 50.0002 281.73C49.9437 283.941 51.0743 286.265 52.9964 287.399C53.8443 287.909 54.4097 287.909 54.9185 287.512L54.975 287.569V288.249C54.975 289.723 54.127 289.78 53.1094 289.213C52.2615 288.646 51.5265 287.852 51.1308 287.342L50.6786 288.306C51.0743 288.816 51.8657 289.78 53.1094 290.517C54.9185 291.537 56.2187 291.084 56.2187 288.703V281.617L55.0315 280.936Z" fill="#623B2A"/>
<path d="M76.0046 293.068V298.51C75.6089 298.85 75.0436 298.85 74.3087 298.397C73.1215 297.716 72.5562 296.299 72.6127 294.882V291.141L71.369 290.404V294.145C71.3125 296.356 72.1039 298.51 73.9695 299.587C74.8175 300.097 75.4393 300.154 75.8916 299.701L75.9481 299.757V300.438C75.9481 301.912 75.1001 301.968 74.0826 301.401C73.178 300.891 72.4997 300.097 72.0474 299.531L71.6517 300.494C72.0474 301.004 72.8389 301.968 74.0826 302.705C75.8916 303.726 77.1918 303.272 77.1918 300.891V293.805L76.0046 293.068Z" fill="#623B2A"/>
<path d="M84.4842 297.943C84.4842 297.943 82.336 300.154 82.2794 300.268C82.2229 300.324 82.2229 300.438 82.2229 300.438H82.1664C82.1664 300.438 82.1664 300.324 82.0533 300.154C81.9968 299.984 79.679 295.222 79.679 295.222L78.4918 294.542V302.025L79.7921 302.762V297.943C79.7921 297.603 79.7355 297.376 79.7355 297.376L79.7921 297.433L82.1664 302.478L82.2229 302.535L84.4277 300.098L84.4842 300.154C84.4842 300.154 84.4277 300.324 84.4277 300.608V305.37L85.7279 306.107V298.68L84.4842 297.943Z" fill="#623B2A"/>
<path d="M97.43 296.469C97.43 296.469 95.621 298.17 95.5644 298.227C95.5079 298.283 95.4514 298.34 95.4514 298.34L95.3383 298.283C95.3383 298.283 95.3383 298.17 95.2252 298.057C95.1122 297.773 93.1901 294.088 93.1901 294.088L91.4941 293.125V300.608L93.5858 301.798V298.624C93.5858 298.283 93.5293 298.057 93.5293 298.057L93.6423 298.113L95.3383 301.345L95.4514 301.401L97.0342 300.041L97.1473 300.098C97.1473 300.098 97.0908 300.268 97.0908 300.608V303.726L99.1824 304.916V297.433L97.43 296.469Z" fill="#623B2A"/>
<path d="M111.054 288.816V281.22L105.91 278.215V285.812C105.91 288.476 107.153 291.651 109.132 294.202L114.955 301.458V294.542L111.732 290.517C111.337 290.007 111.054 289.383 111.054 288.816Z" fill="#C79B65"/>
<path d="M114.955 298.453L120.777 297.943C122.756 297.773 124 296.016 124 293.351V278.272L114.955 273.057V279.066L118.855 281.333V290.404C118.855 290.914 118.629 291.311 118.234 291.311L115.011 291.594L114.955 298.453Z" fill="#E04E39"/>
<path d="M114.955 273L105.91 278.272L114.955 283.488V273Z" fill="#623B2A"/>
</g>
<defs>
<clipPath id="clip0">
<rect width="74" height="50" fill="white" transform="translate(50 273)"/>
</clipPath>
</defs>
</svg>
