<svg width="694" height="577" viewBox="0 0 694 577" fill="none" xmlns="http://www.w3.org/2000/svg">
<path d="M358.062 271.374C358.062 271.374 358.588 274.536 359.641 277.697C360.695 280.859 359.641 285.601 359.641 285.601C359.641 285.601 359.115 287.709 355.956 288.236C352.796 288.763 350.69 288.236 350.69 288.236C350.69 288.236 348.057 291.925 344.371 294.559C340.685 297.194 332.261 299.302 330.154 298.775C326.468 298.248 324.362 295.613 324.889 293.506C325.415 291.925 329.628 286.655 332.787 284.548C334.893 282.967 340.159 278.224 341.739 276.644C344.371 274.009 345.951 270.847 345.951 270.847L358.062 271.374Z" fill="#704232"/>
<path d="M398.606 291.399C398.606 291.399 400.712 298.777 400.185 302.992C400.185 307.208 399.132 308.262 397.552 309.842C396.499 311.423 394.92 310.896 394.92 310.896C394.92 310.896 394.393 319.854 390.181 323.543C385.968 327.231 378.07 327.758 374.911 326.178C371.225 325.124 373.857 318.273 377.017 311.95C380.703 305.627 384.915 298.777 385.968 293.507C394.393 291.926 398.606 291.399 398.606 291.399Z" fill="#704232"/>
<path d="M335.946 232.909C333.84 219.209 330.681 220.263 331.207 207.616C331.207 201.293 333.313 187.065 338.052 157.557C340.159 142.275 343.845 139.641 349.11 130.156C349.637 129.102 364.907 137.006 372.279 140.694C372.805 141.221 379.124 157.557 376.491 170.203C375.438 174.946 363.327 208.67 357.535 214.993C362.8 227.64 367.54 239.759 363.327 274.01C359.641 278.753 349.637 279.28 343.318 275.591C342.791 268.214 337.526 241.867 335.946 232.909Z" fill="url(#paint0_linear)"/>
<path d="M362.794 169.676C353.842 159.137 355.948 150.706 360.161 138.06C360.161 137.533 396.493 132.263 397.02 133.317C410.71 157.557 407.024 196.55 397.02 220.263C399.126 230.274 403.865 275.064 403.338 291.399C396.493 296.142 385.436 299.304 381.223 291.399C377.537 268.741 372.798 247.663 374.378 228.167C372.272 220.789 363.847 186.538 362.794 169.676Z" fill="url(#paint1_linear)"/>
<path d="M294.871 98.5386C300.663 91.6884 316.986 83.2573 321.199 82.2034C321.199 82.2034 326.464 73.2454 328.571 68.503C330.677 64.2874 332.256 53.7486 335.942 47.4253C340.155 40.0482 344.367 38.4673 350.686 36.3596C352.266 35.8326 354.372 35.8326 355.425 37.4135C357.005 39.5212 357.005 43.2098 357.005 45.8445C357.005 50.06 357.005 54.2756 357.005 58.4911C357.005 63.7605 349.106 75.8801 347.527 77.9879C345.947 80.6226 341.734 90.1075 340.681 93.2692C340.155 94.85 338.049 98.0116 331.73 100.646C329.624 101.7 309.615 111.712 299.083 113.82C299.083 110.658 295.924 103.281 294.871 98.5386Z" fill="#704232"/>
<path d="M355.947 42.6837C364.899 38.9951 375.43 43.7376 374.903 43.2106C374.377 42.6837 387.014 50.0608 387.014 50.0608C395.966 53.2225 404.917 55.8572 410.183 67.9768C412.815 73.7732 403.337 86.4198 399.651 103.282C398.072 110.659 397.545 121.725 400.705 126.467C402.811 130.156 407.023 135.425 394.386 139.114C390.7 140.168 373.324 147.018 363.319 144.91C358.58 143.856 336.465 131.737 343.31 126.994C344.89 125.94 346.469 123.306 345.416 121.198C344.363 119.09 342.257 115.928 343.31 112.24C345.416 102.755 343.837 99.0663 342.257 92.2161C335.938 85.3659 341.73 75.354 345.416 64.2882C348.049 56.9111 346.996 46.8992 355.947 42.6837Z" fill="white"/>
<path d="M358.056 41.1023C358.056 41.1023 358.056 40.5753 358.056 41.1023C363.322 41.6292 370.167 38.4676 374.379 35.3059C377.012 41.1023 377.539 43.737 381.224 49.5333C379.118 49.5333 375.432 54.8027 372.273 60.5991C370.693 63.2338 364.901 69.0301 361.215 67.9762C355.423 65.8685 358.583 61.126 358.056 54.8027C358.056 50.0602 358.056 45.3178 358.056 41.1023Z" fill="#FFB9A4"/>
<path d="M353.845 87.4717C354.898 82.2023 356.478 77.4598 357.531 74.2982C357.531 73.7713 355.951 67.448 355.951 67.448L361.744 65.3402L364.903 69.0288C364.903 69.0288 362.797 73.2443 360.69 74.8251C360.69 80.6215 361.217 91.1603 361.217 100.645C361.217 115.927 361.217 126.992 361.217 126.992C361.217 126.992 357.531 132.262 353.845 134.369C351.212 129.627 350.159 123.831 350.159 123.831C350.159 123.831 352.266 96.4297 353.845 87.4717Z" fill="#E04E39"/>
<path d="M385.44 49.532C385.44 49.532 375.962 53.7475 372.276 56.9092C367.011 61.1247 364.378 62.7055 361.745 64.8133C361.745 64.2863 360.692 52.1667 360.692 52.1667L356.48 52.6936C356.48 52.6936 353.847 55.3283 352.794 60.0708C351.741 64.8133 353.32 70.6096 353.32 70.6096L360.692 66.3941L365.431 75.3521C365.431 75.3521 375.436 66.921 379.648 61.6516C384.914 56.3822 385.44 49.532 385.44 49.532Z" fill="white"/>
<path d="M357.533 42.6828C357.533 42.6828 349.108 42.1558 344.895 51.6407C340.683 61.1257 338.05 72.7184 337.524 87.4727C337.524 98.0115 339.63 111.712 338.05 119.089C336.471 125.412 328.046 149.125 328.046 149.125C328.046 149.125 328.572 158.61 331.732 162.825C335.944 167.568 340.156 167.568 340.156 167.568C340.156 167.568 345.422 138.586 345.949 133.843C346.475 129.101 348.055 104.862 347.528 97.4846C347.002 90.1074 351.214 66.3951 352.794 61.1257C354.373 55.8563 364.378 44.7905 364.378 44.7905L357.533 42.6828Z" fill="url(#paint2_linear)"/>
<path d="M359.109 50.5865C359.109 50.5865 356.477 54.275 353.844 60.0714C351.738 65.8677 350.684 77.9874 350.158 84.8376C349.631 92.2148 348.052 99.065 348.052 99.065C348.052 99.065 345.419 91.1609 344.892 85.8915C344.366 80.6221 343.839 76.4065 343.839 76.4065L346.999 73.7718L343.313 65.3408C343.313 65.3408 352.264 45.844 355.95 44.2632C360.162 43.7362 359.109 50.5865 359.109 50.5865Z" fill="#704232"/>
<path d="M381.753 46.8973C381.753 46.8973 371.222 61.1247 368.062 80.6215C364.903 100.118 367.009 120.142 368.062 134.369C369.642 151.759 370.695 177.052 370.695 177.052C370.695 177.052 388.071 179.686 398.076 178.106C408.607 175.998 412.293 165.459 412.293 165.459C412.293 165.459 412.293 143.854 403.341 118.034C400.182 109.603 402.288 91.1604 405.974 80.0946C407.554 73.7713 404.395 61.1247 399.129 55.3284C395.443 51.6398 386.492 50.059 381.753 46.8973Z" fill="url(#paint3_linear)"/>
<path d="M378.065 44.2626C378.065 44.2626 384.384 44.7895 386.49 49.532C385.437 52.1667 382.804 55.3283 381.751 61.1247C380.698 66.921 381.224 73.7713 381.224 73.7713L374.379 76.9329L378.065 83.7831L365.954 99.5913C365.954 99.5913 364.375 79.0407 369.114 64.2863C373.853 49.532 378.065 44.2626 378.065 44.2626Z" fill="#704232"/>
<path d="M347.53 18.9713C352.269 13.175 362.8 11.5941 369.646 15.8097C371.225 16.3366 372.805 16.8635 373.858 17.9174C378.071 21.606 377.544 28.4562 376.491 33.7256C374.385 41.6297 363.854 59.0188 353.849 52.1686C348.583 48.48 344.898 40.0489 344.371 33.7256C342.791 28.9832 343.844 23.1868 347.53 18.9713Z" fill="#FFC9B6"/>
<path d="M340.683 7.90472C343.843 3.16225 352.794 -2.10716 358.06 1.05449C360.166 2.10837 361.219 4.21613 361.219 6.3239C366.484 5.27001 376.489 8.9586 379.122 13.7011C383.334 21.6052 380.175 35.3056 376.489 39.5212C372.803 36.3595 367.011 28.9823 365.431 22.6591C359.113 25.8207 350.688 25.8207 344.369 22.6591C339.104 18.9705 336.997 12.6472 340.683 7.90472Z" fill="#704232"/>
<path d="M367.011 30.036C367.011 30.036 370.17 24.7666 372.803 28.4551C377.015 34.2515 370.697 36.8862 370.697 36.8862L367.011 30.036Z" fill="#FFC9B6"/>
<path d="M382.806 133.843C384.385 129.627 390.704 121.723 394.916 116.981C393.337 108.55 391.231 95.9033 389.651 90.6339C387.018 81.149 393.337 56.9097 399.129 55.3289C407.027 57.9636 411.766 60.0713 415.452 74.2987C419.138 87.4722 416.505 110.658 414.926 123.831C414.399 126.466 417.558 126.993 405.974 140.693C398.602 149.651 391.757 151.759 391.757 151.759L380.699 142.274C380.699 141.747 379.12 142.801 382.806 133.843Z" fill="#704232"/>
<path d="M380.695 141.747C380.695 141.747 383.855 138.586 388.594 142.801C391.753 145.436 392.28 149.125 391.753 151.232C389.647 152.286 387.014 154.394 385.961 157.029C382.802 162.825 380.695 171.783 377.536 175.999C373.324 181.795 369.638 178.633 367.532 175.472C365.425 172.31 367.005 168.094 368.585 164.933C370.164 161.244 371.217 158.61 369.638 158.61C368.585 158.61 365.952 161.771 363.319 161.771C360.686 161.771 360.686 159.663 364.372 157.556C366.478 156.502 366.478 154.394 370.164 152.286C372.797 150.705 374.377 151.232 375.43 150.705C377.536 147.017 379.642 143.855 380.695 141.747Z" fill="#FFC9B6"/>
<path d="M72.6663 154.92L76.3522 152.812C142.698 76.4058 270.651 99.5912 349.634 145.435L480.22 242.919L432.83 270.32L297.505 192.333C248.536 163.878 173.765 160.716 131.114 185.483L128.481 187.063C85.8302 211.83 91.6223 255.039 140.592 283.494L275.917 360.954L228.527 388.355L91.0957 308.787C13.1655 263.47 4.21411 194.441 72.6663 154.92Z" fill="#F17757"/>
<path d="M229.057 330.92V388.356L26.3327 221.843V161.772L229.057 330.92Z" fill="#E04E39"/>
<path d="M72.6663 97.484L76.3522 95.3763C144.278 55.8557 264.332 61.1251 343.316 106.442L480.22 186.01L432.83 213.411L297.505 135.424C248.536 106.969 173.765 103.807 131.114 128.574L128.481 130.154C85.8302 154.921 91.6223 198.13 140.592 226.584L275.917 304.045L228.527 331.446L91.0957 251.878C13.1656 206.561 4.21411 137.005 72.6663 97.484Z" fill="#F49678"/>
<path d="M275.913 304.046V360.955L229.05 388.356V330.92L275.913 304.046Z" fill="#EFE8EB"/>
<path d="M480.22 186.009V242.919L432.83 270.32V213.41L480.22 186.009Z" fill="#EFE8EB"/>
<path d="M480.22 186.01L428.618 155.975L381.228 183.376L432.83 213.411L480.22 186.01Z" fill="white"/>
<path d="M381.228 183.375L432.83 213.41V270.32L381.228 240.284V183.375Z" fill="#E0D1DB"/>
<path d="M275.913 304.045L224.311 274.009L176.921 301.41L229.05 331.446L275.913 304.045Z" fill="white"/>
<path d="M176.928 301.411L229.057 331.447V388.356L176.928 358.32V301.411Z" fill="#E0D1DB"/>
<path d="M471.792 217.1L522.341 230.801L509.177 238.178L536.558 253.459L488.115 240.286L500.753 232.909L471.792 217.1Z" fill="#CFA580"/>
<path d="M471.789 210.776V217.1L500.749 232.908V226.058L471.789 210.776Z" fill="#CFA580"/>
<path d="M488.115 233.434V240.284L536.558 253.458V246.607L488.115 233.434Z" fill="#CFA580"/>
<path d="M522.345 223.95V230.8L509.181 238.177V231.327L522.345 223.95Z" fill="#CFA580"/>
<path d="M471.792 210.776L522.341 223.95L509.177 231.327L536.558 246.608L488.115 233.435L500.753 226.058L471.792 210.776Z" fill="#D8B89A"/>
<path d="M439.675 235.541L489.698 248.715L477.061 256.092L503.915 271.9L455.472 258.2L468.109 250.823L439.675 235.541Z" fill="#CFA580"/>
<path d="M439.672 228.692V235.542L468.106 250.823V244.5L439.672 228.692Z" fill="#CFA580"/>
<path d="M455.472 251.877V258.2L503.915 271.901V265.05L455.472 251.877Z" fill="#CFA580"/>
<path d="M489.701 241.865V248.716L477.064 256.093V249.243L489.701 241.865Z" fill="#CFA580"/>
<path d="M439.675 228.692L489.698 241.865L477.061 249.243L503.915 265.051L455.472 251.877L468.109 244.5L439.675 228.692Z" fill="#D8B89A"/>
<path d="M268.02 335.135L318.043 348.308L305.405 355.685L332.26 371.494L283.817 358.32L296.454 350.943L268.02 335.135Z" fill="#CFA580"/>
<path d="M268.017 328.285V335.136L296.451 350.944V344.094L268.017 328.285Z" fill="#CFA580"/>
<path d="M283.817 351.47V358.32L332.26 371.494V364.644L283.817 351.47Z" fill="#CFA580"/>
<path d="M318.046 341.459V348.309L305.409 355.686V348.836L318.046 341.459Z" fill="#CFA580"/>
<path d="M268.02 328.285L318.043 341.459L305.405 348.836L332.26 364.644L283.817 351.471L296.454 344.094L268.02 328.285Z" fill="#D8B89A"/>
<path d="M235.367 353.578L285.916 366.751L273.279 374.128L300.133 389.41L251.69 376.236L264.327 368.859L235.367 353.578Z" fill="#CFA580"/>
<path d="M235.364 346.728V353.578L264.324 368.86V362.01L235.364 346.728Z" fill="#CFA580"/>
<path d="M251.69 369.386V376.236L300.133 389.41V383.086L251.69 369.386Z" fill="#CFA580"/>
<path d="M285.92 359.902V366.752L273.282 374.129V367.279L285.92 359.902Z" fill="#CFA580"/>
<path d="M235.367 346.728L285.916 359.902L273.279 367.279L300.133 383.087L251.69 369.387L264.327 362.01L235.367 346.728Z" fill="#D8B89A"/>
<path d="M19.4793 428.93C18.9527 422.606 18.4261 415.229 16.8465 407.852C14.2137 394.679 11.0544 375.182 20.0058 366.224C10.0013 340.931 13.6872 327.23 15.2669 319.326C0.52335 303.518 14.7403 287.183 21.5855 281.913C25.2714 286.656 47.9132 295.614 47.9132 296.141C50.546 307.733 47.9132 319.853 44.7539 330.919C42.6477 337.769 40.5415 349.362 35.8025 368.859C37.9087 378.343 35.2759 392.571 34.7494 403.11C34.2228 410.487 34.2228 418.918 33.1697 426.822C31.0635 429.457 26.851 432.091 19.4793 428.93Z" fill="url(#paint4_linear)"/>
<path d="M45.2814 427.875C50.5469 429.983 51.6 431.564 50.5469 434.726C48.4407 439.468 43.7017 442.63 38.9627 443.157C32.1175 444.738 28.4316 452.642 21.0598 445.265C18.9536 443.157 19.4802 439.995 20.0067 436.833C20.0067 434.726 19.4801 430.51 19.4801 428.402C26.8519 431.037 30.5378 428.929 32.6441 426.295C32.1175 427.876 32.1175 429.983 31.5909 431.564C34.7502 431.564 42.1221 426.822 45.2814 427.875Z" fill="#FFB9A4"/>
<path d="M20.0116 436.308C20.0116 436.308 24.2241 437.889 26.8569 438.943C29.4896 439.996 36.3349 439.996 41.0739 435.254C44.7597 431.565 38.9676 428.931 38.9676 428.931C38.9676 428.931 48.4456 423.134 54.7643 425.769C57.9236 426.823 57.9236 432.092 56.344 435.254C54.7643 438.416 48.4456 442.631 45.2863 443.158C42.6535 443.685 35.8083 445.266 33.7021 446.32C29.4896 448.954 24.7506 452.116 20.0116 447.901C16.3257 443.158 20.0116 436.308 20.0116 436.308Z" fill="#261822"/>
<g filter="url(#filter0_d)">
<path d="M44.2331 444.211C43.7065 437.888 43.18 430.511 41.6003 423.133C38.9675 409.96 35.8082 390.463 44.7596 381.505C34.7551 356.212 33.702 336.715 35.2817 328.811C17.9053 315.637 24.224 297.194 31.5957 292.452C35.2816 297.194 60.0298 289.817 62.6625 297.195C67.4015 311.949 67.4016 317.218 66.3485 336.715C66.3485 344.092 65.2953 364.643 60.0298 383.613C62.136 393.098 59.5032 407.325 58.9767 417.864C58.4501 425.241 58.4501 433.672 57.397 441.576C55.2908 444.738 51.0783 446.846 44.2331 444.211Z" fill="url(#paint5_linear)"/>
</g>
<path d="M70.0345 443.156C75.3001 445.264 76.3532 446.845 75.3001 450.006C73.1938 454.749 68.4549 457.911 63.7158 458.438C56.8706 460.018 53.1847 467.395 45.8129 459.491C43.7067 457.384 44.2333 454.749 44.7598 452.114C44.7598 450.006 44.2333 445.791 44.2333 443.683C51.605 446.318 55.2909 444.21 57.3972 441.575C56.8706 443.156 56.8706 445.264 56.3441 446.845C58.9768 446.845 66.3486 442.102 70.0345 443.156Z" fill="#FFB9A4"/>
<path d="M44.7565 451.589C44.7565 451.589 48.9689 453.17 51.6017 454.223C54.2345 455.277 61.0797 455.277 65.8187 450.535C69.5045 446.846 63.7125 444.212 63.7125 444.212C63.7125 444.212 73.1905 438.415 79.5091 441.05C82.6685 442.104 82.6684 447.373 81.0888 450.535C79.5091 453.697 73.1905 457.912 70.0311 458.439C66.8718 458.966 60.5531 460.547 58.4469 461.601C54.2345 464.235 49.4955 467.397 44.7565 463.181C40.544 458.439 44.7565 451.589 44.7565 451.589Z" fill="#261822"/>
<path d="M15.2742 214.467C22.1194 212.359 30.0176 216.047 30.0176 222.371C33.7035 228.694 30.0177 237.652 24.2256 241.867C17.3804 246.61 7.37584 241.867 5.26962 234.49C3.16341 227.113 7.37589 217.101 15.2742 214.467Z" fill="#EFE8EB"/>
<path d="M15.7992 225.531C15.7992 225.004 16.3258 224.477 16.8523 224.477C24.7507 222.369 26.3304 218.154 27.91 211.304C27.91 210.25 29.4897 209.723 30.0162 210.25C34.2287 212.884 38.4411 214.465 43.1801 216.046C38.9677 229.22 46.866 231.854 50.0253 237.124C51.0784 238.178 42.127 245.028 36.8614 244.501C32.649 243.974 28.4366 242.393 25.2772 240.285C21.5914 237.124 14.7461 230.8 15.7992 225.531Z" fill="#FFC9B6"/>
<path d="M26.8505 196.022C27.3771 189.172 33.1692 180.214 40.541 180.741C48.4393 181.268 53.1783 192.861 54.2314 198.13C55.2845 207.088 54.2314 223.95 40.541 218.681C28.9568 214.465 25.7974 206.034 26.8505 196.022Z" fill="#FFC9B6"/>
<path d="M15.2719 182.849C18.9578 175.472 26.8561 168.622 38.4403 173.891C45.8121 171.256 56.8698 175.472 58.976 183.903C56.3432 190.753 52.1307 198.13 47.3917 195.496C47.9183 203.927 36.8606 215.519 29.4889 215.519C26.8561 209.723 21.0639 209.723 16.8515 201.819C14.7453 197.603 13.1657 187.065 15.2719 182.849Z" fill="#261822"/>
<path d="M47.3866 200.764C47.3866 200.764 41.5946 197.076 41.068 202.345C40.0149 208.142 45.807 209.722 45.807 209.722L47.3866 200.764Z" fill="#FFC9B6"/>
<path d="M17.9067 175.472C22.6457 173.365 25.805 173.365 29.4908 175.999C33.7033 179.161 32.1236 191.808 25.2784 193.388C21.066 194.442 15.2739 193.388 13.1677 189.173C10.5349 184.43 11.0615 178.634 17.9067 175.472Z" fill="#E04E39"/>
<path d="M11.5859 252.406C6.84689 237.125 9.47967 227.113 14.2187 222.37C15.7983 220.263 20.0108 216.047 24.7498 220.263C23.1701 227.113 35.2809 229.221 43.7058 229.221C50.0244 233.963 56.3431 237.652 60.029 243.975C64.2414 250.825 65.8211 258.202 57.3962 263.472C60.029 271.376 60.029 281.915 64.2414 301.938C56.3431 308.262 41.073 308.789 31.595 305.1C21.5905 300.885 13.6921 295.088 14.2187 290.346C16.3249 285.603 22.117 281.388 22.117 275.591C21.5905 267.687 13.6921 259.256 11.5859 252.406Z" fill="white"/>
<path d="M114.789 324.595C114.789 324.595 115.843 325.122 116.896 324.595C117.422 324.068 116.369 321.961 112.157 318.799C107.418 315.637 105.311 313.53 105.838 311.949C105.838 310.368 109.524 309.841 110.577 307.206C111.63 305.099 111.104 304.045 108.997 305.099C106.891 306.679 104.258 307.206 101.099 306.679C97.9396 306.679 95.8334 306.679 88.4616 299.302C83.1961 294.033 76.3508 287.71 72.1384 282.967C71.0853 278.225 66.8729 267.159 66.3463 263.997C65.8197 259.782 63.7135 255.039 61.6073 251.351C59.5011 247.135 44.2309 247.135 43.7044 256.62C43.7044 265.051 43.1778 265.051 47.3903 271.901C54.2355 282.967 58.9745 286.656 62.1338 291.398C63.7135 293.506 67.3994 297.194 70.5587 300.356C76.8774 305.626 88.4616 310.368 91.0944 312.476C93.7272 315.11 97.4131 319.326 103.732 324.068C106.365 326.176 110.05 326.703 110.05 326.703C110.05 326.703 110.577 326.703 112.157 327.23C113.736 327.757 112.683 325.649 112.683 325.649C112.683 325.649 114.263 326.176 115.316 325.649C116.369 326.176 114.789 324.595 114.789 324.595Z" fill="#FFC9B6"/>
<path d="M57.3917 237.124C66.8697 241.867 68.976 257.675 66.3432 266.106C67.9229 269.795 57.9183 278.226 48.9669 275.064C39.4889 274.01 33.1702 259.783 37.3827 247.663C40.542 238.705 50.02 233.436 57.3917 237.124Z" fill="#EFE8EB"/>
<path d="M66.346 266.632L67.3991 270.848C67.3991 270.848 67.3991 274.01 61.607 277.171C55.8149 279.806 50.5493 278.752 50.5493 278.752L48.9697 275.59C48.9697 275.59 55.2883 275.59 59.5008 273.483C64.2398 270.848 66.346 266.632 66.346 266.632Z" fill="white"/>
<path d="M24.7498 177.053C28.4357 181.795 26.856 187.065 24.7498 191.28C23.6967 193.388 11.5859 197.604 14.2187 206.035C15.7983 211.831 20.5374 220.262 20.0108 230.801C19.4843 241.34 8.95313 237.651 8.95313 237.651C8.95313 237.651 15.2718 234.489 11.5859 228.693C7.90002 222.897 -2.10448 206.562 0.528296 191.28C3.68763 176.526 17.378 168.622 24.7498 177.053Z" fill="#352322"/>
<path d="M640.818 339.877C647.663 343.566 672.938 357.793 683.469 365.17C685.049 366.224 683.996 367.805 682.416 367.278C671.885 362.009 646.61 346.2 640.291 341.458C638.712 340.931 639.765 339.35 640.818 339.877Z" fill="#EEE2D6"/>
<path d="M648.719 425.768C662.936 431.565 676.627 438.415 689.791 446.319C690.317 446.846 689.791 447.373 689.264 447.373C675.047 442.104 660.83 435.253 647.666 427.876C646.613 427.349 647.666 425.241 648.719 425.768Z" fill="#EEE2D6"/>
<path d="M538.143 462.654C552.36 468.451 566.05 475.301 579.214 483.205C579.741 483.732 579.214 484.259 578.688 484.259C564.471 478.989 550.254 472.139 537.09 464.762C536.037 464.235 536.563 462.127 538.143 462.654Z" fill="#EEE2D6"/>
<path d="M654.508 416.811C666.092 421.026 677.677 427.35 688.208 433.146C688.734 433.146 688.208 434.2 687.681 433.673C676.097 429.458 664.513 424.715 653.455 418.392C652.929 417.865 653.455 416.284 654.508 416.811Z" fill="#EEE2D6"/>
<path d="M555.513 538.535C567.097 542.75 578.681 549.073 589.212 554.87C589.739 554.87 589.212 555.924 588.686 555.397C577.101 551.181 565.517 546.439 554.459 540.115C553.933 539.589 554.459 538.008 555.513 538.535Z" fill="#EEE2D6"/>
<path d="M555.513 529.048C567.097 533.264 578.681 539.587 589.212 545.384C589.739 545.384 589.212 546.437 588.686 545.91C577.101 541.695 565.517 536.953 554.459 530.629C553.933 530.102 554.459 528.521 555.513 529.048Z" fill="#EEE2D6"/>
<path d="M455.467 400.475C467.051 404.691 478.635 411.014 489.167 416.811C489.693 416.811 489.167 417.864 488.64 417.338C477.056 413.122 465.472 408.38 454.414 402.056C453.887 401.529 454.414 399.948 455.467 400.475Z" fill="#EEE2D6"/>
<path d="M452.309 408.907C463.894 413.122 475.478 419.446 486.009 425.242C486.535 425.242 486.009 426.296 485.482 425.769C473.898 421.553 462.314 416.811 451.256 410.488C450.73 409.961 451.256 408.38 452.309 408.907Z" fill="#EEE2D6"/>
<path d="M546.564 457.911C558.149 462.127 569.733 468.45 580.264 474.247C580.791 474.247 580.264 475.3 579.737 474.774C568.153 470.558 556.569 465.816 545.511 459.492C544.985 458.965 545.511 457.385 546.564 457.911Z" fill="#EEE2D6"/>
<path d="M414.402 491.109C428.093 499.013 442.836 506.917 455.474 516.402C456 516.929 455.474 517.456 454.947 517.456C440.73 510.606 427.04 501.121 413.876 492.163C413.349 491.636 413.876 490.582 414.402 491.109Z" fill="#EEE2D6"/>
<path d="M530.238 350.943C544.981 357.266 560.251 364.116 573.415 372.021C573.942 372.547 573.415 373.074 572.889 373.074C558.145 367.278 543.402 359.374 529.711 351.997C529.185 351.47 529.711 350.943 530.238 350.943Z" fill="#EEE2D6"/>
<path d="M421.772 480.571C435.989 487.421 450.206 495.325 463.897 503.756C464.423 504.283 463.897 505.337 463.37 504.81C449.153 497.96 434.936 490.056 421.246 481.625C420.719 481.098 421.246 480.571 421.772 480.571Z" fill="#EEE2D6"/>
<path d="M522.868 361.481C537.085 368.332 551.302 376.236 564.992 384.667C565.519 385.194 564.992 386.248 564.466 385.721C550.249 378.87 536.032 370.966 522.341 362.535C521.815 362.008 522.341 360.954 522.868 361.481Z" fill="#EEE2D6"/>
<path d="M651.349 333.027C665.566 339.878 679.783 347.782 693.473 356.213C694 356.74 693.473 357.794 692.947 357.267C678.73 350.416 664.513 342.512 650.822 334.081C650.822 333.554 650.822 333.027 651.349 333.027Z" fill="#EEE2D6"/>
<path d="M366.82 404.701C361.177 405.439 359.588 403.028 359.588 400.447C359.588 398.462 360.553 396.647 362.368 395.598C363.389 395.002 365.204 394.974 366.848 396.619V390.181C365.374 389.33 363.587 389.075 361.262 390.408C357.518 392.507 354.625 397.696 354.484 402.149C354.313 408.927 358.369 412.245 366.792 410.572L366.82 404.701Z" fill="#ED5338"/>
<path d="M366.82 402.404C371.074 398.718 374.051 394.492 374.051 391.741C374.051 390.21 373.314 389.217 371.499 390.266C370.478 390.862 368.351 393.102 366.82 396.562V390.125C368.294 387.572 370.081 385.247 372.407 383.914C376.122 381.759 379.128 383.545 379.128 387.913C379.128 393.67 375.583 400.306 366.791 408.076L366.82 402.404Z" fill="#C59368"/>
<path d="M559.342 264.701C553.698 265.439 552.11 263.028 552.11 260.447C552.11 258.462 553.074 256.647 554.889 255.598C555.91 255.002 557.725 254.974 559.37 256.619V250.181C557.895 249.33 556.109 249.075 553.783 250.408C550.04 252.507 547.147 257.696 547.005 262.149C546.835 268.927 550.89 272.245 559.313 270.572L559.342 264.701Z" fill="#ED5338"/>
<path d="M559.341 262.404C563.595 258.718 566.573 254.492 566.573 251.741C566.573 250.21 565.836 249.217 564.021 250.266C563 250.862 560.873 253.102 559.341 256.562V250.125C560.816 247.572 562.603 245.247 564.928 243.914C568.643 241.759 571.649 243.545 571.649 247.913C571.649 253.67 568.104 260.306 559.313 268.076L559.341 262.404Z" fill="#C59368"/>
<path d="M439.585 411.021C432.974 411.885 431.114 409.061 431.114 406.038C431.114 403.713 432.244 401.587 434.37 400.358C435.565 399.66 437.691 399.627 439.618 401.554V394.013C437.891 393.017 435.798 392.718 433.074 394.279C428.689 396.737 425.301 402.816 425.135 408.031C424.936 415.971 429.686 419.857 439.552 417.897L439.585 411.021Z" fill="#ED5338"/>
<path d="M439.585 408.33C444.568 404.012 448.056 399.062 448.056 395.84C448.056 394.046 447.192 392.884 445.066 394.113C443.871 394.81 441.379 397.435 439.585 401.487V393.947C441.313 390.957 443.406 388.233 446.129 386.672C450.481 384.147 454.002 386.24 454.002 391.356C454.002 398.099 449.85 405.872 439.552 414.974L439.585 408.33Z" fill="#C59368"/>
<path d="M630.739 427.536C617.597 429.253 613.899 423.639 613.899 417.63C613.899 413.007 616.145 408.78 620.371 406.337C622.749 404.95 626.975 404.884 630.805 408.714V393.723C627.371 391.742 623.211 391.148 617.796 394.251C609.078 399.138 602.342 411.224 602.012 421.592C601.616 437.376 611.059 445.102 630.673 441.206L630.739 427.536Z" fill="#ED5338"/>
<path d="M630.742 422.186C640.648 413.601 647.582 403.761 647.582 397.355C647.582 393.789 645.865 391.477 641.638 393.921C639.261 395.308 634.308 400.525 630.742 408.582V393.591C634.176 387.647 638.336 382.232 643.751 379.128C652.403 374.109 659.403 378.269 659.403 388.44C659.403 401.846 651.148 417.299 630.675 435.394L630.742 422.186Z" fill="#C59368"/>
<path d="M396.739 488.536C383.597 490.253 379.899 484.639 379.899 478.63C379.899 474.007 382.145 469.78 386.371 467.337C388.749 465.95 392.975 465.884 396.805 469.714V454.723C393.371 452.742 389.211 452.148 383.796 455.251C375.078 460.138 368.342 472.224 368.012 482.592C367.616 498.376 377.059 506.102 396.673 502.206L396.739 488.536Z" fill="#ED5338"/>
<path d="M396.742 483.186C406.648 474.601 413.582 464.761 413.582 458.355C413.582 454.789 411.865 452.477 407.638 454.921C405.261 456.308 400.308 461.525 396.742 469.582V454.591C400.176 448.647 404.336 443.232 409.751 440.128C418.403 435.109 425.403 439.269 425.403 449.44C425.403 462.846 417.148 478.299 396.675 496.394L396.742 483.186Z" fill="#C59368"/>
<path d="M514.045 503.316C515.749 502.317 517.042 500.083 517.042 498.144C517.042 496.204 515.69 495.44 514.045 496.439C512.34 497.379 511.047 499.672 511.047 501.611C511.047 503.551 512.34 504.256 514.045 503.316ZM534.146 520.184L527.916 496.968L510.224 507.195V519.362L519.922 513.778L523.037 525.357C523.155 525.827 523.096 526.356 522.802 527.002C522.508 527.59 522.097 528.119 521.627 528.354L510.283 534.937V547.162L525.506 538.405C528.327 536.759 530.972 533.762 532.618 530.235C534.322 526.532 534.91 522.888 534.146 520.184Z" fill="#C59368"/>
<path d="M506.462 507.665C508.167 506.666 509.46 504.433 509.46 502.493C509.46 500.553 508.108 499.789 506.462 500.788C504.758 501.788 503.465 504.021 503.465 505.961C503.465 507.9 504.817 508.606 506.462 507.665ZM501.819 524.24L510.283 519.362V507.254L493.767 516.775L486.302 553.04C485.597 556.566 486.126 559.564 487.889 561.151C489.594 562.738 492.239 562.679 495.001 561.092L510.224 552.335V540.168L498.939 546.692C498.469 546.927 497.999 546.986 497.764 546.692C497.47 546.457 497.411 545.928 497.528 545.34L501.819 524.24Z" fill="#ED5338"/>
<path d="M505.045 308.316C506.749 307.317 508.042 305.083 508.042 303.144C508.042 301.204 506.69 300.44 505.045 301.439C503.34 302.379 502.047 304.672 502.047 306.611C502.047 308.551 503.34 309.256 505.045 308.316ZM525.146 325.184L518.916 301.968L501.224 312.195V324.362L510.922 318.778L514.037 330.357C514.155 330.827 514.096 331.356 513.802 332.002C513.508 332.59 513.097 333.119 512.627 333.354L501.283 339.937V352.162L516.506 343.405C519.327 341.759 521.972 338.762 523.618 335.235C525.322 331.532 525.91 327.888 525.146 325.184Z" fill="#C59368"/>
<path d="M497.462 312.665C499.167 311.666 500.46 309.433 500.46 307.493C500.46 305.553 499.108 304.789 497.462 305.788C495.758 306.788 494.465 309.021 494.465 310.961C494.465 312.9 495.817 313.606 497.462 312.665ZM492.819 329.24L501.283 324.362V312.254L484.767 321.775L477.302 358.04C476.597 361.566 477.126 364.564 478.889 366.151C480.594 367.738 483.239 367.679 486.001 366.092L501.224 357.335V345.168L489.939 351.692C489.469 351.927 488.999 351.986 488.764 351.692C488.47 351.457 488.411 350.928 488.528 350.34L492.819 329.24Z" fill="#ED5338"/>
<path d="M546.518 411C543.071 416.313 537.192 421.626 532.727 423.152C526.623 425.244 523.797 419.817 523.288 418.631V435.304C525.718 437.678 530.353 436.604 534.875 433.496L533.236 443.896L523.231 449.661V461.418L542.11 450.452C542.11 450.509 546.575 410.944 546.518 411Z" fill="#C59368"/>
<path d="M511.417 447.005C516.052 444.857 520.744 440.618 523.287 435.248V418.574C522.778 420.326 519.952 429.031 513.848 434.005C509.383 437.622 503.448 439.205 500 437.792L504.352 477.3L523.23 466.448V454.692L513.057 460.57L511.417 447.005Z" fill="#ED5338"/>
<path d="M667.565 238C660.997 248.121 649.799 258.243 641.293 261.15C629.665 265.134 624.281 254.797 623.312 252.536V284.299C627.942 288.822 636.771 286.776 645.385 280.854L642.262 300.666L623.204 311.648V334.044L659.167 313.156C659.167 313.263 667.673 237.892 667.565 238Z" fill="#C59368"/>
<path d="M600.701 306.588C609.53 302.496 618.467 294.421 623.312 284.192V252.429C622.343 255.767 616.959 272.348 605.331 281.823C596.825 288.714 585.519 291.729 578.951 289.037L587.242 364.301L623.204 343.627V321.231L603.823 332.429L600.701 306.588Z" fill="#ED5338"/>
<defs>
<filter id="filter0_d" x="20.1323" y="292.452" width="50.7828" height="160.952" filterUnits="userSpaceOnUse" color-interpolation-filters="sRGB">
<feFlood flood-opacity="0" result="BackgroundImageFix"/>
<feColorMatrix in="SourceAlpha" type="matrix" values="0 0 0 0 0 0 0 0 0 0 0 0 0 0 0 0 0 0 127 0"/>
<feOffset dy="4"/>
<feGaussianBlur stdDeviation="2"/>
<feColorMatrix type="matrix" values="0 0 0 0 0 0 0 0 0 0 0 0 0 0 0 0 0 0 0.09 0"/>
<feBlend mode="normal" in2="BackgroundImageFix" result="effect1_dropShadow"/>
<feBlend mode="normal" in="SourceGraphic" in2="effect1_dropShadow" result="shape"/>
</filter>
<linearGradient id="paint0_linear" x1="341.662" y1="268.353" x2="346.918" y2="126.648" gradientUnits="userSpaceOnUse">
<stop offset="0.00505051" stop-color="#C39367"/>
<stop offset="1" stop-color="#704232"/>
</linearGradient>
<linearGradient id="paint1_linear" x1="367.838" y1="285.57" x2="373.776" y2="129.429" gradientUnits="userSpaceOnUse">
<stop offset="0.00505051" stop-color="#C39367"/>
<stop offset="1" stop-color="#704232"/>
</linearGradient>
<linearGradient id="paint2_linear" x1="336.353" y1="159.414" x2="341.091" y2="39.8204" gradientUnits="userSpaceOnUse">
<stop offset="0.00505051" stop-color="#C39367"/>
<stop offset="1" stop-color="#704232"/>
</linearGradient>
<linearGradient id="paint3_linear" x1="376.888" y1="170.012" x2="381.062" y2="43.8242" gradientUnits="userSpaceOnUse">
<stop offset="0.00505051" stop-color="#C39367"/>
<stop offset="1" stop-color="#704232"/>
</linearGradient>
<linearGradient id="paint4_linear" x1="97.1142" y1="254.677" x2="74.8825" y2="429.996" gradientUnits="userSpaceOnUse">
<stop offset="0.015625" stop-color="#EEE2D6"/>
<stop offset="1" stop-color="#F17757"/>
</linearGradient>
<linearGradient id="paint5_linear" x1="118.166" y1="264.392" x2="95.9866" y2="445.198" gradientUnits="userSpaceOnUse">
<stop offset="0.015625" stop-color="#EEE2D6"/>
<stop offset="1" stop-color="#F17757"/>
</linearGradient>
</defs>
</svg>
