<svg width="40" height="40" viewBox="0 0 40 40" fill="none" xmlns="http://www.w3.org/2000/svg">
<rect width="40" height="40" rx="6" fill="#E04E39"/>
<path fill-rule="evenodd" clip-rule="evenodd" d="M20.7143 8C17.5327 8 17.1344 8.01406 15.8845 8.07029C14.6381 8.12769 13.7865 8.32566 13.0414 8.615C12.2595 8.90885 11.5511 9.36979 10.9657 9.96566C10.3698 10.5511 9.90888 11.2595 9.615 12.0414C9.32566 12.7865 9.12769 13.6381 9.07029 14.8845C9.01289 16.1344 9 16.5327 9 19.7143C9 22.8959 9.01289 23.2942 9.07029 24.5441C9.12769 25.7905 9.32566 26.6421 9.615 27.3871C9.90891 28.1691 10.3698 28.8774 10.9657 29.4629C11.5511 30.0587 12.2595 30.5197 13.0414 30.8136C13.7865 31.1029 14.6381 31.3009 15.8845 31.3583C17.1344 31.4145 17.5327 31.4286 20.7143 31.4286C23.8959 31.4286 24.2942 31.4145 25.5441 31.3583C26.7905 31.3009 27.6421 31.1029 28.3871 30.8136C29.1691 30.5197 29.8775 30.0588 30.4629 29.4629C31.0588 28.8775 31.5197 28.1691 31.8136 27.3871C32.1029 26.6421 32.3009 25.7905 32.3583 24.5441C32.4145 23.2942 32.4286 22.8959 32.4286 19.7143C32.4286 16.5327 32.4145 16.1344 32.3583 14.8845C32.3009 13.6381 32.1029 12.7865 31.8136 12.0414C31.5197 11.2595 31.0588 10.5511 30.4629 9.96566C29.8775 9.36979 29.1691 8.90885 28.3871 8.615C27.6421 8.32566 26.7905 8.12769 25.5441 8.07029C24.2942 8.01406 23.8959 8 20.7143 8ZM20.7143 10.1109C23.842 10.1109 24.2122 10.1226 25.4469 10.1789C26.5902 10.2316 27.2099 10.4213 27.6234 10.5818C28.1693 10.795 28.5605 11.0492 28.9705 11.4581C29.3805 11.8681 29.6335 12.2593 29.8467 12.8052C30.0061 13.2187 30.1982 13.8384 30.2497 14.9805C30.3059 16.2164 30.3177 16.5854 30.3177 19.7143C30.3177 22.842 30.3059 23.2122 30.2497 24.4469C30.197 25.5902 30.0061 26.2099 29.8467 26.6234C29.6589 27.1322 29.3595 27.5925 28.9705 27.9705C28.5605 28.3805 28.1693 28.6335 27.6234 28.8467C27.2099 29.0061 26.5902 29.1982 25.448 29.2497C24.2133 29.3059 23.8432 29.3177 20.7143 29.3177C17.5866 29.3177 17.2152 29.3059 15.9817 29.2497C14.8384 29.197 14.2187 29.0061 13.8052 28.8467C13.2963 28.659 12.836 28.3596 12.4581 27.9705C12.069 27.5926 11.7696 27.1323 11.5818 26.6234C11.4213 26.2099 11.2304 25.5902 11.1789 24.448C11.1226 23.2122 11.1109 22.8432 11.1109 19.7143C11.1109 16.5866 11.1226 16.2164 11.1789 14.9817C11.2316 13.8384 11.4213 13.2187 11.5818 12.8052C11.795 12.2593 12.0492 11.8681 12.4581 11.4581C12.8681 11.0481 13.2593 10.795 13.8052 10.5818C14.2187 10.4213 14.8384 10.2304 15.9805 10.1789C17.2164 10.1226 17.5854 10.1109 20.7143 10.1109ZM20.7143 23.6187C19.6788 23.6187 18.6857 23.2073 17.9535 22.4751C17.2213 21.7429 16.8099 20.7498 16.8099 19.7143C16.8099 18.6788 17.2213 17.6857 17.9535 16.9535C18.6857 16.2213 19.6788 15.8099 20.7143 15.8099C21.7498 15.8099 22.7429 16.2213 23.4751 16.9535C24.2073 17.6857 24.6187 18.6788 24.6187 19.7143C24.6187 20.7498 24.2073 21.7429 23.4751 22.4751C22.7429 23.2073 21.7498 23.6187 20.7143 23.6187ZM20.7143 13.699C19.9243 13.699 19.1421 13.8546 18.4123 14.1569C17.6825 14.4592 17.0194 14.9023 16.4608 15.4608C15.9023 16.0194 15.4592 16.6825 15.1569 17.4123C14.8546 18.1421 14.699 18.9243 14.699 19.7143C14.699 20.5042 14.8546 21.2864 15.1569 22.0162C15.4592 22.746 15.9023 23.4092 16.4608 23.9677C17.0194 24.5263 17.6825 24.9694 18.4123 25.2717C19.1421 25.574 19.9243 25.7296 20.7143 25.7296C22.3096 25.7296 23.8396 25.0958 24.9677 23.9677C26.0958 22.8396 26.7296 21.3096 26.7296 19.7143C26.7296 18.1189 26.0958 16.5889 24.9677 15.4608C23.8396 14.3328 22.3096 13.699 20.7143 13.699ZM28.3731 13.4612C28.3731 13.6458 28.3367 13.8286 28.2661 13.9991C28.1954 14.1697 28.0919 14.3247 27.9614 14.4552C27.8308 14.5857 27.6759 14.6893 27.5053 14.7599C27.3348 14.8306 27.152 14.8669 26.9674 14.8669C26.7828 14.8669 26.6 14.8306 26.4294 14.7599C26.2589 14.6893 26.1039 14.5857 25.9734 14.4552C25.8428 14.3247 25.7393 14.1697 25.6687 13.9991C25.598 13.8286 25.5617 13.6458 25.5617 13.4612C25.5617 13.0884 25.7098 12.7308 25.9734 12.4672C26.237 12.2036 26.5946 12.0555 26.9674 12.0555C27.3402 12.0555 27.6977 12.2036 27.9614 12.4672C28.225 12.7308 28.3731 13.0884 28.3731 13.4612Z" fill="white"/>
</svg>
