<svg width="152" height="94" viewBox="0 0 152 94" fill="none" xmlns="http://www.w3.org/2000/svg">
<path d="M118.77 72.4894V59.274H123.194V65.4336C123.194 65.8913 123.099 66.3871 123.099 66.3871H123.289L128.114 59.274H131.871V72.4894H127.923V66.2917C127.923 65.8531 128.019 65.4145 128.019 65.4145H127.828L123.003 72.4894H118.77Z" fill="#623B2A"/>
<path d="M109.559 68.7327C111.18 68.7327 112.248 67.4741 112.248 65.9104C112.248 64.3085 111.18 63.0499 109.559 63.0499C107.995 63.0499 106.87 64.3085 106.87 65.9104C106.87 67.4741 107.995 68.7327 109.559 68.7327ZM109.559 58.9309C113.774 58.9309 116.92 61.9058 116.92 65.9104C116.92 69.8769 113.774 72.8518 109.559 72.8518C105.383 72.8518 102.236 69.8769 102.236 65.9104C102.236 61.9248 105.383 58.9309 109.559 58.9309Z" fill="#623B2A"/>
<path d="M21.7043 86.2767C24.374 86.2767 26.1857 84.3316 26.1857 81.7762C26.1857 79.1827 24.374 77.1995 21.7043 77.1995C19.0917 77.1995 17.261 79.1636 17.261 81.7762C17.261 84.3316 19.0726 86.2767 21.7043 86.2767ZM21.7043 74.7776C25.8424 74.7776 28.7792 77.7525 28.7792 81.7762C28.7792 85.7427 25.8424 88.6985 21.7043 88.6985C17.6043 88.6985 14.6484 85.7427 14.6484 81.7762C14.6484 77.7715 17.6043 74.7776 21.7043 74.7776Z" fill="#623B2A"/>
<path d="M81.2972 76.9901C83.6809 76.9901 84.9204 78.5348 85.1302 80.5562H77.5023C77.8837 78.4585 79.333 76.9901 81.2972 76.9901ZM87.5521 82.6157C87.5711 82.3488 87.5902 82.0627 87.5902 81.7957C87.5902 77.772 85.5116 74.7971 81.1637 74.7971C77.4451 74.7971 74.7562 77.772 74.7562 81.7957C74.7562 82.0818 74.7753 82.3488 74.7944 82.6157C75.0995 86.0674 77.3116 88.7181 81.9265 88.7181C84.1576 88.7181 86.0455 88.0316 87.4186 86.9255L86.3888 85.0376C85.3781 85.8004 83.8334 86.506 82.0027 86.506C79.1232 86.506 77.7311 84.9423 77.4641 82.6348H77.4832L87.5521 82.6157Z" fill="#623B2A"/>
<path d="M99.1079 75.1399V80.5557H92.033V75.1399H89.4014V88.3553H92.033V82.5962H99.1079V88.3553H101.74V75.1399H99.1079Z" fill="#623B2A"/>
<path d="M115.604 75.1399H103.571V77.4855H108.262V88.3553H110.894V77.4855H115.604V75.1399Z" fill="#623B2A"/>
<path d="M132.366 75.1399H129.734V88.3553H132.366V75.1399Z" fill="#623B2A"/>
<path d="M36.3497 81.4139V81.2995C36.3497 81.2995 36.5976 81.2232 36.8074 80.9753C37.0362 80.7274 41.8418 75.159 41.8418 75.159H38.886L34.2521 80.5748H33.2032V75.1399H30.5716V88.3553H33.2032V82.5962H34.4046L39.42 88.3553H42.7C42.7 88.3553 37.0744 82.0241 36.8455 81.7571C36.6167 81.4902 36.3497 81.4139 36.3497 81.4139Z" fill="#623B2A"/>
<path d="M121.611 86.372C120.791 86.372 120.047 86.3148 120.047 86.3148V81.5474C120.047 81.5474 120.619 81.3948 121.63 81.3948C123.823 81.3948 124.795 82.2529 124.795 83.8357C124.815 85.3804 123.937 86.372 121.611 86.372ZM122.088 79.1827C120.867 79.1827 120.047 79.3353 120.047 79.3353V75.1399H117.415V88.3553C117.415 88.3553 119.57 88.5651 121.821 88.5651C125.959 88.5651 127.313 86.0478 127.313 83.7213C127.313 81.3757 126.092 79.1827 122.088 79.1827Z" fill="#623B2A"/>
<path d="M6.56284 86.2767C3.91213 86.2767 2.50097 84.3316 2.55818 81.7762C2.61539 79.1827 4.1219 77.1995 6.7726 77.1995C8.24098 77.1995 10.2052 78.5343 10.2052 80.9562V84.5985C9.38517 85.6474 8.10749 86.2767 6.56284 86.2767ZM10.3196 75.1399L10.2433 76.799H10.0717C9.23261 75.5595 7.55447 74.7776 6.23865 74.7776C2.38655 74.7776 0.0981713 77.7525 0.0028223 81.7762C-0.0925267 85.7427 2.23399 88.6985 6.08609 88.6985C7.85958 88.6985 8.94656 88.2027 10.0335 86.9251H10.2052V88.1074C10.2052 90.6627 8.43168 91.6734 6.42935 91.6734C4.57958 91.6734 3.14934 90.9869 2.27213 90.453L1.41399 92.6269C2.25306 93.0655 3.81678 94 6.42935 94C10.1289 94 12.8368 91.8069 12.8368 87.5734V75.1399H10.3196Z" fill="#623B2A"/>
<path d="M53.1313 75.1399V84.713C52.3494 85.6855 51.1671 86.2767 49.6796 86.2767C47.2578 86.2767 46.1517 84.3316 46.228 81.7762V75.1399H43.6726V81.7762C43.5773 85.7427 45.1601 88.6985 49.0122 88.6985C50.7666 88.6985 51.968 88.1837 52.9596 86.925H53.1313V88.1074C53.1313 90.6627 51.3578 91.6734 49.3554 91.6734C47.5057 91.6734 46.0754 90.9869 45.1982 90.453L44.3401 92.6269C45.1791 93.0655 46.7429 93.9999 49.3554 93.9999C53.055 93.9999 55.7629 91.8069 55.7629 87.5734V75.1399H53.1313Z" fill="#623B2A"/>
<path d="M70.4463 75.1399C70.4463 75.1399 66.0984 81.2613 65.9649 81.4329C65.8314 81.6046 65.7933 81.7953 65.7933 81.7953H65.698C65.698 81.7953 65.6407 81.6236 65.5073 81.4329C65.3738 81.2422 60.7017 75.1399 60.7017 75.1399H58.2226V88.3553H60.8542V79.9264C60.8542 79.3353 60.7398 79.0111 60.7398 79.0111H60.8542L65.698 85.5139H65.8124L70.2938 79.0111H70.4273C70.4273 79.0111 70.2938 79.3543 70.2938 79.9264V88.3553H72.9254V75.1399H70.4463Z" fill="#623B2A"/>
<path d="M96.9348 59.2931C96.9348 59.2931 93.2352 64.0987 93.0826 64.2894C92.911 64.5182 92.892 64.6327 92.892 64.6327H92.7013C92.7013 64.6327 92.6631 64.4992 92.4915 64.2894C92.2245 63.9652 88.3915 59.2931 88.3915 59.2931H84.9017V72.5085H89.1733V66.9401C89.1733 66.3489 89.078 65.9866 89.078 65.9866H89.2687L92.7013 69.9341H92.892L96.0766 65.9866H96.2673C96.2673 65.9866 96.172 66.3489 96.172 66.9401V72.4894H100.425V59.274H96.9348V59.2931Z" fill="#623B2A"/>
<path d="M124.757 31.9036V18.4976H114.192V31.9036C114.192 36.6139 116.709 40.9809 120.809 43.3455L132.69 50.2106V38.006L126.092 34.192C125.253 33.7153 124.757 32.8571 124.757 31.9036Z" fill="#C79B65"/>
<path d="M132.671 44.9285L144.571 38.0633C148.652 35.6987 151.188 31.3317 151.188 26.6215V0H132.69V10.5647H140.604V26.6024C140.604 27.5368 140.108 28.414 139.288 28.8908L132.69 32.7047V44.9285H132.671Z" fill="#E04E39"/>
<path d="M132.671 0L114.192 18.4977H132.671V0Z" fill="#623B2A"/>
</svg>
