<svg width="40" height="40" viewBox="0 0 40 40" fill="none" xmlns="http://www.w3.org/2000/svg">
<rect width="40" height="40" rx="6" fill="#E04E39"/>
<path d="M26.1039 23.6514C24.7693 24.4668 22.9332 24.7901 21.7204 24.9119L22.7383 25.8772L26.4546 29.4527C27.8134 30.7929 25.6022 32.8876 24.2287 31.5942C23.2984 30.6851 21.9347 29.373 20.5125 28.0047L16.7963 31.5895C15.4228 32.8782 13.2116 30.7648 14.585 29.448C15.5299 28.5389 16.8791 27.2268 18.3013 25.8726L19.3046 24.9072C18.1064 24.7854 16.241 24.4808 14.8919 23.6467C13.3041 22.6626 12.6076 22.0862 13.2213 20.8819C13.5817 20.1978 14.5704 19.6214 15.8806 20.6148C15.8806 20.6148 17.6486 21.9691 20.5028 21.9691C23.3569 21.9691 25.1249 20.6148 25.1249 20.6148C26.4351 19.6261 27.4189 20.1978 27.7842 20.8819C28.3882 22.0862 27.6917 22.6626 26.1039 23.6514ZM14.1808 14.0778C14.1808 10.7179 17.0203 8 20.4979 8C23.9754 8 26.815 10.7179 26.815 14.0778C26.815 17.4236 23.9754 20.1415 20.4979 20.1415C17.0203 20.1415 14.1808 17.4236 14.1808 14.0778ZM17.3953 14.0778C17.3953 15.7226 18.7883 17.0628 20.4979 17.0628C22.2074 17.0628 23.6004 15.7226 23.6004 14.0778C23.6004 12.4189 22.2074 11.0787 20.4979 11.0787C18.7883 11.0787 17.3953 12.4189 17.3953 14.0778Z" fill="white"/>
</svg>
