<svg width="185" height="55" viewBox="0 0 185 55" fill="none" xmlns="http://www.w3.org/2000/svg">
<rect x="0.502717" y="1.34525" width="183.995" height="52.9529" rx="14.5788" stroke="#2C2A29" stroke-width="1.00543"/>
<g filter="url(#filter0_ii)">
<path d="M20.0202 8.44382C19.6028 8.8856 19.3561 9.57121 19.3561 10.4591V42.181C19.3561 43.0703 19.6028 43.7545 20.0202 44.1963L20.1263 44.2995L37.8964 26.5294V26.32V26.1106L20.1263 8.33911L20.0202 8.44382Z" fill="url(#paint0_linear)"/>
<path d="M43.8184 32.4547L37.896 26.5294V26.32V26.1106L43.8199 20.1868L43.9533 20.2628L50.9715 24.2503C52.9753 25.3891 52.9753 27.2523 50.9715 28.3926L43.9533 32.3801L43.8184 32.4547Z" fill="url(#paint1_linear)"/>
<g filter="url(#filter1_i)">
<path d="M43.9532 32.3782L37.8946 26.3196L20.0198 44.1958C20.6796 44.8958 21.7711 44.9818 23.0004 44.2847L43.9532 32.3782Z" fill="url(#paint2_linear)"/>
</g>
<path d="M43.9532 20.2611L23.0004 8.35607C21.7711 7.65755 20.6796 7.74504 20.0198 8.445L37.896 26.3212L43.9532 20.2611Z" fill="url(#paint3_linear)"/>
</g>
<path d="M91.6062 32.0686C88.8474 32.0686 86.5989 34.255 86.5989 37.2662C86.5989 40.2592 88.8474 42.4639 91.6062 42.4639C94.3661 42.4639 96.6146 40.2592 96.6146 37.2662C96.6135 34.255 94.3649 32.0686 91.6062 32.0686ZM91.6062 40.4181C90.0942 40.4181 88.7911 39.119 88.7911 37.2675C88.7911 35.3964 90.0954 34.1169 91.6062 34.1169C93.1181 34.1169 94.4212 35.3964 94.4212 37.2675C94.4212 39.1177 93.1181 40.4181 91.6062 40.4181ZM80.6814 32.0686C77.9226 32.0686 75.6741 34.255 75.6741 37.2662C75.6741 40.2592 77.9226 42.4639 80.6814 42.4639C83.4413 42.4639 85.6898 40.2592 85.6898 37.2662C85.6898 34.255 83.4413 32.0686 80.6814 32.0686ZM80.6814 40.4181C79.1694 40.4181 77.8663 39.119 77.8663 37.2675C77.8663 35.3964 79.1706 34.1169 80.6814 34.1169C82.1933 34.1169 83.4964 35.3964 83.4964 37.2675C83.4976 39.1177 82.1933 40.4181 80.6814 40.4181ZM67.6875 33.6647V35.8694H72.7523C72.601 37.1098 72.2045 38.0154 71.5993 38.6448C70.8627 39.4123 69.7097 40.2592 67.6875 40.2592C64.5698 40.2592 62.1324 37.6402 62.1324 34.3918C62.1324 31.1435 64.5698 28.5245 67.6875 28.5245C69.3695 28.5245 70.5976 29.2138 71.5043 30.0998L72.9974 28.5441C71.7306 27.2841 70.0498 26.3198 67.6875 26.3198C63.4168 26.3198 59.8264 29.9422 59.8264 34.3918C59.8264 38.8415 63.4168 42.4639 67.6875 42.4639C69.9923 42.4639 71.7318 41.6756 73.0913 40.1993C74.4894 38.7426 74.9246 36.6943 74.9246 35.0408C74.9246 34.5299 74.887 34.057 74.8108 33.6635H67.6875V33.6647ZM120.831 35.3769C120.416 34.2159 119.149 32.0686 116.561 32.0686C113.991 32.0686 111.855 34.1755 111.855 37.2662C111.855 40.1798 113.972 42.4639 116.806 42.4639C119.092 42.4639 120.415 41.0071 120.964 40.1602L119.263 38.9784C118.696 39.8449 117.921 40.4156 116.806 40.4156C115.691 40.4156 114.897 39.884 114.387 38.8403L121.058 35.9659L120.831 35.3769ZM114.028 37.1098C113.972 35.1007 115.521 34.0778 116.637 34.0778C117.506 34.0778 118.243 34.5312 118.489 35.1801L114.028 37.1098ZM108.606 42.1498H110.797V26.8722H108.606V42.1498ZM105.014 33.2308H104.939C104.448 32.6198 103.502 32.0686 102.313 32.0686C99.818 32.0686 97.5319 34.3527 97.5319 37.287C97.5319 40.2005 99.818 42.4651 102.313 42.4651C103.503 42.4651 104.448 41.9139 104.939 41.2845H105.014V42.0325C105.014 44.0208 103.994 45.0841 102.35 45.0841C101.008 45.0841 100.177 44.0807 99.8367 43.2338L97.9283 44.0612C98.4761 45.4385 99.9305 47.1323 102.35 47.1323C104.92 47.1323 107.094 45.557 107.094 41.7172V32.3851H105.015V33.2308H105.014ZM102.502 40.4181C100.99 40.4181 99.7241 39.0982 99.7241 37.287C99.7241 35.4551 100.99 34.1169 102.502 34.1169C103.994 34.1169 105.165 35.4551 105.165 37.287C105.165 39.0982 103.994 40.4181 102.502 40.4181ZM131.099 26.8722H125.855V42.1498H128.042V36.3619H131.098C133.524 36.3619 135.909 34.5324 135.909 31.6177C135.909 28.7029 133.525 26.8722 131.099 26.8722ZM131.155 34.2354H128.042V28.9987H131.155C132.792 28.9987 133.721 30.4102 133.721 31.6177C133.721 32.8007 132.792 34.2354 131.155 34.2354ZM144.682 32.0417C143.097 32.0417 141.456 32.7689 140.777 34.3809L142.72 35.2253C143.135 34.3808 143.909 34.1047 144.719 34.1047C145.851 34.1047 147.002 34.8123 147.021 36.0698V36.2275C146.624 35.9916 145.775 35.6384 144.738 35.6384C142.644 35.6384 140.512 36.8373 140.512 39.0774C140.512 41.122 142.229 42.4382 144.153 42.4382C145.624 42.4382 146.435 41.7502 146.944 40.9436H147.02V42.1229H149.133V36.2653C149.134 33.5547 147.19 32.0417 144.682 32.0417ZM144.417 40.4144C143.701 40.4144 142.701 40.0404 142.701 39.1165C142.701 37.9372 143.946 37.485 145.022 37.485C145.983 37.485 146.437 37.7013 147.021 37.9958C146.851 39.4123 145.681 40.4144 144.417 40.4144ZM156.83 32.3754L154.321 38.9992H154.246L151.642 32.3754H149.285L153.189 41.6328L150.963 46.7828H153.246L159.264 32.3754H156.83ZM137.118 42.1498H139.305V26.8722H137.118V42.1498Z" fill="#2C2A29"/>
<path d="M68.7255 18.111C68.7255 18.4646 68.6518 18.8231 68.5045 19.1865C68.3572 19.5401 68.1312 19.8888 67.8268 20.2326C67.5321 20.5665 67.1146 20.8416 66.5744 21.0577C66.0342 21.2737 65.4154 21.3818 64.718 21.3818C63.4019 21.3818 62.3362 21.0675 61.5209 20.4389C60.7057 19.8102 60.2981 18.887 60.2981 17.669H62.1103C62.1103 18.4351 62.3607 19.0048 62.8617 19.3781C63.3626 19.7415 64.0158 19.9232 64.8212 19.9232C65.4891 19.9232 65.9998 19.766 66.3534 19.4517C66.707 19.1374 66.8838 18.6807 66.8838 18.0815C66.8838 17.5315 66.707 17.1141 66.3534 16.8292C66.0097 16.5444 65.5333 16.4019 64.9243 16.4019H63.6425V14.9728H64.9243C65.4056 14.9728 65.8034 14.8206 66.1177 14.5161C66.4418 14.2116 66.6039 13.8187 66.6039 13.3374C66.6039 12.8758 66.4418 12.5173 66.1177 12.2619C65.7936 11.9967 65.3368 11.8641 64.7475 11.8641C63.3331 11.8641 62.5719 12.478 62.4639 13.7058H60.7106C60.7499 12.586 61.128 11.7561 61.8451 11.2158C62.5621 10.6756 63.4903 10.4055 64.6296 10.4055C65.7395 10.4055 66.6481 10.6462 67.3553 11.1274C68.0625 11.5989 68.4161 12.3061 68.4161 13.249C68.4161 13.7794 68.2442 14.2607 67.9004 14.6929C67.5566 15.1251 67.1687 15.3952 66.7365 15.5032V15.5474C67.3258 15.6653 67.8022 15.96 68.1656 16.4314C68.5389 16.8931 68.7255 17.4529 68.7255 18.111Z" fill="#2C2A29"/>
<path d="M70.1905 15.8863C70.3673 14.1674 71.4772 13.308 73.5202 13.308C74.473 13.308 75.2293 13.4946 75.7892 13.8678C76.3588 14.2411 76.6437 14.8206 76.6437 15.6064V19.4665C76.6437 19.6826 76.6682 19.8299 76.7174 19.9085C76.7763 19.987 76.8843 20.0263 77.0415 20.0263C77.1593 20.0263 77.287 20.0165 77.4245 19.9969V21.1755C76.9924 21.2836 76.629 21.3376 76.3343 21.3376C75.6173 21.3376 75.2047 21.0331 75.0967 20.4241C74.4583 21.0331 73.5693 21.3376 72.43 21.3376C71.6442 21.3376 71.0205 21.1362 70.5589 20.7335C70.0972 20.321 69.8664 19.766 69.8664 19.0687C69.8664 18.8526 69.8909 18.6512 69.9401 18.4646C69.9892 18.278 70.0432 18.1159 70.1021 17.9784C70.1709 17.8409 70.274 17.7132 70.4115 17.5953C70.5589 17.4775 70.6767 17.3793 70.7651 17.3007C70.8633 17.2221 71.0156 17.1484 71.2218 17.0797C71.4379 17.0109 71.5951 16.9618 71.6933 16.9323C71.8014 16.8931 71.9831 16.8538 72.2384 16.8145C72.4938 16.7752 72.6608 16.7506 72.7394 16.7408C72.8278 16.7212 73.0046 16.6966 73.2698 16.6671C73.8689 16.5886 74.2765 16.5247 74.4926 16.4756C74.7087 16.4167 74.856 16.3332 74.9346 16.2252C75.0034 16.1466 75.0378 15.9649 75.0378 15.68C75.0378 14.9139 74.5172 14.5308 73.476 14.5308C72.926 14.5308 72.5233 14.634 72.2679 14.8402C72.0125 15.0465 71.8505 15.3952 71.7817 15.8863H70.1905ZM75.023 17.3301C74.8953 17.3989 74.748 17.4627 74.581 17.5217C74.4141 17.5708 74.2765 17.6052 74.1685 17.6248C74.0703 17.6346 73.9082 17.6543 73.6823 17.6837C73.4662 17.7132 73.3238 17.7329 73.255 17.7427C73.0488 17.7721 72.8867 17.8016 72.7688 17.8311C72.651 17.8507 72.5036 17.89 72.3268 17.9489C72.1599 18.0079 72.0273 18.0815 71.929 18.1699C71.8406 18.2485 71.7621 18.3615 71.6933 18.5088C71.6246 18.6463 71.5902 18.8133 71.5902 19.0097C71.5902 19.3732 71.708 19.6531 71.9438 19.8495C72.1893 20.046 72.5282 20.1442 72.9604 20.1442C73.7069 20.1442 74.2815 19.9428 74.6842 19.5401C74.9101 19.3142 75.023 18.8771 75.023 18.2289V17.3301Z" fill="#2C2A29"/>
<path d="M83.7696 14.8697H80.1305V21.1461H78.4509V13.5437H83.7696V14.8697Z" fill="#2C2A29"/>
<path d="M86.33 13.5437V14.5603C86.8407 13.7352 87.6658 13.3227 88.8052 13.3227C89.8561 13.3227 90.6959 13.691 91.3246 14.4277C91.9532 15.1644 92.2675 16.1466 92.2675 17.3743C92.2675 18.5726 91.9581 19.5352 91.3393 20.2621C90.7303 20.9791 89.9151 21.3376 88.8936 21.3376C87.8131 21.3376 86.9881 20.9398 86.4184 20.1442V23.9601H84.7535V13.5437H86.33ZM88.4663 14.6782C87.8082 14.6782 87.2926 14.9139 86.9193 15.3854C86.5461 15.8568 86.3595 16.51 86.3595 17.3449C86.3595 18.1699 86.5461 18.8182 86.9193 19.2897C87.3024 19.7611 87.8279 19.9969 88.4958 19.9969C89.1342 19.9969 89.6401 19.7611 90.0133 19.2897C90.3865 18.8182 90.5732 18.1798 90.5732 17.3743C90.5732 16.5493 90.3816 15.8961 89.9986 15.4148C89.6253 14.9237 89.1146 14.6782 88.4663 14.6782Z" fill="#2C2A29"/>
<path d="M100.262 13.5437L97.4478 20.9987C97.4184 21.0675 97.3643 21.2099 97.2858 21.426C97.2072 21.6519 97.1532 21.8041 97.1237 21.8827C97.0942 21.9613 97.0353 22.0988 96.9469 22.2952C96.8683 22.4917 96.8045 22.6292 96.7554 22.7078C96.7063 22.7864 96.6326 22.9042 96.5344 23.0614C96.4361 23.2185 96.3428 23.3315 96.2544 23.4002C96.1759 23.469 96.0727 23.5525 95.945 23.6507C95.8272 23.7588 95.7044 23.8324 95.5767 23.8717C95.449 23.9208 95.3017 23.9601 95.1347 23.9896C94.9776 24.0289 94.8057 24.0485 94.619 24.0485C94.3047 24.0485 93.9168 24.019 93.4551 23.9601V22.5457C93.8087 22.6145 94.1034 22.6488 94.3391 22.6488C94.457 22.6488 94.565 22.6292 94.6632 22.5899C94.7615 22.5604 94.8499 22.5015 94.9284 22.4131C95.007 22.3345 95.0758 22.256 95.1347 22.1774C95.1936 22.1086 95.2477 22.0055 95.2968 21.868C95.3557 21.7403 95.3999 21.6372 95.4294 21.5586C95.4588 21.4898 95.4981 21.3769 95.5472 21.2197C95.5964 21.0626 95.6258 20.9643 95.6356 20.9251L92.7185 13.5437H94.5601L96.5933 19.1423L98.5086 13.5437H100.262Z" fill="#2C2A29"/>
<path d="M107.416 18.8919C107.416 19.6678 107.092 20.2719 106.443 20.7041C105.805 21.1362 105.049 21.3523 104.174 21.3523C103.094 21.3523 102.259 21.1264 101.67 20.6746C101.09 20.2129 100.781 19.5794 100.742 18.774H102.436C102.554 19.6285 103.128 20.0558 104.16 20.0558C104.641 20.0558 105.024 19.9576 105.309 19.7611C105.594 19.5549 105.736 19.2749 105.736 18.9213C105.736 18.1749 105.24 17.8016 104.248 17.8016H103.305V16.564H103.983C104.995 16.564 105.5 16.2301 105.5 15.5622C105.5 14.9237 105.039 14.6045 104.115 14.6045C103.31 14.6045 102.824 14.9826 102.657 15.739H100.963C101.11 14.1281 102.215 13.3227 104.278 13.3227C105.132 13.3227 105.824 13.4897 106.355 13.8236C106.895 14.1576 107.165 14.6732 107.165 15.3706C107.165 15.7832 107.042 16.1368 106.797 16.4314C106.561 16.7261 106.276 16.9078 105.942 16.9765V17.006C106.345 17.0846 106.689 17.2859 106.974 17.6101C107.268 17.9244 107.416 18.3516 107.416 18.8919Z" fill="#2C2A29"/>
<path d="M110.96 21.1461H108.838V13.5437H110.518V19.0834H110.562L113.406 13.5437H115.527V21.1461H113.848V15.6064H113.803L110.96 21.1461Z" fill="#2C2A29"/>
<path d="M123.177 14.8697H120.672V21.1461H118.993V14.8697H116.488V13.5437H123.177V14.8697Z" fill="#2C2A29"/>
<path d="M130.041 16.9471C130.492 17.3694 130.718 17.9588 130.718 18.7151C130.718 19.4714 130.492 20.0656 130.041 20.4978C129.589 20.93 128.955 21.1461 128.14 21.1461H124.133V13.5437H125.812V16.2988H128.125C128.95 16.2988 129.589 16.5149 130.041 16.9471ZM129.039 18.7445C129.039 18.4008 128.941 18.1257 128.744 17.9195C128.548 17.7132 128.273 17.6101 127.919 17.6101H125.812V19.8348H127.949C128.312 19.8348 128.582 19.7366 128.759 19.5401C128.945 19.3339 129.039 19.0687 129.039 18.7445Z" fill="#2C2A29"/>
<path d="M137.826 21.1461H136.147V13.5437H137.826V16.5198H141.156V13.5437H142.835V21.1461H141.156V17.8458H137.826V21.1461Z" fill="#2C2A29"/>
<path d="M144.533 15.8863C144.71 14.1674 145.82 13.308 147.863 13.308C148.815 13.308 149.572 13.4946 150.132 13.8678C150.701 14.2411 150.986 14.8206 150.986 15.6064V19.4665C150.986 19.6826 151.011 19.8299 151.06 19.9085C151.119 19.987 151.227 20.0263 151.384 20.0263C151.502 20.0263 151.63 20.0165 151.767 19.9969V21.1755C151.335 21.2836 150.971 21.3376 150.677 21.3376C149.96 21.3376 149.547 21.0331 149.439 20.4241C148.801 21.0331 147.912 21.3376 146.772 21.3376C145.987 21.3376 145.363 21.1362 144.901 20.7335C144.44 20.321 144.209 19.766 144.209 19.0687C144.209 18.8526 144.233 18.6512 144.283 18.4646C144.332 18.278 144.386 18.1159 144.445 17.9784C144.513 17.8409 144.616 17.7132 144.754 17.5953C144.901 17.4775 145.019 17.3793 145.108 17.3007C145.206 17.2221 145.358 17.1484 145.564 17.0797C145.78 17.0109 145.938 16.9618 146.036 16.9323C146.144 16.8931 146.326 16.8538 146.581 16.8145C146.836 16.7752 147.003 16.7506 147.082 16.7408C147.17 16.7212 147.347 16.6966 147.612 16.6671C148.211 16.5886 148.619 16.5247 148.835 16.4756C149.051 16.4167 149.199 16.3332 149.277 16.2252C149.346 16.1466 149.38 15.9649 149.38 15.68C149.38 14.9139 148.86 14.5308 147.819 14.5308C147.268 14.5308 146.866 14.634 146.61 14.8402C146.355 15.0465 146.193 15.3952 146.124 15.8863H144.533ZM149.365 17.3301C149.238 17.3989 149.09 17.4627 148.924 17.5217C148.757 17.5708 148.619 17.6052 148.511 17.6248C148.413 17.6346 148.251 17.6543 148.025 17.6837C147.809 17.7132 147.666 17.7329 147.598 17.7427C147.391 17.7721 147.229 17.8016 147.111 17.8311C146.993 17.8507 146.846 17.89 146.669 17.9489C146.502 18.0079 146.37 18.0815 146.272 18.1699C146.183 18.2485 146.105 18.3615 146.036 18.5088C145.967 18.6463 145.933 18.8133 145.933 19.0097C145.933 19.3732 146.051 19.6531 146.286 19.8495C146.532 20.046 146.871 20.1442 147.303 20.1442C148.049 20.1442 148.624 19.9428 149.027 19.5401C149.253 19.3142 149.365 18.8771 149.365 18.2289V17.3301Z" fill="#2C2A29"/>
<defs>
<filter id="filter0_ii" x="19.3561" y="7.87402" width="33.1182" height="36.8922" filterUnits="userSpaceOnUse" color-interpolation-filters="sRGB">
<feFlood flood-opacity="0" result="BackgroundImageFix"/>
<feBlend mode="normal" in="SourceGraphic" in2="BackgroundImageFix" result="shape"/>
<feColorMatrix in="SourceAlpha" type="matrix" values="0 0 0 0 0 0 0 0 0 0 0 0 0 0 0 0 0 0 127 0" result="hardAlpha"/>
<feOffset dy="-0.150815"/>
<feComposite in2="hardAlpha" operator="arithmetic" k2="-1" k3="1"/>
<feColorMatrix type="matrix" values="0 0 0 0 0 0 0 0 0 0 0 0 0 0 0 0 0 0 0.12 0"/>
<feBlend mode="normal" in2="shape" result="effect1_innerShadow"/>
<feColorMatrix in="SourceAlpha" type="matrix" values="0 0 0 0 0 0 0 0 0 0 0 0 0 0 0 0 0 0 127 0" result="hardAlpha"/>
<feOffset dy="0.150815"/>
<feComposite in2="hardAlpha" operator="arithmetic" k2="-1" k3="1"/>
<feColorMatrix type="matrix" values="0 0 0 0 1 0 0 0 0 1 0 0 0 0 1 0 0 0 0.25 0"/>
<feBlend mode="normal" in2="effect1_innerShadow" result="effect2_innerShadow"/>
</filter>
<filter id="filter1_i" x="20.0198" y="26.3196" width="23.9334" height="18.4466" filterUnits="userSpaceOnUse" color-interpolation-filters="sRGB">
<feFlood flood-opacity="0" result="BackgroundImageFix"/>
<feBlend mode="normal" in="SourceGraphic" in2="BackgroundImageFix" result="shape"/>
<feColorMatrix in="SourceAlpha" type="matrix" values="0 0 0 0 0 0 0 0 0 0 0 0 0 0 0 0 0 0 127 0" result="hardAlpha"/>
<feOffset dy="-0.150815"/>
<feComposite in2="hardAlpha" operator="arithmetic" k2="-1" k3="1"/>
<feColorMatrix type="matrix" values="0 0 0 0 0 0 0 0 0 0 0 0 0 0 0 0 0 0 0.08 0"/>
<feBlend mode="normal" in2="shape" result="effect1_innerShadow"/>
</filter>
<linearGradient id="paint0_linear" x1="36.3212" y1="10.1234" x2="12.2501" y2="34.1946" gradientUnits="userSpaceOnUse">
<stop stop-color="#00A0FF"/>
<stop offset="0.0066" stop-color="#00A1FF"/>
<stop offset="0.2601" stop-color="#00BEFF"/>
<stop offset="0.5122" stop-color="#00D2FF"/>
<stop offset="0.7604" stop-color="#00DFFF"/>
<stop offset="1" stop-color="#00E3FF"/>
</linearGradient>
<linearGradient id="paint1_linear" x1="53.5798" y1="26.32" x2="18.8746" y2="26.32" gradientUnits="userSpaceOnUse">
<stop stop-color="#FFE000"/>
<stop offset="0.4087" stop-color="#FFBD00"/>
<stop offset="0.7754" stop-color="#FFA500"/>
<stop offset="1" stop-color="#FF9C00"/>
</linearGradient>
<linearGradient id="paint2_linear" x1="40.663" y1="29.6098" x2="8.01951" y2="62.2533" gradientUnits="userSpaceOnUse">
<stop stop-color="#FF3A44"/>
<stop offset="1" stop-color="#C31162"/>
</linearGradient>
<linearGradient id="paint3_linear" x1="15.518" y1="-2.11492" x2="30.0942" y2="12.4613" gradientUnits="userSpaceOnUse">
<stop stop-color="#32A071"/>
<stop offset="0.0685" stop-color="#2DA771"/>
<stop offset="0.4762" stop-color="#15CF74"/>
<stop offset="0.8009" stop-color="#06E775"/>
<stop offset="1" stop-color="#00F076"/>
</linearGradient>
</defs>
</svg>
