<svg width="90" height="120" viewBox="0 0 90 120" fill="none" xmlns="http://www.w3.org/2000/svg">
<path d="M84.375 15C87.4816 15 90 12.4816 90 9.375V5.625C90 2.51836 87.4816 0 84.375 0H5.625C2.51836 0 0 2.51836 0 5.625V9.375C0 12.4816 2.51836 15 5.625 15C5.625 36.3199 17.5819 54.3127 33.9473 60C17.5819 65.6873 5.625 83.6801 5.625 105C2.51836 105 0 107.518 0 110.625V114.375C0 117.482 2.51836 120 5.625 120H84.375C87.4816 120 90 117.482 90 114.375V110.625C90 107.518 87.4816 105 84.375 105C84.375 83.6801 72.4181 65.6873 56.0527 60C72.4181 54.3127 84.375 36.3199 84.375 15Z" fill="#E3CCB7"/>
</svg>
