<svg width="114" height="120" viewBox="0 0 114 120" fill="none" xmlns="http://www.w3.org/2000/svg">
<path d="M106.336 19.6173L61.3359 0.867324C59.9652 0.298681 58.4957 0.00598145 57.0117 0.00598145C55.5277 0.00598145 54.0583 0.298681 52.6875 0.867324L7.6875 19.6173C3.49219 21.3517 0.75 25.4533 0.75 30.0001C0.75 76.5236 27.5859 108.68 52.6641 119.133C55.4297 120.281 58.5469 120.281 61.3125 119.133C81.3984 110.766 113.25 81.8673 113.25 30.0001C113.25 25.4533 110.508 21.3517 106.336 19.6173ZM57.0234 104.602L57 15.3048L98.2266 32.4845C97.4531 67.9689 78.9844 93.6798 57.0234 104.602Z" fill="#E3CCB7"/>
</svg>
