<svg width="40" height="40" viewBox="0 0 40 40" fill="none" xmlns="http://www.w3.org/2000/svg">
<path d="M34 0H6C2.68629 0 0 2.68629 0 6V34C0 37.3137 2.68629 40 6 40H34C37.3137 40 40 37.3137 40 34V6C40 2.68629 37.3137 0 34 0Z" fill="#E04E39"/>
<path d="M10.3633 12.173C11.3219 14.5403 12.5369 16.7724 14.137 18.7761C14.3493 19.0427 14.6168 19.2798 14.8986 19.4728C15.3103 19.7555 15.6987 19.6562 15.866 19.1853C16.0431 18.6911 16.2055 17.6897 16.2152 17.1707C16.2416 15.8149 16.2112 14.9263 16.1384 13.572C16.0912 12.7047 15.7828 11.9431 14.507 11.7132C14.113 11.642 14.0764 11.3176 14.3295 10.9941C14.8565 10.3206 15.5906 10.2132 16.3867 10.1707C17.6769 10.1011 18.9719 10.1579 20.2637 10.1707C20.7899 10.1756 21.3193 10.218 21.8375 10.3309C22.5134 10.4783 22.8753 10.9524 22.9867 11.6123C23.0444 11.9527 23.0741 12.3026 23.066 12.647C23.0324 14.127 22.9611 15.6062 22.9443 17.0854C22.9371 17.666 22.9794 18.2611 23.1036 18.8266C23.2774 19.6146 23.814 19.8124 24.3626 19.243C25.0594 18.5199 25.6737 17.7062 26.2502 16.8797C27.2978 15.3764 28.0802 13.7267 28.7537 12.0257C29.1021 11.148 29.3688 10.9573 30.313 10.955C32.0877 10.9509 33.8625 10.9494 35.6372 10.955C35.9519 10.9566 36.2811 10.9862 36.5782 11.0808C37.0603 11.2345 37.2517 11.6277 37.1388 12.1267C36.8753 13.296 36.2434 14.2898 35.5667 15.2453C34.4807 16.7781 33.3427 18.2742 32.2311 19.7894C32.0894 19.9824 31.9645 20.1882 31.8483 20.3972C31.4326 21.1484 31.4615 21.5697 32.0677 22.1951C33.0328 23.1906 34.0659 24.122 35.0005 25.1447C35.6797 25.8887 36.3083 26.6959 36.8465 27.5456C37.5273 28.6204 37.1067 29.6327 35.835 29.8129C35.035 29.9258 31.1269 29.8137 30.9249 29.8129C29.8742 29.8081 28.9532 29.4437 28.2116 28.7301C27.3867 27.9357 26.637 27.0643 25.845 26.2354C25.6063 25.9855 25.3516 25.7461 25.077 25.537C24.4291 25.0429 23.7932 25.1526 23.4905 25.9135C23.2318 26.567 23.0083 28.2832 22.9979 28.4298C22.9435 29.1962 22.4557 29.6847 21.5971 29.7319C19.1185 29.8665 16.7166 29.5902 14.4791 28.3913C12.5826 27.3758 11.0682 25.9399 9.75637 24.2653C7.67251 21.6055 6.02653 18.6817 4.5238 15.6721C4.447 15.5183 2.92496 12.2795 2.88406 12.1265C2.7481 11.6143 2.87493 11.125 3.30773 10.9566C3.57754 10.8516 8.59577 10.9562 8.67924 10.9607C9.47998 11.004 10.026 11.3419 10.3633 12.173Z" fill="#E04E39"/>
<path d="M33.358 13.0835C33.5536 12.4584 33.358 12 32.433 12H29.3687C28.589 12 28.2327 12.3966 28.037 12.8321C28.037 12.8321 26.479 16.4873 24.2713 18.8573C23.5586 19.547 23.2331 19.7647 22.8446 19.7647C22.6504 19.7647 22.3681 19.547 22.3681 18.9219V13.0835C22.3681 12.3334 22.1432 12 21.4934 12H16.6783C16.192 12 15.8986 12.3468 15.8986 12.6775C15.8986 13.3873 17.0024 13.5513 17.1156 15.5517V19.8911C17.1156 20.8415 16.9382 21.015 16.5469 21.015C15.5087 21.015 12.9824 17.3463 11.4831 13.1467C11.191 12.3307 10.8962 12.0013 10.1137 12.0013H7.05078C6.17466 12.0013 6 12.3979 6 12.8335C6 13.6159 7.0382 17.4875 10.8361 22.608C13.368 26.1045 16.9326 28 20.1799 28C22.1264 28 22.3667 27.5792 22.3667 26.8533V24.2104C22.3667 23.3688 22.5526 23.1995 23.1688 23.1995C23.6215 23.1995 24.4012 23.4199 26.2191 25.1044C28.2955 27.102 28.6393 27.9987 29.806 27.9987H32.8689C33.7437 27.9987 34.181 27.5779 33.9295 26.7471C33.6542 25.9203 32.6621 24.7172 31.3459 23.2936C30.6305 22.4816 29.5615 21.6078 29.2359 21.1709C28.7818 20.6076 28.9132 20.3589 29.2359 19.8588C29.2373 19.8602 32.9696 14.8029 33.358 13.0835Z" fill="white"/>
</svg>
